<?xml version="1.0" encoding="UTF-8" standalone="no"?>
<!-- Created with Inkscape (http://www.inkscape.org/) -->

<svg
   width="350mm"
   height="350mm"
   viewBox="0 0 350 350"
   version="1.1"
   id="svg1"
   inkscape:version="1.4 (86a8ad7, 2024-10-11)"
   sodipodi:docname="gloomForestTreant.svg"
   xml:space="preserve"
   xmlns:inkscape="http://www.inkscape.org/namespaces/inkscape"
   xmlns:sodipodi="http://sodipodi.sourceforge.net/DTD/sodipodi-0.dtd"
   xmlns="http://www.w3.org/2000/svg"
   xmlns:svg="http://www.w3.org/2000/svg"><sodipodi:namedview
     id="namedview1"
     pagecolor="#000000"
     bordercolor="#ffffff"
     borderopacity="1"
     inkscape:showpageshadow="0"
     inkscape:pageopacity="0"
     inkscape:pagecheckerboard="1"
     inkscape:deskcolor="#505050"
     inkscape:document-units="mm"
     showguides="true"
     inkscape:zoom="0.41804167"
     inkscape:cx="661.41732"
     inkscape:cy="661.41732"
     inkscape:window-width="1366"
     inkscape:window-height="745"
     inkscape:window-x="-8"
     inkscape:window-y="-8"
     inkscape:window-maximized="1"
     inkscape:current-layer="layer1" /><defs
     id="defs1"><inkscape:path-effect
       effect="fillet_chamfer"
       id="path-effect55"
       is_visible="true"
       lpeversion="1"
       nodesatellites_param="F,0,0,1,0,1.790072,0,1 @ F,0,0,1,0,3.6113923,0,1"
       radius="0"
       unit="px"
       method="auto"
       mode="F"
       chamfer_steps="1"
       flexible="false"
       use_knot_distance="true"
       apply_no_radius="true"
       apply_with_radius="true"
       only_selected="false"
       hide_knots="false" /><inkscape:path-effect
       effect="fillet_chamfer"
       id="path-effect53"
       is_visible="true"
       lpeversion="1"
       nodesatellites_param="F,0,0,1,0,5.7256841,0,1 @ F,0,0,1,0,0,0,1 @ F,0,0,1,0,5.4389754,0,1 @ F,0,0,1,0,0,0,1 @ F,0,0,1,0,5.3359278,0,1 @ F,0,0,1,0,0,0,1 @ F,0,0,1,0,6.1863377,0,1 @ F,0,0,1,0,0,0,1 @ F,0,0,1,0,5.367782,0,1 @ F,0,0,1,0,0,0,1 @ F,0,0,1,0,3.2845681,0,1 @ F,0,0,1,0,0,0,1 @ F,0,0,1,0,6.084035,0,1 @ F,0,0,1,0,0,0,1 @ F,0,0,1,0,8.5848726,0,1 @ F,0,0,1,0,0,0,1"
       radius="0"
       unit="px"
       method="auto"
       mode="F"
       chamfer_steps="1"
       flexible="false"
       use_knot_distance="true"
       apply_no_radius="true"
       apply_with_radius="true"
       only_selected="false"
       hide_knots="false" /><inkscape:path-effect
       effect="fillet_chamfer"
       id="path-effect51"
       is_visible="true"
       lpeversion="1"
       nodesatellites_param="F,0,0,1,0,5.7256841,0,1 @ F,0,0,1,0,0,0,1 @ F,0,0,1,0,5.4389754,0,1 @ F,0,0,1,0,0,0,1 @ F,0,0,1,0,5.3359278,0,1 @ F,0,0,1,0,0,0,1 @ F,0,0,1,0,6.1863377,0,1 @ F,0,0,1,0,0,0,1 @ F,0,0,1,0,5.367782,0,1 @ F,0,0,1,0,0,0,1 @ F,0,0,1,0,3.2845681,0,1 @ F,0,0,1,0,0,0,1 @ F,0,0,1,0,6.084035,0,1 @ F,0,0,1,0,0,0,1 @ F,0,0,1,0,8.5848726,0,1 @ F,0,0,1,0,0,0,1"
       radius="0"
       unit="px"
       method="auto"
       mode="F"
       chamfer_steps="1"
       flexible="false"
       use_knot_distance="true"
       apply_no_radius="true"
       apply_with_radius="true"
       only_selected="false"
       hide_knots="false" /><inkscape:path-effect
       effect="fillet_chamfer"
       id="path-effect49"
       is_visible="true"
       lpeversion="1"
       nodesatellites_param="F,0,0,1,0,2.9677153,0,1 @ F,0,0,1,0,0,0,1 @ F,0,0,1,0,2.9853553,0,1 @ F,0,0,1,0,2.9853553,0,1 @ F,0,0,1,0,3.996012,0,1 @ F,0,0,1,0,3.996012,0,1 @ F,0,0,1,0,3.5274258,0,1 @ F,0,0,1,0,0,0,1 @ F,0,0,1,0,3.3728948,0,1 @ F,0,0,1,0,0,0,1 @ F,0,0,1,0,4.0254748,0,1 @ F,0,0,1,0,0,0,1 @ F,0,0,1,0,4.0986426,0,1 @ F,0,0,1,0,0,0,1 @ F,0,0,1,0,4.0417498,0,1 @ F,0,0,1,0,0,0,1"
       radius="0"
       unit="px"
       method="auto"
       mode="F"
       chamfer_steps="1"
       flexible="false"
       use_knot_distance="true"
       apply_no_radius="true"
       apply_with_radius="true"
       only_selected="false"
       hide_knots="false" /><inkscape:path-effect
       effect="fillet_chamfer"
       id="path-effect47"
       is_visible="true"
       lpeversion="1"
       nodesatellites_param="F,0,0,1,0,5.7256841,0,1 @ F,0,0,1,0,0,0,1 @ F,0,0,1,0,5.4389754,0,1 @ F,0,0,1,0,0,0,1 @ F,0,0,1,0,5.3359278,0,1 @ F,0,0,1,0,0,0,1 @ F,0,0,1,0,6.1863377,0,1 @ F,0,0,1,0,0,0,1 @ F,0,0,1,0,5.367782,0,1 @ F,0,0,1,0,0,0,1 @ F,0,0,1,0,3.2845681,0,1 @ F,0,0,1,0,0,0,1 @ F,0,0,1,0,6.084035,0,1 @ F,0,0,1,0,0,0,1 @ F,0,0,1,0,8.5848726,0,1 @ F,0,0,1,0,0,0,1"
       radius="0"
       unit="px"
       method="auto"
       mode="F"
       chamfer_steps="1"
       flexible="false"
       use_knot_distance="true"
       apply_no_radius="true"
       apply_with_radius="true"
       only_selected="false"
       hide_knots="false" /><inkscape:path-effect
       effect="fillet_chamfer"
       id="path-effect45"
       is_visible="true"
       lpeversion="1"
       nodesatellites_param="F,0,0,1,0,2.9677153,0,1 @ F,0,0,1,0,0,0,1 @ F,0,0,1,0,2.9853553,0,1 @ F,0,0,1,0,2.9853553,0,1 @ F,0,0,1,0,3.996012,0,1 @ F,0,0,1,0,3.996012,0,1 @ F,0,0,1,0,3.5274258,0,1 @ F,0,0,1,0,0,0,1 @ F,0,0,1,0,3.3728948,0,1 @ F,0,0,1,0,0,0,1 @ F,0,0,1,0,4.0254748,0,1 @ F,0,0,1,0,0,0,1 @ F,0,0,1,0,4.0986426,0,1 @ F,0,0,1,0,0,0,1 @ F,0,0,1,0,4.0417498,0,1 @ F,0,0,1,0,0,0,1"
       radius="0"
       unit="px"
       method="auto"
       mode="F"
       chamfer_steps="1"
       flexible="false"
       use_knot_distance="true"
       apply_no_radius="true"
       apply_with_radius="true"
       only_selected="false"
       hide_knots="false" /><inkscape:path-effect
       effect="fillet_chamfer"
       id="path-effect43"
       is_visible="true"
       lpeversion="1"
       nodesatellites_param="F,0,0,1,0,2.9677153,0,1 @ F,0,0,1,0,0,0,1 @ F,0,0,1,0,2.9853553,0,1 @ F,0,0,1,0,2.9853553,0,1 @ F,0,0,1,0,3.996012,0,1 @ F,0,0,1,0,3.996012,0,1 @ F,0,0,1,0,3.5274258,0,1 @ F,0,0,1,0,0,0,1 @ F,0,0,1,0,3.3728948,0,1 @ F,0,0,1,0,0,0,1 @ F,0,0,1,0,4.0254748,0,1 @ F,0,0,1,0,0,0,1 @ F,0,0,1,0,4.0986426,0,1 @ F,0,0,1,0,0,0,1 @ F,0,0,1,0,4.0417498,0,1 @ F,0,0,1,0,0,0,1"
       radius="0"
       unit="px"
       method="auto"
       mode="F"
       chamfer_steps="1"
       flexible="false"
       use_knot_distance="true"
       apply_no_radius="true"
       apply_with_radius="true"
       only_selected="false"
       hide_knots="false" /><inkscape:path-effect
       effect="fillet_chamfer"
       id="path-effect41"
       is_visible="true"
       lpeversion="1"
       nodesatellites_param="F,0,0,1,0,0,0,1 @ F,0,0,1,0,2.7805554,0,1 @ F,0,0,1,0,3.5115015,0,1 @ F,0,0,1,0,0,0,1 @ F,0,0,1,0,0,0,1 @ F,0,0,1,0,0,0,1"
       radius="0"
       unit="px"
       method="auto"
       mode="F"
       chamfer_steps="1"
       flexible="false"
       use_knot_distance="true"
       apply_no_radius="true"
       apply_with_radius="true"
       only_selected="false"
       hide_knots="false" /><inkscape:path-effect
       effect="fillet_chamfer"
       id="path-effect40"
       is_visible="true"
       lpeversion="1"
       nodesatellites_param="F,0,0,1,0,0,0,1 @ F,0,0,1,0,4.3632666,0,1 @ F,0,0,1,0,1.9179696,0,1 @ F,0,0,1,0,0,0,1"
       radius="0"
       unit="px"
       method="auto"
       mode="F"
       chamfer_steps="1"
       flexible="false"
       use_knot_distance="true"
       apply_no_radius="true"
       apply_with_radius="true"
       only_selected="false"
       hide_knots="false" /><inkscape:path-effect
       effect="fillet_chamfer"
       id="path-effect39"
       is_visible="true"
       lpeversion="1"
       nodesatellites_param="F,0,0,1,0,2.9677153,0,1 @ F,0,0,1,0,0,0,1 @ F,0,0,1,0,2.9853553,0,1 @ F,0,0,1,0,2.9853553,0,1 @ F,0,0,1,0,3.996012,0,1 @ F,0,0,1,0,3.996012,0,1 @ F,0,0,1,0,3.5274258,0,1 @ F,0,0,1,0,0,0,1 @ F,0,0,1,0,3.3728948,0,1 @ F,0,0,1,0,0,0,1 @ F,0,0,1,0,4.0254748,0,1 @ F,0,0,1,0,0,0,1 @ F,0,0,1,0,4.0986426,0,1 @ F,0,0,1,0,0,0,1 @ F,0,0,1,0,4.0417498,0,1 @ F,0,0,1,0,0,0,1"
       radius="0"
       unit="px"
       method="auto"
       mode="F"
       chamfer_steps="1"
       flexible="false"
       use_knot_distance="true"
       apply_no_radius="true"
       apply_with_radius="true"
       only_selected="false"
       hide_knots="false" /><inkscape:path-effect
       effect="fillet_chamfer"
       id="path-effect38"
       is_visible="true"
       lpeversion="1"
       nodesatellites_param="F,0,0,1,0,3.9281122,0,1 @ F,0,1,1,0,3.9281122,0,1 @ F,0,0,1,0,3.552329,0,1 @ F,0,0,1,0,0,0,1 @ F,0,0,1,0,0,0,1 @ F,0,0,1,0,0,0,1 @ F,0,0,1,0,0,0,1 @ F,0,0,1,0,0,0,1 @ F,0,0,1,0,0,0,1 @ F,0,0,1,0,0,0,1 @ F,0,0,1,0,0,0,1 @ F,0,0,1,0,0,0,1 @ F,0,0,1,0,0,0,1 @ F,0,0,1,0,0,0,1 @ F,0,0,1,0,0,0,1 @ F,0,0,1,0,0,0,1"
       radius="0"
       unit="px"
       method="auto"
       mode="F"
       chamfer_steps="1"
       flexible="false"
       use_knot_distance="true"
       apply_no_radius="true"
       apply_with_radius="true"
       only_selected="false"
       hide_knots="false" /><inkscape:path-effect
       effect="powerstroke"
       message=""
       id="path-effect35"
       is_visible="true"
       lpeversion="1.3"
       scale_width="1"
       interpolator_type="CentripetalCatmullRom"
       interpolator_beta="0.75"
       start_linecap_type="round"
       end_linecap_type="round"
       offset_points="0,3.0066289"
       linejoin_type="spiro"
       miter_limit="4"
       not_jump="true"
       sort_points="true" /><inkscape:path-effect
       effect="simplify"
       id="path-effect34"
       is_visible="true"
       lpeversion="1.3"
       threshold="0.012"
       steps="1"
       smooth_angles="0"
       helper_size="0"
       simplify_individual_paths="false"
       simplify_just_coalesce="false"
       step="1" /><inkscape:path-effect
       effect="powerstroke"
       message=""
       id="path-effect33"
       is_visible="true"
       lpeversion="1.3"
       scale_width="1"
       interpolator_type="CentripetalCatmullRom"
       interpolator_beta="0.75"
       start_linecap_type="round"
       end_linecap_type="round"
       offset_points="137.24938,3.0066289"
       linejoin_type="spiro"
       miter_limit="4"
       not_jump="true"
       sort_points="true" /><inkscape:path-effect
       effect="simplify"
       id="path-effect32"
       is_visible="true"
       lpeversion="1.3"
       threshold="0.012"
       steps="1"
       smooth_angles="0"
       helper_size="0"
       simplify_individual_paths="false"
       simplify_just_coalesce="false"
       step="1" /><inkscape:path-effect
       effect="powerstroke"
       message=""
       id="path-effect31"
       is_visible="true"
       lpeversion="1.3"
       scale_width="1"
       interpolator_type="CentripetalCatmullRom"
       interpolator_beta="0.75"
       start_linecap_type="round"
       end_linecap_type="round"
       offset_points="52.756877,3.0066289"
       linejoin_type="spiro"
       miter_limit="4"
       not_jump="true"
       sort_points="true" /><inkscape:path-effect
       effect="simplify"
       id="path-effect30"
       is_visible="true"
       lpeversion="1.3"
       threshold="0.012"
       steps="1"
       smooth_angles="0"
       helper_size="0"
       simplify_individual_paths="false"
       simplify_just_coalesce="false"
       step="1" /><inkscape:path-effect
       effect="powerstroke"
       message=""
       id="path-effect29"
       is_visible="true"
       lpeversion="1.3"
       scale_width="1"
       interpolator_type="CentripetalCatmullRom"
       interpolator_beta="0.75"
       start_linecap_type="round"
       end_linecap_type="round"
       offset_points="53.597527,3.0066289"
       linejoin_type="spiro"
       miter_limit="4"
       not_jump="true"
       sort_points="true" /><inkscape:path-effect
       effect="simplify"
       id="path-effect28"
       is_visible="true"
       lpeversion="1.3"
       threshold="0.012"
       steps="1"
       smooth_angles="0"
       helper_size="0"
       simplify_individual_paths="false"
       simplify_just_coalesce="false"
       step="1" /><inkscape:path-effect
       effect="powerstroke"
       message=""
       id="path-effect27"
       is_visible="true"
       lpeversion="1.3"
       scale_width="1"
       interpolator_type="CentripetalCatmullRom"
       interpolator_beta="0.75"
       start_linecap_type="round"
       end_linecap_type="round"
       offset_points="22.545355,3.0066289"
       linejoin_type="spiro"
       miter_limit="4"
       not_jump="true"
       sort_points="true" /><inkscape:path-effect
       effect="simplify"
       id="path-effect26"
       is_visible="true"
       lpeversion="1.3"
       threshold="0.012"
       steps="1"
       smooth_angles="0"
       helper_size="0"
       simplify_individual_paths="false"
       simplify_just_coalesce="false"
       step="1" /><inkscape:path-effect
       effect="powerstroke"
       message=""
       id="path-effect25"
       is_visible="true"
       lpeversion="1.3"
       scale_width="1"
       interpolator_type="CentripetalCatmullRom"
       interpolator_beta="0.75"
       start_linecap_type="round"
       end_linecap_type="round"
       offset_points="112.43331,4.5099434"
       linejoin_type="spiro"
       miter_limit="4"
       not_jump="true"
       sort_points="true" /><inkscape:path-effect
       effect="simplify"
       id="path-effect24"
       is_visible="true"
       lpeversion="1.3"
       threshold="0.012"
       steps="1"
       smooth_angles="0"
       helper_size="0"
       simplify_individual_paths="false"
       simplify_just_coalesce="false"
       step="1" /><inkscape:path-effect
       effect="powerstroke"
       message=""
       id="path-effect23"
       is_visible="true"
       lpeversion="1.3"
       scale_width="1"
       interpolator_type="CentripetalCatmullRom"
       interpolator_beta="0.75"
       start_linecap_type="round"
       end_linecap_type="round"
       offset_points="92.588873,4.5099434"
       linejoin_type="spiro"
       miter_limit="4"
       not_jump="true"
       sort_points="true" /><inkscape:path-effect
       effect="simplify"
       id="path-effect22"
       is_visible="true"
       lpeversion="1.3"
       threshold="0.012"
       steps="1"
       smooth_angles="0"
       helper_size="0"
       simplify_individual_paths="false"
       simplify_just_coalesce="false"
       step="1" /><inkscape:path-effect
       effect="fillet_chamfer"
       id="path-effect6"
       is_visible="true"
       lpeversion="1"
       nodesatellites_param="F,0,0,1,0,5.7256841,0,1 @ F,0,0,1,0,0,0,1 @ F,0,0,1,0,5.4389754,0,1 @ F,0,0,1,0,0,0,1 @ F,0,0,1,0,5.3359278,0,1 @ F,0,0,1,0,0,0,1 @ F,0,0,1,0,6.1863377,0,1 @ F,0,0,1,0,0,0,1 @ F,0,0,1,0,5.367782,0,1 @ F,0,0,1,0,0,0,1 @ F,0,0,1,0,3.2845681,0,1 @ F,0,0,1,0,0,0,1 @ F,0,0,1,0,6.084035,0,1 @ F,0,0,1,0,0,0,1 @ F,0,0,1,0,8.5848726,0,1 @ F,0,0,1,0,0,0,1"
       radius="0"
       unit="px"
       method="auto"
       mode="F"
       chamfer_steps="1"
       flexible="false"
       use_knot_distance="true"
       apply_no_radius="true"
       apply_with_radius="true"
       only_selected="false"
       hide_knots="false" /><inkscape:path-effect
       effect="fillet_chamfer"
       id="path-effect3"
       is_visible="true"
       lpeversion="1"
       nodesatellites_param="F,0,0,1,0,3.7721635,0,1 @ F,0,0,1,0,0,0,1 @ F,0,0,1,0,4.04519,0,1 @ F,0,0,1,0,0,0,1 @ F,0,0,1,0,3.3561917,0,1 @ F,0,0,1,0,0,0,1 @ F,0,0,1,0,5.6759502,0,1 @ F,0,0,1,0,0,0,1 @ F,0,0,1,0,4.0355009,0,1 @ F,0,0,1,0,0,0,1 @ F,0,0,1,0,4.9054819,0,1 @ F,0,0,1,0,0,0,1 @ F,0,0,1,0,7.6378024,0,1 @ F,0,0,1,0,0,0,1 @ F,0,0,1,0,5.2206519,0,1 @ F,0,0,1,0,0,0,1"
       radius="0"
       unit="px"
       method="auto"
       mode="F"
       chamfer_steps="1"
       flexible="false"
       use_knot_distance="true"
       apply_no_radius="true"
       apply_with_radius="true"
       only_selected="false"
       hide_knots="false" /><inkscape:path-effect
       effect="fillet_chamfer"
       id="path-effect2"
       is_visible="true"
       lpeversion="1"
       nodesatellites_param="F,0,0,1,0,0,0,1 @ F,0,0,1,0,0,0,1 @ F,0,0,1,0,0,0,1 @ F,0,0,1,0,0,0,1 @ F,0,0,1,0,0,0,1 @ F,0,0,1,0,0,0,1 @ F,0,0,1,0,0,0,1 @ F,0,0,1,0,0,0,1 @ F,0,0,1,0,0,0,1 @ F,0,0,1,0,0,0,1 @ F,0,0,1,0,0,0,1 @ F,0,0,1,0,0,0,1 @ F,0,0,1,0,0,0,1 @ F,0,0,1,0,0,0,1 @ F,0,0,1,0,0,0,1 @ F,0,0,1,0,0,0,1 @ F,0,0,1,0,0,0,1 @ F,0,0,1,0,0,0,1 @ F,0,0,1,0,0,0,1 @ F,0,0,1,0,0,0,1 @ F,0,0,1,0,0,0,1 @ F,0,0,1,0,0,0,1 @ F,0,0,1,0,0,0,1"
       radius="0"
       unit="px"
       method="auto"
       mode="F"
       chamfer_steps="1"
       flexible="false"
       use_knot_distance="true"
       apply_no_radius="true"
       apply_with_radius="true"
       only_selected="false"
       hide_knots="false" /><filter
       inkscape:collect="always"
       style="color-interpolation-filters:sRGB"
       id="filter2"
       x="-0.0018680046"
       y="-0.0019423582"
       width="1.003736"
       height="1.0038847"><feGaussianBlur
         inkscape:collect="always"
         stdDeviation="0.25537236"
         id="feGaussianBlur2" /></filter><inkscape:path-effect
       effect="fillet_chamfer"
       id="path-effect40-5"
       is_visible="true"
       lpeversion="1"
       nodesatellites_param="F,0,0,1,0,0,0,1 @ F,0,0,1,0,0,0,1 @ F,0,0,1,0,1.8217974,0,1 @ F,0,0,1,0,0,0,1"
       radius="0"
       unit="px"
       method="auto"
       mode="F"
       chamfer_steps="1"
       flexible="false"
       use_knot_distance="true"
       apply_no_radius="true"
       apply_with_radius="true"
       only_selected="false"
       hide_knots="false" /><inkscape:path-effect
       effect="fillet_chamfer"
       id="path-effect41-4"
       is_visible="true"
       lpeversion="1"
       nodesatellites_param="F,0,0,1,0,0,0,1 @ F,0,0,1,0,2.7805554,0,1 @ F,0,0,1,0,3.5115015,0,1 @ F,0,0,1,0,0,0,1 @ F,0,0,1,0,0,0,1 @ F,0,0,1,0,0,0,1"
       radius="0"
       unit="px"
       method="auto"
       mode="F"
       chamfer_steps="1"
       flexible="false"
       use_knot_distance="true"
       apply_no_radius="true"
       apply_with_radius="true"
       only_selected="false"
       hide_knots="false" /><inkscape:path-effect
       effect="fillet_chamfer"
       id="path-effect55-9"
       is_visible="true"
       lpeversion="1"
       nodesatellites_param="F,0,0,1,0,1.790072,0,1 @ F,0,0,1,0,3.6113923,0,1"
       radius="0"
       unit="px"
       method="auto"
       mode="F"
       chamfer_steps="1"
       flexible="false"
       use_knot_distance="true"
       apply_no_radius="true"
       apply_with_radius="true"
       only_selected="false"
       hide_knots="false" /><inkscape:path-effect
       effect="fillet_chamfer"
       id="path-effect55-0"
       is_visible="true"
       lpeversion="1"
       nodesatellites_param="F,0,0,1,0,1.790072,0,1 @ F,0,0,1,0,3.6113923,0,1"
       radius="0"
       unit="px"
       method="auto"
       mode="F"
       chamfer_steps="1"
       flexible="false"
       use_knot_distance="true"
       apply_no_radius="true"
       apply_with_radius="true"
       only_selected="false"
       hide_knots="false" /><inkscape:path-effect
       effect="fillet_chamfer"
       id="path-effect55-9-2"
       is_visible="true"
       lpeversion="1"
       nodesatellites_param="F,0,0,1,0,1.790072,0,1 @ F,0,0,1,0,3.6113923,0,1 @ F,0,0,1,0,0,0,1"
       radius="0"
       unit="px"
       method="auto"
       mode="F"
       chamfer_steps="1"
       flexible="false"
       use_knot_distance="true"
       apply_no_radius="true"
       apply_with_radius="true"
       only_selected="false"
       hide_knots="false" /><inkscape:path-effect
       effect="fillet_chamfer"
       id="path-effect55-9-2-0"
       is_visible="true"
       lpeversion="1"
       nodesatellites_param="F,0,0,1,0,1.790072,0,1 @ F,0,0,1,0,3.6113923,0,1"
       radius="0"
       unit="px"
       method="auto"
       mode="F"
       chamfer_steps="1"
       flexible="false"
       use_knot_distance="true"
       apply_no_radius="true"
       apply_with_radius="true"
       only_selected="false"
       hide_knots="false" /><inkscape:path-effect
       effect="fillet_chamfer"
       id="path-effect55-9-2-1"
       is_visible="true"
       lpeversion="1"
       nodesatellites_param="F,0,0,1,0,1.790072,0,1 @ F,0,0,1,0,3.6113923,0,1 @ F,0,0,1,0,0,0,1"
       radius="0"
       unit="px"
       method="auto"
       mode="F"
       chamfer_steps="1"
       flexible="false"
       use_knot_distance="true"
       apply_no_radius="true"
       apply_with_radius="true"
       only_selected="false"
       hide_knots="false" /><inkscape:path-effect
       effect="fillet_chamfer"
       id="path-effect55-9-2-1-4"
       is_visible="true"
       lpeversion="1"
       nodesatellites_param="F,0,0,1,0,1.790072,0,1 @ F,0,0,1,0,3.6113923,0,1 @ F,0,0,1,0,0,0,1"
       radius="0"
       unit="px"
       method="auto"
       mode="F"
       chamfer_steps="1"
       flexible="false"
       use_knot_distance="true"
       apply_no_radius="true"
       apply_with_radius="true"
       only_selected="false"
       hide_knots="false" /><inkscape:path-effect
       effect="fillet_chamfer"
       id="path-effect55-9-2-1-4-6"
       is_visible="true"
       lpeversion="1"
       nodesatellites_param="F,0,0,1,0,1.790072,0,1 @ F,0,0,1,0,3.6113923,0,1 @ F,0,0,1,0,0,0,1"
       radius="0"
       unit="px"
       method="auto"
       mode="F"
       chamfer_steps="1"
       flexible="false"
       use_knot_distance="true"
       apply_no_radius="true"
       apply_with_radius="true"
       only_selected="false"
       hide_knots="false" /></defs><g
     inkscape:label="body"
     inkscape:groupmode="layer"
     id="layer1"
     style="display:inline"><path
       style="display:inline;fill:#66685a;fill-opacity:1;stroke:#343530;stroke-width:5;stroke-dasharray:none;stroke-opacity:1"
       d="M 72.714723,21.973733 C 89.002058,41.29001 72.051722,54.664051 90.73481,80.905522 63.249798,78.586209 36.252409,82.432984 15.061916,96.463471 c -1.374662,0.910181 -1.442517,2.563067 -0.263259,3.715029 17.384927,16.98247 14.359358,38.70363 38.859935,62.57681 1.180734,1.1505 1.103781,2.85996 -0.176928,3.89825 -23.080685,18.71177 -31.098234,41.54133 -38.971504,61.20383 -0.820238,2.04844 0.288517,3.72228 2.493762,3.80725 31.974318,1.23201 46.114455,11.50798 72.243279,16.36838 2.168995,0.40347 3.932322,2.46394 3.956819,4.67073 0.254384,22.91595 3.104227,39.27744 15.81619,72.78156 0.69108,1.82144 2.11958,1.96789 3.27069,0.39646 16.92717,-23.10797 35.14641,-16.19322 62.34505,-45.32826 35.49427,32.35567 45.69233,24.2809 62.56294,47.30973 1.10076,1.50258 2.92854,1.60392 4.03617,0.10658 19.82793,-26.80431 14.58575,-70.78608 12.40269,-84.16135 33.75797,9.86168 46.81978,-17.97542 79.9987,-10.78312 2.17232,0.4709 3.32847,-0.72398 2.62928,-2.83438 -7.98851,-24.11211 -16.45481,-51.21638 -43.59392,-64.01089 32.64578,-24.25898 20.98645,-42.06692 40.72083,-62.80392 1.5601,-1.63936 1.48359,-4.015656 -0.36379,-5.323365 -21.4789,-15.204303 -46.04088,-17.048617 -71.42967,-15.31002 8.96638,-22.251546 5.76575,-36.375041 12.79938,-58.635239 0.67249,-2.128307 -0.48313,-4.212292 -2.67725,-4.62254 C 218.15874,9.4700619 196.55689,33.452654 170.55518,50.897086 154.79776,35.318245 112.72077,19.794309 73.698736,19.740763 c -1.63899,-0.0022 -2.040397,0.980131 -0.984013,2.23297 z"
       id="path2"
       sodipodi:nodetypes="ccccccccccccccccc"
       inkscape:label="first layer"
       inkscape:path-effect="#path-effect39"
       inkscape:original-d="M 70.731194,19.766887 C 90.32819,40.301706 71.348682,53.67659 90.73481,80.905522 62.175082,78.49552 34.141857,82.743244 12.603105,98.156278 c 20.413474,17.738352 15.317077,41.007612 43.22393,66.650392 -26.42329,20.21117 -34.138052,45.66448 -42.817659,66.75346 36.480692,0.51428 50.339788,12.46818 80.175103,17.14768 -0.02009,25.86387 2.54726,42.34295 17.096141,80.07204 17.50507,-26.61186 36.07696,-17.9347 64.35533,-48.22634 36.83836,33.58091 46.42842,23.61137 64.50994,50.06358 22.27358,-26.45514 16.74842,-72.983 14.49186,-86.80862 35.05069,10.23932 47.78981,-20.16269 83.90114,-9.79867 -8.41401,-25.00768 -16.28472,-54.3548 -44.86708,-67.82972 34.14339,-25.37185 19.82348,-43.6872 43.64225,-65.67721 C 314.07112,83.047419 288.29212,80.914872 261.59918,82.742775 271.06925,59.241251 266.96695,44.806611 275.68476,20.27623 219.20641,8.3001817 197.18898,33.028586 170.55518,50.897086 154.39746,34.922481 110.56594,19.005607 70.731194,19.766887 Z"
       transform="translate(-0.21142254,1.9112249)" /><path
       style="display:inline;fill:#87897c;fill-opacity:1;stroke:none;stroke-width:5;stroke-dasharray:none;stroke-opacity:1;filter:url(#filter2)"
       d="m 18.522182,24.876991 c 1.221852,17.05551 -4.050811,33.418283 30.553442,73.145926 -27.368705,-7.582882 -56.7123019,-13.760026 -92.307527,4.312503 -2.678208,1.35979 -2.906587,4.11515 -0.863639,6.31493 17.122122,18.43652 7.552638,40.40881 48.0322606,69.19175 -24.3869966,18.65361 -43.6704746,36.97905 -53.3213916,56.27218 -1.318096,2.63501 0.178607,4.86706 3.116036,5.09739 32.176347,2.52309 42.5088522,23.05495 79.167541,19.86145 -1.742816,28.74418 -2.195316,40.21476 8.557174,65.74978 1.325844,3.14861 4.204716,3.47489 6.842907,1.31173 15.659487,-12.83984 34.628823,-1.92064 63.126695,-39.60287 36.4773,42.43421 54.62314,38.29526 70.05633,47.41373 2.54985,1.50654 5.11834,0.76585 5.87684,-2.09982 11.10721,-41.9639 -0.025,-79.62865 -5.70548,-90.10187 55.87798,30.35769 72.365,-2.02257 94.1948,-2.88785 1.81057,-0.0718 2.80033,-1.27673 2.21933,-2.99519 -6.98303,-20.65425 -10.99388,-33.89257 -60.30476,-56.39066 56.48508,-35.21623 44.51163,-51.28267 55.39883,-69.47411 1.72357,-2.87992 1.3305,-6.56152 -1.58226,-8.23382 -23.84058,-13.687547 -54.82701,-10.146895 -81.23332,-7.191727 16.80368,-24.780715 12.76329,-44.829509 15.5336,-67.097447 0.58515,-4.70343 -2.43776,-8.574215 -7.16941,-8.291803 -55.63136,3.320401 -88.14927,48.378282 -86.97822,50.855316 -6.84067,-18.101315 -48.351337,-49.140854 -88.185119,-50.807226 -3.158733,-0.13214 -5.250504,2.495191 -5.024659,5.647708 z"
       id="path3"
       sodipodi:nodetypes="ccccccccccccccccc"
       inkscape:label="first layer highlight"
       transform="matrix(0.79584132,0,0,0.79584132,84.128122,27.856995)"
       inkscape:path-effect="#path-effect6"
       inkscape:original-d="m 17.822536,19.197154 c 3.561917,19.42122 -7.15391,34.732353 31.253088,78.825763 -28.588468,-7.920834 -59.331783,-14.307837 -97.10436,6.875383 22.607,19.2007 8.703916,42.18279 51.9654546,72.9438 -26.4232906,20.21117 -46.8552006,40.03708 -55.5348076,61.12606 36.480692,0.51428 45.8875738,23.4684 84.496993,20.10496 -1.866756,30.78832 -2.25315,41.75887 11.024736,71.42221 16.519309,-19.71153 36.298965,-2.7043 67.50204,-43.96357 39.99472,46.52605 57.95221,37.06399 74.45923,50.47501 13.49948,-44.00335 1.6809,-84.36205 -4.23154,-95.26297 58.63773,31.85702 73.89747,-5.37405 97.47373,-2.77408 -7.75737,-22.48117 -9.6239,-35.89303 -61.36436,-59.49962 61.53437,-38.36427 41.82394,-54.00206 58.93176,-74.41874 C 252.29902,87.553211 218.68496,91.398988 190.34599,94.570443 209.2494,66.693213 201.77407,44.804359 207.29109,19.007902 146.4401,17.854492 110.50192,67.434708 111.73196,70.036509 104.56272,51.065744 59.312919,17.883996 17.822536,19.197154 Z" /><path
       style="display:inline;fill:#474035;fill-opacity:1;stroke:#343530;stroke-width:5.34972;stroke-linecap:round;stroke-linejoin:round;stroke-dasharray:none;stroke-opacity:1"
       id="path54"
       sodipodi:type="arc"
       sodipodi:cx="175"
       sodipodi:cy="96.748634"
       sodipodi:rx="59.591854"
       sodipodi:ry="59.591854"
       sodipodi:start="0"
       sodipodi:end="6.2777945"
       sodipodi:arc-type="arc"
       d="m 234.59185,96.748634 a 59.591854,59.591854 0 0 1 -59.51154,59.591796 59.591854,59.591854 0 0 1 -59.67195,-59.431172 59.591854,59.591854 0 0 1 59.3507,-59.751991 59.591854,59.591854 0 0 1 59.83193,59.270121"
       sodipodi:open="true"
       inkscape:label="core body" /><path
       id="path55-8-8"
       style="display:inline;fill:#d0af7a;fill-opacity:1;stroke:none;stroke-width:5.15261;stroke-linecap:round;stroke-linejoin:round;stroke-dasharray:none;stroke-opacity:1"
       d="m 157.28949,52.63092 c -6.71133,0.08671 -15.12374,4.097433 -15.06987,13.93657 0.0113,2.052409 1.9706,3.192717 3.92686,2.562877 12.76688,-4.110451 14.69377,-5.021095 20.2935,-6.10879 1.00009,-0.194261 1.85887,-1.16498 1.78195,-2.18035 -0.40377,-5.329859 -3.60567,-7.254446 -8.1902,-8.012958 -0.85969,-0.142236 -1.78348,-0.209736 -2.74224,-0.197349 z m 35.42104,0 c -0.95877,-0.01239 -1.88309,0.05511 -2.74277,0.197349 -4.58454,0.758512 -7.78643,2.683099 -8.1902,8.012958 -0.0769,1.01537 0.78237,1.986089 1.78248,2.18035 5.59973,1.087695 7.52609,1.998339 20.29296,6.10879 1.95626,0.62984 3.91615,-0.510468 3.92738,-2.562877 0.0539,-9.839137 -8.35852,-13.849861 -15.06985,-13.93657 z"
       inkscape:label="eyes" /><path
       style="display:inline;fill:#66685a;fill-opacity:1;stroke:#343530;stroke-width:7.00642;stroke-dasharray:none;stroke-opacity:1"
       d="M 72.714723,21.973733 C 89.002058,41.29001 72.051722,54.664051 90.73481,80.905522 63.249798,78.586209 36.252409,82.432984 15.061916,96.463471 c -1.374662,0.910181 -1.442517,2.563067 -0.263259,3.715029 17.384927,16.98247 14.359358,38.70363 38.859935,62.57681 1.180734,1.1505 1.103781,2.85996 -0.176928,3.89825 -23.080685,18.71177 -31.098234,41.54133 -38.971504,61.20383 -0.820238,2.04844 0.288517,3.72228 2.493762,3.80725 31.974318,1.23201 46.114455,11.50798 72.243279,16.36838 2.168995,0.40347 3.932322,2.46394 3.956819,4.67073 0.254384,22.91595 3.104227,39.27744 15.81619,72.78156 0.69108,1.82144 2.11958,1.96789 3.27069,0.39646 16.92717,-23.10797 35.14641,-16.19322 62.34505,-45.32826 35.49427,32.35567 45.69233,24.2809 62.56294,47.30973 1.10076,1.50258 2.92854,1.60392 4.03617,0.10658 19.82793,-26.80431 14.58575,-70.78608 12.40269,-84.16135 33.75797,9.86168 46.81978,-17.97542 79.9987,-10.78312 2.17232,0.4709 3.32847,-0.72398 2.62928,-2.83438 -7.98851,-24.11211 -16.45481,-51.21638 -43.59392,-64.01089 32.64578,-24.25898 20.98645,-42.06692 40.72083,-62.80392 1.5601,-1.63936 1.48359,-4.015656 -0.36379,-5.323365 -21.4789,-15.204303 -46.04088,-17.048617 -71.42967,-15.31002 8.96638,-22.251546 5.76575,-36.375041 12.79938,-58.635239 0.67249,-2.128307 -0.48313,-4.212292 -2.67725,-4.62254 C 218.15874,9.4700619 196.55689,33.452654 170.55518,50.897086 154.79776,35.318245 112.72077,19.794309 73.698736,19.740763 c -1.63899,-0.0022 -2.040397,0.980131 -0.984013,2.23297 z"
       id="path43"
       sodipodi:nodetypes="ccccccccccccccccc"
       inkscape:label="second layer"
       inkscape:path-effect="#path-effect45"
       inkscape:original-d="M 70.731194,19.766887 C 90.32819,40.301706 71.348682,53.67659 90.73481,80.905522 62.175082,78.49552 34.141857,82.743244 12.603105,98.156278 c 20.413474,17.738352 15.317077,41.007612 43.22393,66.650392 -26.42329,20.21117 -34.138052,45.66448 -42.817659,66.75346 36.480692,0.51428 50.339788,12.46818 80.175103,17.14768 -0.02009,25.86387 2.54726,42.34295 17.096141,80.07204 17.50507,-26.61186 36.07696,-17.9347 64.35533,-48.22634 36.83836,33.58091 46.42842,23.61137 64.50994,50.06358 22.27358,-26.45514 16.74842,-72.983 14.49186,-86.80862 35.05069,10.23932 47.78981,-20.16269 83.90114,-9.79867 -8.41401,-25.00768 -16.28472,-54.3548 -44.86708,-67.82972 34.14339,-25.37185 19.82348,-43.6872 43.64225,-65.67721 C 314.07112,83.047419 288.29212,80.914872 261.59918,82.742775 271.06925,59.241251 266.96695,44.806611 275.68476,20.27623 219.20641,8.3001817 197.18898,33.028586 170.55518,50.897086 154.39746,34.922481 110.56594,19.005607 70.731194,19.766887 Z"
       transform="matrix(0.71346064,0.01559968,-0.01559968,0.71346064,52.626912,41.830935)" /><path
       style="display:inline;fill:#87897c;fill-opacity:1;stroke:none;stroke-width:5;stroke-dasharray:none;stroke-opacity:1;filter:url(#filter2)"
       d="m 18.522182,24.876991 c 1.221852,17.05551 -4.050811,33.418283 30.553442,73.145926 -27.368705,-7.582882 -56.7123019,-13.760026 -92.307527,4.312503 -2.678208,1.35979 -2.906587,4.11515 -0.863639,6.31493 17.122122,18.43652 7.552638,40.40881 48.0322606,69.19175 -24.3869966,18.65361 -43.6704746,36.97905 -53.3213916,56.27218 -1.318096,2.63501 0.178607,4.86706 3.116036,5.09739 32.176347,2.52309 42.5088522,23.05495 79.167541,19.86145 -1.742816,28.74418 -2.195316,40.21476 8.557174,65.74978 1.325844,3.14861 4.204716,3.47489 6.842907,1.31173 15.659487,-12.83984 34.628823,-1.92064 63.126695,-39.60287 36.4773,42.43421 54.62314,38.29526 70.05633,47.41373 2.54985,1.50654 5.11834,0.76585 5.87684,-2.09982 11.10721,-41.9639 -0.025,-79.62865 -5.70548,-90.10187 55.87798,30.35769 72.365,-2.02257 94.1948,-2.88785 1.81057,-0.0718 2.80033,-1.27673 2.21933,-2.99519 -6.98303,-20.65425 -10.99388,-33.89257 -60.30476,-56.39066 56.48508,-35.21623 44.51163,-51.28267 55.39883,-69.47411 1.72357,-2.87992 1.3305,-6.56152 -1.58226,-8.23382 -23.84058,-13.687547 -54.82701,-10.146895 -81.23332,-7.191727 16.80368,-24.780715 12.76329,-44.829509 15.5336,-67.097447 0.58515,-4.70343 -2.43776,-8.574215 -7.16941,-8.291803 -55.63136,3.320401 -88.14927,48.378282 -86.97822,50.855316 -6.84067,-18.101315 -48.351337,-49.140854 -88.185119,-50.807226 -3.158733,-0.13214 -5.250504,2.495191 -5.024659,5.647708 z"
       id="path45"
       sodipodi:nodetypes="ccccccccccccccccc"
       inkscape:label="second layer highlight"
       transform="matrix(0.53633128,0.00544271,-0.00544271,0.53633128,114.72288,67.456292)"
       inkscape:path-effect="#path-effect47"
       inkscape:original-d="m 17.822536,19.197154 c 3.561917,19.42122 -7.15391,34.732353 31.253088,78.825763 -28.588468,-7.920834 -59.331783,-14.307837 -97.10436,6.875383 22.607,19.2007 8.703916,42.18279 51.9654546,72.9438 -26.4232906,20.21117 -46.8552006,40.03708 -55.5348076,61.12606 36.480692,0.51428 45.8875738,23.4684 84.496993,20.10496 -1.866756,30.78832 -2.25315,41.75887 11.024736,71.42221 16.519309,-19.71153 36.298965,-2.7043 67.50204,-43.96357 39.99472,46.52605 57.95221,37.06399 74.45923,50.47501 13.49948,-44.00335 1.6809,-84.36205 -4.23154,-95.26297 58.63773,31.85702 73.89747,-5.37405 97.47373,-2.77408 -7.75737,-22.48117 -9.6239,-35.89303 -61.36436,-59.49962 61.53437,-38.36427 41.82394,-54.00206 58.93176,-74.41874 C 252.29902,87.553211 218.68496,91.398988 190.34599,94.570443 209.2494,66.693213 201.77407,44.804359 207.29109,19.007902 146.4401,17.854492 110.50192,67.434708 111.73196,70.036509 104.56272,51.065744 59.312919,17.883996 17.822536,19.197154 Z" /><path
       style="display:inline;fill:#66685a;fill-opacity:1;stroke:#343530;stroke-width:11.7139;stroke-dasharray:none;stroke-opacity:1"
       d="M 72.714723,21.973733 C 89.002058,41.29001 72.051722,54.664051 90.73481,80.905522 63.249798,78.586209 36.252409,82.432984 15.061916,96.463471 c -1.374662,0.910181 -1.442517,2.563067 -0.263259,3.715029 17.384927,16.98247 14.359358,38.70363 38.859935,62.57681 1.180734,1.1505 1.103781,2.85996 -0.176928,3.89825 -23.080685,18.71177 -31.098234,41.54133 -38.971504,61.20383 -0.820238,2.04844 0.288517,3.72228 2.493762,3.80725 31.974318,1.23201 46.114455,11.50798 72.243279,16.36838 2.168995,0.40347 3.932322,2.46394 3.956819,4.67073 0.254384,22.91595 3.104227,39.27744 15.81619,72.78156 0.69108,1.82144 2.11958,1.96789 3.27069,0.39646 16.92717,-23.10797 35.14641,-16.19322 62.34505,-45.32826 35.49427,32.35567 45.69233,24.2809 62.56294,47.30973 1.10076,1.50258 2.92854,1.60392 4.03617,0.10658 19.82793,-26.80431 14.58575,-70.78608 12.40269,-84.16135 33.75797,9.86168 46.81978,-17.97542 79.9987,-10.78312 2.17232,0.4709 3.32847,-0.72398 2.62928,-2.83438 -7.98851,-24.11211 -16.45481,-51.21638 -43.59392,-64.01089 32.64578,-24.25898 20.98645,-42.06692 40.72083,-62.80392 1.5601,-1.63936 1.48359,-4.015656 -0.36379,-5.323365 -21.4789,-15.204303 -46.04088,-17.048617 -71.42967,-15.31002 8.96638,-22.251546 5.76575,-36.375041 12.79938,-58.635239 0.67249,-2.128307 -0.48313,-4.212292 -2.67725,-4.62254 C 218.15874,9.4700619 196.55689,33.452654 170.55518,50.897086 154.79776,35.318245 112.72077,19.794309 73.698736,19.740763 c -1.63899,-0.0022 -2.040397,0.980131 -0.984013,2.23297 z"
       id="path48"
       sodipodi:nodetypes="ccccccccccccccccc"
       inkscape:label="third layer"
       inkscape:path-effect="#path-effect49"
       inkscape:original-d="M 70.731194,19.766887 C 90.32819,40.301706 71.348682,53.67659 90.73481,80.905522 62.175082,78.49552 34.141857,82.743244 12.603105,98.156278 c 20.413474,17.738352 15.317077,41.007612 43.22393,66.650392 -26.42329,20.21117 -34.138052,45.66448 -42.817659,66.75346 36.480692,0.51428 50.339788,12.46818 80.175103,17.14768 -0.02009,25.86387 2.54726,42.34295 17.096141,80.07204 17.50507,-26.61186 36.07696,-17.9347 64.35533,-48.22634 36.83836,33.58091 46.42842,23.61137 64.50994,50.06358 22.27358,-26.45514 16.74842,-72.983 14.49186,-86.80862 35.05069,10.23932 47.78981,-20.16269 83.90114,-9.79867 -8.41401,-25.00768 -16.28472,-54.3548 -44.86708,-67.82972 34.14339,-25.37185 19.82348,-43.6872 43.64225,-65.67721 C 314.07112,83.047419 288.29212,80.914872 261.59918,82.742775 271.06925,59.241251 266.96695,44.806611 275.68476,20.27623 219.20641,8.3001817 197.18898,33.028586 170.55518,50.897086 154.39746,34.922481 110.56594,19.005607 70.731194,19.766887 Z"
       transform="matrix(0.42639883,0.01946015,-0.01946015,0.42639883,103.66274,83.225109)" /><path
       style="display:inline;fill:#87897c;fill-opacity:1;stroke:none;stroke-width:5;stroke-dasharray:none;stroke-opacity:1;filter:url(#filter2)"
       d="m 18.522182,24.876991 c 1.221852,17.05551 -4.050811,33.418283 30.553442,73.145926 -27.368705,-7.582882 -56.7123019,-13.760026 -92.307527,4.312503 -2.678208,1.35979 -2.906587,4.11515 -0.863639,6.31493 17.122122,18.43652 7.552638,40.40881 48.0322606,69.19175 -24.3869966,18.65361 -43.6704746,36.97905 -53.3213916,56.27218 -1.318096,2.63501 0.178607,4.86706 3.116036,5.09739 32.176347,2.52309 42.5088522,23.05495 79.167541,19.86145 -1.742816,28.74418 -2.195316,40.21476 8.557174,65.74978 1.325844,3.14861 4.204716,3.47489 6.842907,1.31173 15.659487,-12.83984 34.628823,-1.92064 63.126695,-39.60287 36.4773,42.43421 54.62314,38.29526 70.05633,47.41373 2.54985,1.50654 5.11834,0.76585 5.87684,-2.09982 11.10721,-41.9639 -0.025,-79.62865 -5.70548,-90.10187 55.87798,30.35769 72.365,-2.02257 94.1948,-2.88785 1.81057,-0.0718 2.80033,-1.27673 2.21933,-2.99519 -6.98303,-20.65425 -10.99388,-33.89257 -60.30476,-56.39066 56.48508,-35.21623 44.51163,-51.28267 55.39883,-69.47411 1.72357,-2.87992 1.3305,-6.56152 -1.58226,-8.23382 -23.84058,-13.687547 -54.82701,-10.146895 -81.23332,-7.191727 16.80368,-24.780715 12.76329,-44.829509 15.5336,-67.097447 0.58515,-4.70343 -2.43776,-8.574215 -7.16941,-8.291803 -55.63136,3.320401 -88.14927,48.378282 -86.97822,50.855316 -6.84067,-18.101315 -48.351337,-49.140854 -88.185119,-50.807226 -3.158733,-0.13214 -5.250504,2.495191 -5.024659,5.647708 z"
       id="path51"
       sodipodi:nodetypes="ccccccccccccccccc"
       inkscape:label="third layer highlight"
       transform="matrix(0.30934309,0.01223751,-0.01223751,0.30934309,141.84342,100.51396)"
       inkscape:path-effect="#path-effect53"
       inkscape:original-d="m 17.822536,19.197154 c 3.561917,19.42122 -7.15391,34.732353 31.253088,78.825763 -28.588468,-7.920834 -59.331783,-14.307837 -97.10436,6.875383 22.607,19.2007 8.703916,42.18279 51.9654546,72.9438 -26.4232906,20.21117 -46.8552006,40.03708 -55.5348076,61.12606 36.480692,0.51428 45.8875738,23.4684 84.496993,20.10496 -1.866756,30.78832 -2.25315,41.75887 11.024736,71.42221 16.519309,-19.71153 36.298965,-2.7043 67.50204,-43.96357 39.99472,46.52605 57.95221,37.06399 74.45923,50.47501 13.49948,-44.00335 1.6809,-84.36205 -4.23154,-95.26297 58.63773,31.85702 73.89747,-5.37405 97.47373,-2.77408 -7.75737,-22.48117 -9.6239,-35.89303 -61.36436,-59.49962 61.53437,-38.36427 41.82394,-54.00206 58.93176,-74.41874 C 252.29902,87.553211 218.68496,91.398988 190.34599,94.570443 209.2494,66.693213 201.77407,44.804359 207.29109,19.007902 146.4401,17.854492 110.50192,67.434708 111.73196,70.036509 104.56272,51.065744 59.312919,17.883996 17.822536,19.197154 Z" /></g><g
     inkscape:groupmode="layer"
     id="layer2"
     inkscape:label="details"><path
       id="path36"
       style="display:inline;fill:#343530;fill-opacity:1;stroke:#343530;stroke-width:0.5;stroke-linecap:round;stroke-linejoin:round;stroke-dasharray:none;stroke-opacity:1"
       d="m 249.3633,16.254982 c -0.50426,-0.0069 -0.99312,0.01062 -1.45933,0.05374 -1.83012,0.169269 -2.73719,0.256086 -3.43753,0.390157 -1.16719,0.223456 -1.75952,0.578144 -5.09012,1.667599 -4.53591,1.483728 -9.82752,5.870536 -12.93307,10.634493 -1.24859,1.915392 -0.21662,2.48845 1.81385,1.096574 6.76681,-4.638667 14.50591,-9.692709 22.9862,-8.156608 -4.04388,1.926916 -8.34898,5.750531 -11.02776,9.859863 -1.24861,1.915398 -0.2166,2.488952 1.81384,1.09709 7.87287,-5.396852 17.06042,-11.364961 27.20196,-6.850744 1.69257,0.753402 5.20912,1.705131 6.03581,0.234094 0.08,-0.14244 0.14305,-0.295517 0.18966,-0.45837 1.10552,-3.86061 -8.05391,-7.243985 -13.78056,-6.714319 -0.86247,0.07978 -1.4734,0.139174 -2.00091,0.195854 -2.50049,-1.772369 -6.78214,-3.001057 -10.31204,-3.049426 z M 79.48738,19.273919 c -3.659047,0.0066 -6.81819,1.006967 -6.976845,3.260266 -0.0119,0.168972 -0.0048,0.334371 0.0217,0.495577 0.273513,1.665101 3.903397,1.974213 5.751599,1.845365 11.073963,-0.772017 17.664845,7.979004 23.216146,15.743742 1.43171,2.002552 2.59792,1.816689 2.07998,-0.410311 -1.11118,-4.777834 -3.848155,-9.843276 -6.988717,-13.037447 8.494057,1.458005 14.036747,8.854876 18.808147,15.528768 1.43172,2.002563 2.59739,1.816681 2.07946,-0.41031 -1.28821,-5.538969 -4.75968,-11.471134 -8.51421,-14.417209 -2.75687,-2.163225 -3.19184,-2.699531 -4.21215,-3.308842 -0.61218,-0.365586 -1.4347,-0.757343 -3.09644,-1.542541 -3.386569,-1.600196 -8.707833,-2.137934 -12.086089,-1.212329 -0.476279,-0.233738 -1.03019,-0.498635 -1.813319,-0.868681 -2.274925,-1.074931 -5.423347,-1.671176 -8.269264,-1.666048 z M 39.645879,85.459027 c -0.712435,0.02939 -1.615567,0.152033 -3.435967,0.405142 -3.709899,0.515831 -8.456441,2.980214 -10.776091,5.604826 -0.526515,0.06528 -1.135244,0.146849 -1.993153,0.266134 -5.696284,0.79202 -13.8408991,6.177492 -11.882996,9.683651 0.08258,0.14789 0.178943,0.2827 0.289391,0.40307 1.140767,1.24339 4.347083,-0.4861 5.822896,-1.6061 8.842743,-6.710792 19.150147,-2.998615 28.047381,0.45785 2.294637,0.89144 3.168685,0.0976 1.515669,-1.482079 -3.546388,-3.389043 -8.610801,-6.128648 -12.987833,-7.081221 7.905461,-3.432012 16.594118,-0.278539 24.241407,2.692342 2.294637,0.891438 3.168174,0.09759 1.515159,-1.48208 -4.111333,-3.928926 -10.264877,-6.991331 -15.019756,-7.400065 -3.491374,-0.300123 -4.148703,-0.510456 -5.336107,-0.46147 z m 264.045891,0.454752 c -4.65932,0.08011 -10.6421,2.239577 -14.94431,5.388301 -1.84505,1.350417 -1.08239,2.251396 1.30897,1.667082 7.96964,-1.94727 16.99576,-3.939493 24.38559,0.495061 -4.46394,0.373092 -9.84281,2.428119 -13.80122,5.325256 -1.84506,1.350441 -1.08187,2.251391 1.30948,1.667081 9.27229,-2.265521 19.97591,-4.600073 27.86703,3.20756 1.31699,1.30305 4.27017,3.43617 5.56348,2.35231 0.12515,-0.10497 0.23834,-0.22586 0.33952,-0.36174 2.39882,-3.22058 -4.97301,-9.623504 -10.51719,-11.152289 -0.83499,-0.230235 -1.42799,-0.390527 -1.94148,-0.523998 -1.95721,-2.904937 -6.34155,-5.967724 -9.95237,-6.9634 -1.77179,-0.48857 -2.65129,-0.727908 -3.3538,-0.850076 -1.17084,-0.203544 -1.84988,-0.08108 -5.35058,-0.239262 -0.29797,-0.01346 -0.6025,-0.01723 -0.91312,-0.01189 z M 42.687558,197.89557 c -5.135056,0.0345 -10.697136,1.49623 -14.14436,3.853 -2.892829,1.97774 -3.534778,2.23094 -4.422988,3.02049 -0.532929,0.47373 -1.154433,1.14046 -2.403474,2.48873 -2.545466,2.74773 -4.660179,7.66038 -4.79454,11.16056 -0.366276,0.38384 -0.785944,0.83222 -1.374593,1.46761 -3.908385,4.21895 -6.8041848,13.54381 -3.069063,15.01872 0.157556,0.0622 0.317349,0.10541 0.479041,0.12868 1.670201,0.24045 3.05774,-3.12817 3.491269,-4.92942 2.597574,-10.79266 12.926536,-14.44375 22.002268,-17.39996 2.340672,-0.76242 2.514746,-1.92982 0.235135,-2.10634 -4.890706,-0.37872 -10.545144,0.70609 -14.536592,2.73936 3.947482,-7.6611 12.669882,-10.71978 20.47059,-13.26068 2.340685,-0.76242 2.514223,-1.92981 0.234612,-2.10633 -0.70873,-0.0549 -1.433731,-0.0794 -2.167305,-0.0744 z m 265.283542,0.005 c -2.28637,-0.0111 -2.20926,1.16683 0.061,2.11874 7.56592,3.17237 16.00848,6.93657 19.31406,14.89572 -3.81117,-2.3539 -9.35792,-3.89947 -14.26321,-3.92327 -2.28642,-0.0111 -2.2087,1.16735 0.0615,2.11925 8.80258,3.69092 18.79726,8.17673 20.50055,19.14612 0.28427,1.83074 1.39045,5.30177 3.07475,5.19916 0.16303,-0.01 0.32623,-0.0398 0.48834,-0.0889 3.84354,-1.16348 1.7223,-10.69435 -1.82676,-15.21975 -0.53452,-0.68155 -0.91599,-1.16303 -1.24953,-1.57562 0.15328,-3.4994 -1.55087,-8.56875 -3.8623,-11.51609 -1.13421,-1.4462 -1.69881,-2.16149 -2.19108,-2.67736 h -5.2e-4 c -0.82043,-0.85975 -1.43916,-1.16502 -4.15995,-3.37343 -3.7054,-3.00765 -10.26009,-5.077 -15.94683,-5.1046 z m -194.76692,85.13279 c -0.31785,-6.3e-4 -0.77658,0.18942 -1.35548,0.60823 -4.60744,3.33329 -8.73154,8.83171 -9.99319,13.43432 -0.92636,3.37961 -1.25201,3.9884 -1.41852,5.16506 l -5.1e-4,-5.1e-4 c -0.0999,0.70602 -0.14254,1.61633 -0.22272,3.4525 -0.16335,3.74202 1.40261,8.85627 3.56463,11.61221 -0.031,0.52964 -0.0609,1.14281 -0.0987,2.00815 -0.25085,5.74562 3.57345,14.7297 7.37576,13.43794 0.1602,-0.0551 0.31053,-0.12499 0.44908,-0.21136 1.42915,-0.89718 0.30765,-4.36325 -0.5271,-6.0172 -5.00157,-9.91027 0.51259,-19.37696 5.52058,-27.50272 1.29159,-2.09565 0.6691,-3.09874 -1.18338,-1.75855 -3.97433,2.87525 -7.5844,7.36064 -9.31261,11.49336 -1.94631,-8.39564 2.72612,-16.37097 7.03058,-23.35517 0.88796,-1.44077 0.87081,-2.36487 0.17157,-2.36626 z m 131.04988,1.01131 c -0.5386,0.0656 -0.62041,0.94647 -0.0326,2.36833 3.13456,7.58165 6.47402,16.20045 3.21272,24.17785 -1.04643,-4.35557 -3.89424,-9.35957 -7.35872,-12.83229 -1.61482,-1.61867 -2.39007,-0.72775 -1.44952,1.54719 3.64689,8.82091 7.58009,19.0459 1.06091,28.03084 -1.08802,1.49954 -2.74817,4.7422 -1.48053,5.85599 0.12277,0.10775 0.25912,0.2013 0.40877,0.2806 3.54742,1.88207 8.75688,-6.37614 9.42629,-12.08816 0.10084,-0.86025 0.16924,-1.47053 0.22325,-1.99832 2.57414,-2.37553 4.9358,-7.17378 5.37176,-10.89392 0.21393,-1.82542 0.31694,-2.73134 0.33125,-3.44423 0.0234,-1.18816 -0.20112,-1.84062 -0.5762,-5.32473 -0.51085,-4.74501 -3.70459,-10.83155 -7.72097,-14.85749 -0.60556,-0.607 -1.09329,-0.86104 -1.41645,-0.82166 z"
       inkscape:label="first layer creases" /><path
       id="path47"
       style="display:inline;fill:#343530;fill-opacity:1;stroke:#343530;stroke-width:0.5;stroke-linecap:round;stroke-linejoin:round;stroke-dasharray:none;stroke-opacity:1"
       d="m 228.17471,53.726423 c -0.35777,-0.0056 -0.70468,0.0045 -1.03557,0.03399 -1.29899,0.115015 -1.94281,0.173987 -2.4401,0.26715 -0.82875,0.155256 -1.25001,0.405239 -3.61619,1.168855 -3.22249,1.039957 -6.98927,4.137563 -9.20612,7.508914 -0.89128,1.355492 -0.16074,1.764989 1.28385,0.783145 4.81421,-3.27215 10.31943,-6.836282 16.332,-5.722527 -2.87461,1.355788 -5.9399,4.05658 -7.85211,6.964668 -0.8913,1.355491 -0.16066,1.765334 1.28387,0.783502 5.6011,-3.806989 12.1366,-8.01557 19.31944,-4.784133 1.19881,0.539305 3.69116,1.224473 4.28183,0.183084 0.0572,-0.100818 0.10248,-0.209271 0.13588,-0.324686 0.79527,-2.736043 -5.69396,-5.162377 -9.75861,-4.802684 -0.61215,0.05423 -1.04579,0.09461 -1.42022,0.133375 -1.76915,-1.264559 -4.80358,-2.148385 -7.30793,-2.192643 z m -120.53788,1.663868 c -2.59615,-0.0061 -4.84044,0.695269 -4.95936,2.29356 -0.008,0.11985 -0.004,0.237239 0.014,0.351682 0.18938,1.182176 2.76398,1.411718 4.07566,1.325495 7.85933,-0.516581 12.51099,5.710944 16.42787,11.235757 1.01018,1.424859 1.83815,1.296273 1.47694,-0.285269 -0.77497,-3.393071 -2.70262,-6.994769 -4.9219,-9.269926 6.02255,1.05838 9.93435,6.322171 13.30094,11.070818 1.01018,1.424873 1.83777,1.296271 1.47656,-0.285272 -0.89842,-3.9336 -3.34477,-8.152326 -6.00038,-10.253171 -1.94993,-1.542604 -2.25705,-1.924335 -2.97928,-2.359519 -0.43332,-0.261123 -1.01582,-0.541385 -2.19262,-1.103179 -2.39831,-1.144887 -6.1723,-1.541398 -8.57184,-0.894175 -0.33726,-0.167175 -0.72952,-0.356691 -1.28412,-0.621448 -1.61106,-0.769073 -3.84323,-1.200984 -5.86247,-1.205354 z M 79.182456,102.2374 c -0.505567,0.0188 -1.146689,0.10336 -2.439002,0.2778 -2.633676,0.35554 -6.008364,2.0907 -7.661571,3.94636 -0.37375,0.0449 -0.805885,0.101 -1.414918,0.18322 -4.043822,0.54592 -9.837697,4.34406 -8.458407,6.83725 0.05817,0.10517 0.126164,0.20107 0.204193,0.28679 0.805892,0.88541 3.085686,-0.33265 4.135947,-1.12315 6.292935,-4.73653 13.595746,-2.07368 19.898717,0.40378 1.625578,0.63894 2.247962,0.0782 1.079576,-1.04728 -2.506684,-2.41458 -6.092247,-4.3726 -9.19513,-5.06079 5.618689,-2.41282 11.774536,-0.15092 17.192052,1.97849 1.625564,0.63894 2.247592,0.0781 1.079187,-1.0473 -2.905978,-2.79919 -7.263393,-4.98933 -10.635896,-5.29272 -2.476338,-0.22276 -2.942126,-0.37386 -3.784749,-0.34243 z m 187.343014,1.06583 c -3.30609,0.0437 -7.55704,1.55905 -10.61839,3.781 -1.31286,0.95296 -0.77428,1.59435 0.92406,1.18651 5.66004,-1.3592 12.06981,-2.7473 17.30054,0.41989 -3.16829,0.25215 -6.99047,1.69507 -9.80717,3.7395 -1.31292,0.95296 -0.77393,1.59434 0.92442,1.1865 6.58518,-1.58133 14.18611,-3.2076 19.76301,2.35424 0.93074,0.92825 3.02009,2.45002 3.94075,1.68466 0.0891,-0.074 0.16972,-0.15959 0.24191,-0.25571 1.71106,-2.2783 -3.50134,-6.84201 -7.43071,-7.94231 -0.59178,-0.16571 -1.01208,-0.2811 -1.37602,-0.37724 -1.3805,-2.06662 -4.48263,-4.25204 -7.04177,-4.96865 -1.25572,-0.35163 -1.87906,-0.52392 -2.37718,-0.61259 -0.83013,-0.1477 -1.31228,-0.0628 -3.79561,-0.18482 -0.21141,-0.01 -0.42745,-0.0145 -0.64785,-0.0106 z M 81.02412,182.02129 c -3.643493,0.0101 -7.593982,1.0315 -10.046474,2.69395 -2.058067,1.39508 -2.514249,1.57293 -3.146669,2.13063 -0.379457,0.33463 -0.822293,0.80592 -1.7123,1.75902 -1.813782,1.94241 -3.328028,5.42204 -3.433208,7.90508 -0.260961,0.27132 -0.559981,0.58828 -0.979426,1.03744 -2.784928,2.98238 -4.865786,9.59037 -2.219813,10.64734 0.111609,0.0447 0.224865,0.0756 0.339522,0.0927 1.184356,0.1753 2.178315,-2.21086 2.49098,-3.48767 1.873392,-7.65023 9.212223,-10.21164 15.659888,-12.28357 1.662891,-0.53437 1.789685,-1.36218 0.172764,-1.49384 -3.468955,-0.28248 -7.48392,0.47131 -10.321623,1.90271 2.822348,-5.42455 9.019622,-7.57017 14.561492,-9.35103 1.662892,-0.53436 1.78931,-1.36214 0.172381,-1.49381 -0.502734,-0.0404 -1.017006,-0.0606 -1.53752,-0.0591 z m 188.22241,0.74965 c -1.62219,-0.0144 -1.57082,0.82166 0.0373,1.50344 5.3592,2.27213 11.33872,4.96666 13.66169,10.62308 -2.69749,-1.68084 -6.62863,-2.79306 -10.10891,-2.82375 -1.62222,-0.0145 -1.5704,0.82203 0.0378,1.50379 6.23519,2.64356 13.31393,5.85442 14.49157,13.64216 0.19654,1.29972 0.97161,3.76559 2.16694,3.69753 0.11578,-0.007 0.2316,-0.0273 0.34675,-0.0616 2.7303,-0.81469 1.25211,-7.58295 -1.25328,-10.80377 -0.37735,-0.48509 -0.64665,-0.82777 -0.88212,-1.12146 0.11863,-2.48244 -1.07626,-6.084 -2.70796,-8.1817 -0.80065,-1.02928 -1.19924,-1.53837 -1.54706,-1.90581 l -3.7e-4,1e-5 c -0.57967,-0.61229 -1.01783,-0.83064 -2.94205,-2.40519 -2.62057,-2.1444 -7.26539,-3.63108 -11.30013,-3.66667 z m -138.4295,59.85474 c -0.22553,-0.001 -0.55154,0.13225 -0.96344,0.42774 -3.27843,2.35204 -6.22003,6.24164 -7.12814,9.50369 -0.66676,2.39529 -0.89954,2.82632 -1.02099,3.6607 l -3.6e-4,-3.5e-4 c -0.0729,0.50065 -0.10571,1.14639 -0.16798,2.44894 -0.12643,2.65456 0.97024,6.2876 2.49649,8.24907 -0.0235,0.3757 -0.0463,0.81068 -0.0758,1.42453 -0.19416,4.0759 2.49395,10.46099 5.19537,9.55517 0.11376,-0.0386 0.22068,-0.0877 0.31921,-0.14869 1.01654,-0.63255 0.23059,-3.09493 -0.35703,-4.27079 -3.52079,-7.04554 0.41824,-13.74677 3.99433,-19.49802 0.92231,-1.48326 0.48347,-2.19673 -0.83467,-1.25105 -2.82795,2.02885 -5.40196,5.20114 -6.63976,8.12848 -1.35731,-5.96229 1.98029,-11.60775 5.05401,-16.551 0.63407,-1.01978 0.62451,-1.67549 0.12841,-1.67844 z m 92.9789,1.08638 c -0.38235,0.0451 -0.44286,0.66979 -0.0298,1.68027 2.20267,5.38811 4.54782,11.51267 2.21144,17.16357 -0.73022,-3.09327 -2.73669,-6.6517 -5.185,-9.1254 -1.14118,-1.153 -1.69373,-0.52308 -1.03281,1.09368 2.56268,6.26881 5.32457,13.53467 0.67384,19.89126 -0.7762,1.06089 -1.96323,3.35691 -1.06696,4.15073 0.0867,0.0769 0.1833,0.14357 0.28925,0.20024 2.51165,1.34535 6.23108,-4.49931 6.7221,-8.55019 0.0739,-0.61006 0.12419,-1.04288 0.16407,-1.4172 1.83307,-1.67821 3.5222,-5.076 3.84199,-7.71426 0.15695,-1.29456 0.23257,-1.93703 0.24474,-2.44279 0.0198,-0.84297 -0.13753,-1.30652 -0.39382,-3.7796 -0.34911,-3.3681 -2.59797,-7.69557 -5.43635,-10.56333 -0.42792,-0.43238 -0.77327,-0.614 -1.00265,-0.58697 z"
       inkscape:label="second layer creases" /><path
       id="path53"
       style="display:inline;fill:#343530;fill-opacity:1;stroke:#343530;stroke-width:0.5;stroke-linecap:round;stroke-linejoin:round;stroke-dasharray:none;stroke-opacity:1"
       d="m 208.79016,94.937209 c -0.2116,-0.009 -0.41707,-0.008 -0.61336,0.004 -0.77051,0.0479 -1.15243,0.0728 -1.44817,0.12016 -0.49285,0.0791 -0.74605,0.22038 -2.15817,0.6355 -1.92319,0.56533 -4.20046,2.3399 -5.56478,4.30055 -0.54851,0.788301 -0.12266,1.041981 0.74759,0.483421 2.89985,-1.861581 6.21316,-3.885201 9.75399,-3.132631 -1.72223,0.75764 -3.5782,2.30827 -4.75503,3.999531 -0.54852,0.78831 -0.12246,1.0422 0.7476,0.48362 3.37384,-2.165861 7.30687,-4.554841 11.50734,-2.530871 0.70105,0.33778 2.16532,0.782001 2.53106,0.1749 0.0354,-0.0588 0.0639,-0.12225 0.0854,-0.19004 0.51316,-1.60679 -3.28935,-3.14354 -5.70034,-2.99385 -0.3631,0.0226 -0.62036,0.0398 -0.84254,0.0568 -1.02731,-0.77584 -2.80929,-1.34606 -4.29063,-1.41117 z m -71.35836,-0.88908 c -1.53628,-0.0439 -2.87534,0.33622 -2.97055,1.2802 -0.007,0.0708 -0.006,0.14031 0.003,0.20834 0.0936,0.70254 1.61374,0.87841 2.39131,0.84777 4.65907,-0.18354 7.31504,3.57413 9.54711,6.904511 0.57566,0.85892 1.06764,0.79569 0.87848,-0.14581 -0.40587,-2.02002 -1.49064,-4.181421 -2.76863,-5.562321 3.54761,0.71995 5.78074,3.895791 7.69921,6.758311 0.57566,0.85892 1.06742,0.79568 0.87825,-0.1458 -0.47053,-2.34185 -1.85265,-4.876441 -3.39156,-6.160961 -1.12994,-0.94321 -1.30578,-1.17389 -1.7264,-1.44264 -0.25238,-0.16128 -0.59273,-0.33619 -1.28042,-0.68693 -1.40148,-0.71481 -3.62871,-1.00813 -5.05877,-0.66242 -0.19703,-0.10413 -0.42619,-0.22242 -0.75029,-0.38771 -0.94144,-0.48018 -2.25569,-0.77048 -3.45057,-0.80445 z m -17.56711,27.281101 c -0.29948,0.003 -0.68016,0.0439 -1.4477,0.12638 -1.56407,0.16945 -3.58815,1.14387 -4.59533,2.21631 -0.22191,0.0207 -0.47849,0.0473 -0.84018,0.0864 -2.40155,0.26025 -5.88933,2.41783 -5.11185,3.91471 0.0327,0.0632 0.0715,0.12094 0.11642,0.17288 0.46317,0.53651 1.83124,-0.14891 2.46506,-0.60037 3.79768,-2.70518 8.07799,-1.01582 11.76947,0.54828 0.95207,0.40338 1.32911,0.0812 0.65518,-0.60299 -1.44589,-1.46787 -3.53734,-2.68234 -5.36288,-3.13784 3.36256,-1.34052 6.97034,0.0937 10.14324,1.43808 0.95207,0.40339 1.32887,0.0812 0.65491,-0.60299 -1.67619,-1.7017 -4.22079,-3.06552 -6.21187,-3.29749 -1.462,-0.17035 -1.73528,-0.26704 -2.23443,-0.26153 z m 110.85022,3.54294 c -1.95717,-0.0255 -4.49639,0.80515 -6.34258,2.07248 -0.79175,0.54354 -0.48299,0.93148 0.52839,0.71653 3.37066,-0.71639 7.18545,-1.4382 10.23169,0.51741 -1.87887,0.0999 -4.16322,0.89444 -5.86188,2.06052 -0.79179,0.54355 -0.48277,0.93148 0.52863,0.71653 3.92159,-0.83344 8.44498,-1.67768 11.65886,1.70041 0.53636,0.5638 1.74914,1.49683 2.30586,1.05823 0.0539,-0.0423 0.10289,-0.0919 0.14714,-0.14757 1.048,-1.32166 -1.96567,-4.10344 -4.27391,-4.81565 -0.34763,-0.10731 -0.59456,-0.1821 -0.80844,-0.24463 -0.78484,-1.24446 -2.58666,-2.58598 -4.08998,-3.04986 -0.73765,-0.22758 -1.10386,-0.33923 -1.39727,-0.39944 -0.48897,-0.10029 -0.7756,-0.0575 -2.24329,-0.16844 -0.12495,-0.009 -0.2527,-0.0157 -0.38323,-0.0164 z m -111.00056,43.7006 c -2.15634,-0.0507 -4.51005,0.49237 -5.98723,1.43805 -1.23961,0.79362 -1.51236,0.89176 -1.89527,1.21198 -0.22977,0.19214 -0.49916,0.46414 -1.04066,1.01434 -1.10357,1.12129 -2.05376,3.15695 -2.15461,4.62475 -0.15864,0.1565 -0.34054,0.3394 -0.59573,0.5987 -1.69446,1.72165 -3.02859,5.59981 -1.47917,6.26644 0.0653,0.0283 0.1319,0.0483 0.1995,0.0601 0.69814,0.12217 1.32346,-1.2745 1.52833,-2.02525 1.22756,-4.49815 5.61039,-5.89988 9.45825,-7.02578 0.99238,-0.2904 1.08026,-0.77832 0.12549,-0.88134 -2.04848,-0.22106 -4.4362,0.16257 -6.13775,0.96553 1.75454,-3.16629 5.45535,-4.3397 8.76263,-5.30744 0.99237,-0.29038 1.08004,-0.77829 0.12517,-0.88134 -0.29685,-0.0323 -0.60085,-0.0526 -0.90897,-0.0589 z m 111.37555,3.3695 c -0.95979,-0.0338 -0.94237,0.46183 -0.001,0.89028 3.13617,1.42792 6.63287,3.11545 7.91964,6.49896 -1.57021,-1.03662 -3.87932,-1.75593 -5.9384,-1.8282 -0.95978,-0.0338 -0.94213,0.46205 -9.1e-4,0.89051 3.64881,1.66134 7.78797,3.67152 8.36382,8.29849 0.096,0.7722 0.51645,2.24352 1.22489,2.22184 0.0685,-0.003 0.13752,-0.0121 0.20616,-0.031 1.62842,-0.43968 0.85884,-4.46801 -0.57372,-6.41298 -0.21577,-0.29294 -0.36982,-0.49992 -0.50459,-0.67738 0.10876,-1.46723 -0.54235,-3.61716 -1.47536,-4.8839 -0.45782,-0.62156 -0.68578,-0.92904 -0.88591,-1.15188 l -2.2e-4,-2e-5 c -0.33352,-0.37133 -0.58942,-0.50736 -1.70365,-1.46908 -1.51748,-1.30976 -4.24312,-2.26176 -6.63026,-2.34553 z m -82.85094,33.26928 c -0.13339,-0.005 -0.32845,0.0698 -0.5768,0.23815 -1.97668,1.34096 -3.77794,3.59704 -4.36607,5.51334 -0.43181,1.40713 -0.57626,1.65861 -0.66111,2.15047 l -2e-4,-2e-4 c -0.0509,0.29514 -0.0804,0.67677 -0.13788,1.4466 -0.11611,1.56895 0.47644,3.73597 1.34916,4.92047 -0.0198,0.22197 -0.0394,0.4791 -0.067,0.84183 -0.17833,2.40904 1.31326,6.22943 2.926,5.73537 0.0679,-0.0211 0.13196,-0.0485 0.19122,-0.0831 0.61142,-0.35854 0.1845,-1.82796 -0.14495,-2.53293 -1.974,-4.22418 0.46121,-8.12863 2.66689,-11.47655 0.56885,-0.86343 0.32026,-1.29247 -0.4745,-0.75334 -1.70507,1.15669 -3.27766,2.99399 -4.05567,4.70712 -0.71056,-3.54951 1.35235,-6.83853 3.24818,-9.71609 0.39105,-0.59362 0.39562,-0.98181 0.10249,-0.99124 z m 55.00663,2.08824 c -0.22701,0.02 -0.2725,0.3895 -0.0438,0.99389 1.21976,3.22284 2.51239,6.88373 1.0419,10.19152 -0.38406,-1.8419 -1.51613,-3.97892 -2.92655,-5.48088 -0.65742,-0.70005 -0.9942,-0.33588 -0.62821,0.63116 1.41911,3.74963 2.94061,8.0924 0.0896,11.78184 -0.47583,0.61573 -1.21399,1.95605 -0.69593,2.43976 0.05,0.0469 0.1063,0.0879 0.16807,0.12304 1.46544,0.83518 3.75739,-2.56576 4.11094,-4.9554 0.0532,-0.35988 0.0897,-0.61522 0.11917,-0.83612 1.11088,-0.96463 2.16328,-2.94914 2.39355,-4.50545 0.11299,-0.76367 0.16766,-1.1427 0.1828,-1.44182 0.0249,-0.49853 -0.0602,-0.77537 -0.17429,-2.24282 -0.15425,-1.99862 -1.41781,-4.5945 -3.05295,-6.33571 -0.24652,-0.26254 -0.44808,-0.37539 -0.58421,-0.36295 z"
       inkscape:label="third layer creases" /></g></svg>
