<?xml version="1.0" encoding="UTF-8" standalone="no"?>
<!-- Created with Inkscape (http://www.inkscape.org/) -->

<svg
   width="3000"
   height="1000"
   viewBox="0 0 793.75002 264.58334"
   version="1.1"
   id="svg1"
   inkscape:version="1.4 (86a8ad7, 2024-10-11)"
   sodipodi:docname="darkForestTree.svg"
   xml:space="preserve"
   inkscape:export-filename="lightningBolt.png"
   inkscape:export-xdpi="96"
   inkscape:export-ydpi="96"
   xmlns:inkscape="http://www.inkscape.org/namespaces/inkscape"
   xmlns:sodipodi="http://sodipodi.sourceforge.net/DTD/sodipodi-0.dtd"
   xmlns="http://www.w3.org/2000/svg"
   xmlns:svg="http://www.w3.org/2000/svg"><sodipodi:namedview
     id="namedview1"
     pagecolor="#000000"
     bordercolor="#ffffff"
     borderopacity="1"
     inkscape:showpageshadow="0"
     inkscape:pageopacity="0"
     inkscape:pagecheckerboard="1"
     inkscape:deskcolor="#505050"
     inkscape:document-units="px"
     showguides="true"
     inkscape:zoom="0.41804167"
     inkscape:cx="661.41732"
     inkscape:cy="661.41732"
     inkscape:window-width="1366"
     inkscape:window-height="745"
     inkscape:window-x="-8"
     inkscape:window-y="-8"
     inkscape:window-maximized="1"
     inkscape:current-layer="layer1"><inkscape:page
       x="0"
       y="0"
       width="793.75"
       height="264.58334"
       id="page2"
       margin="0"
       bleed="0" /></sodipodi:namedview><defs
     id="defs1" /><g
     inkscape:label="body"
     inkscape:groupmode="layer"
     id="layer1"
     style="display:inline"><path
       style="fill:#8fafef;fill-opacity:1;stroke:#bed1f6;stroke-width:7.9375;stroke-linecap:round;stroke-linejoin:round;stroke-dasharray:none;stroke-opacity:0.39"
       d="M 7.9375,129.64583 150.84617,106.04372 233.64655,152.9923 174.84371,59.052374 374.8264,84.666658 342.18939,131.09843 482.54463,47.247852 408.29151,183.94046 l 20.57476,3.91643 107.35595,-83.20603 63.9958,67.42886 63.23417,-10.5869 -63.79903,-56.91041 186.15934,25.06342 v 5.29167 l -147.28472,-14.11112 76.72916,56.44445 -123.31576,10.19078 -58.96659,-65.67266 -96.74029,77.57168 -53.54099,-0.6426 L 433.996,98.164071 309.56251,162.27778 342.19445,100.54167 203.51653,77.687595 267.21008,168.08468 208.15188,168.23436 155.22222,127 7.9375,134.9375 Z"
       id="path1"
       sodipodi:nodetypes="cccccccccccccccccccccccccccccc" /></g></svg>
