<?xml version="1.0" encoding="UTF-8" standalone="no"?>
<!-- Created with Inkscape (http://www.inkscape.org/) -->

<svg
   width="1000"
   height="1000"
   viewBox="0 0 264.58334 264.58334"
   version="1.1"
   id="svg1"
   inkscape:version="1.4 (86a8ad7, 2024-10-11)"
   sodipodi:docname="specter_page.svg"
   xml:space="preserve"
   inkscape:export-filename="specter_page.png"
   inkscape:export-xdpi="96"
   inkscape:export-ydpi="96"
   inkscape:export-batch-path="C:\Users\User\OneDrive\Documents\Spelz\spellBook"
   inkscape:export-batch-name="specter_spellBook"
   xmlns:inkscape="http://www.inkscape.org/namespaces/inkscape"
   xmlns:sodipodi="http://sodipodi.sourceforge.net/DTD/sodipodi-0.dtd"
   xmlns="http://www.w3.org/2000/svg"
   xmlns:svg="http://www.w3.org/2000/svg"><sodipodi:namedview
     id="namedview1"
     pagecolor="#000000"
     bordercolor="#ffffff"
     borderopacity="1"
     inkscape:showpageshadow="0"
     inkscape:pageopacity="0"
     inkscape:pagecheckerboard="1"
     inkscape:deskcolor="#505050"
     inkscape:document-units="px"
     showguides="true"
     inkscape:zoom="0.5912002"
     inkscape:cx="466.0012"
     inkscape:cy="606.39357"
     inkscape:window-width="1920"
     inkscape:window-height="991"
     inkscape:window-x="-9"
     inkscape:window-y="-9"
     inkscape:window-maximized="1"
     inkscape:current-layer="layer1"><inkscape:page
       x="0"
       y="0"
       width="264.58334"
       height="264.58334"
       id="page2"
       margin="0"
       bleed="0" /></sodipodi:namedview><defs
     id="defs1" /><g
     inkscape:label="body"
     inkscape:groupmode="layer"
     id="layer1"
     style="display:inline"
     transform="translate(-19.843751,-3.9687502)"><path
       style="display:inline;fill:#ebd7ad;fill-opacity:1;stroke:#dcb96f;stroke-width:7.9375;stroke-linecap:butt;stroke-linejoin:round;stroke-dasharray:none;stroke-opacity:1"
       d="M 46.302085,14.552084 H 257.96876 V 257.96876 H 46.302085 Z"
       id="path2"
       sodipodi:nodetypes="ccccc" /><ellipse
       style="display:inline;opacity:0.25;fill:#979696;fill-opacity:1;stroke-width:0.15575;stroke-dasharray:none"
       id="path8-6"
       cy="142.77264"
       cx="152.13545"
       inkscape:label="aura"
       rx="85.367531"
       ry="85.368515" /><ellipse
       style="display:inline;fill:#ebd7ad;fill-opacity:1;stroke-width:0.16592"
       id="path10-1"
       cy="142.77264"
       cx="152.13545"
       inkscape:label="core body"
       rx="72.345367"
       ry="72.346199" /><ellipse
       style="display:inline;fill:none;fill-opacity:1;stroke:#523d14;stroke-width:14.8661;stroke-dasharray:none;stroke-opacity:1"
       id="path11"
       inkscape:label="outline"
       cy="142.77264"
       cx="152.13545"
       rx="64.970543"
       ry="64.971283" /><path
       style="fill:#523d14;fill-opacity:1;stroke:#523d14;stroke-width:1.94508;stroke-dasharray:none;stroke-opacity:1"
       d="m 159.88548,102.27729 11.99614,6.05714 7.34891,1.62809 c 0,0 6.95623,-0.8465 1.97669,-6.62993 -4.97953,-5.78343 -27.3109,-1.51251 -21.32174,-1.0553 z"
       id="path12"
       inkscape:label="right eye" /><path
       style="fill:#523d14;fill-opacity:1;stroke:#523d14;stroke-width:1.94507;stroke-dasharray:none;stroke-opacity:1"
       d="m 144.38543,102.27728 -11.99612,6.05713 -7.34892,1.62809 c 0,0 -6.95621,-0.84649 -1.97667,-6.62991 4.97952,-5.783429 27.31086,-1.51251 21.32171,-1.05531 z"
       id="path14"
       inkscape:label="left eye" /><path
       style="fill:#737b8c;fill-opacity:0.702509;stroke:#737b8c;stroke-width:0.545417;stroke-dasharray:none;stroke-opacity:0.698925"
       d="m 200.14118,74.006817 c 0,0 2.90477,9.019842 4.68407,11.356286 1.77932,2.336445 13.46721,9.977816 13.46721,9.977816 0,0 4.53789,3.628601 8.20467,9.352381 3.66678,5.72378 4.58505,20.01866 4.58505,20.01866 0,0 4.22608,-5.10171 7.52706,-11.50186 3.30098,-6.40013 5.67687,-14.098701 5.80796,-19.148819 0.26218,-10.100238 -0.50671,-16.401706 -2.39758,-23.54663 -1.89087,-7.144926 -5.10798,-12.944514 -8.24211,-17.45778 -3.13411,-4.513264 -12.46941,-8.39882 -12.46941,-8.39882 0,0 6.25064,7.767365 7.11151,11.199864 0.86092,3.432504 0.90414,7.267476 0.90414,7.267476 0,0 -1.15294,-2.386479 -3.54806,-5.808751 -2.63609,-3.766594 -6.33821,-6.0732 -8.80998,-7.749537 -4.94357,-3.352676 -17.00559,-4.916911 -17.00559,-4.916911 0,0 9.89223,6.925583 12.75102,11.303142 2.85878,4.377557 5.10156,8.282779 5.10156,8.282779 0,0 -3.69255,-2.378975 -5.53334,-3.574262 -3.07421,-1.996198 -5.0405,-3.391741 -8.98711,-4.633387 -6.04424,-1.901594 -16.34382,-0.356401 -16.34382,-0.356401 0,0 7.09474,2.414825 10.13695,4.298061 3.82535,2.368021 9.09155,6.186072 10.72209,8.486392 3.26109,4.600662 3.10157,4.610458 4.25784,7.135299 1.00689,2.198673 2.29686,6.898299 2.29686,6.898299 0,0 -3.35766,-0.663573 -7.10384,-2.554917 -3.74619,-1.891346 -7.11715,-5.92838 -7.11715,-5.92838 z"
       id="path16"
       sodipodi:nodetypes="czczcsszzczcssczcsscsssczc"
       inkscape:label="right hand" /><path
       style="fill:#737b8c;fill-opacity:0.702509;stroke:#737b8c;stroke-width:0.545528;stroke-dasharray:none;stroke-opacity:0.702509"
       d="m 104.12974,74.006859 c 0,0 -2.90478,9.019855 -4.684083,11.356303 -1.779314,2.336448 -13.4672,9.97783 -13.4672,9.97783 0,0 -4.537895,3.628609 -8.204683,9.352398 -3.666775,5.72378 -4.585046,20.01868 -4.585046,20.01868 0,0 -4.226081,-5.10172 -7.527061,-11.50188 C 62.360681,106.81006 59.98479,99.111475 59.8537,94.061352 59.591526,83.9611 60.360401,77.659622 62.251283,70.514689 c 1.890871,-7.144937 5.107982,-12.944534 8.242111,-17.457805 3.134117,-4.513271 12.469419,-8.398832 12.469419,-8.398832 0,0 -6.250646,7.767375 -7.111521,11.19988 -0.860922,3.432509 -0.904138,7.267486 -0.904138,7.267486 0,0 1.152942,-2.386482 3.548066,-5.808759 2.636091,-3.7666 6.338207,-6.073209 8.809988,-7.749548 4.943561,-3.352681 17.005592,-4.916919 17.005592,-4.916919 0,0 -9.892243,6.925594 -12.751031,11.303159 -2.85877,4.377563 -5.101558,8.282791 -5.101558,8.282791 0,0 3.692554,-2.37898 5.533333,-3.574268 3.074215,-1.9962 5.04051,-3.391746 8.987126,-4.633393 6.04424,-1.901596 16.34382,-0.356402 16.34382,-0.356402 0,0 -7.09474,2.41483 -10.13695,4.298068 -3.82536,2.368024 -9.091561,6.186079 -10.722098,8.486403 -3.261086,4.600669 -3.101573,4.610465 -4.257837,7.135309 -1.006897,2.198677 -2.296867,6.898309 -2.296867,6.898309 0,0 3.357658,-0.663573 7.10384,-2.55492 3.746192,-1.891349 7.117162,-5.928389 7.117162,-5.928389 z"
       id="path17"
       sodipodi:nodetypes="czczcsszzczcssczcsscsssczc"
       inkscape:label="left hand" /></g></svg>
