<?xml version="1.0" encoding="UTF-8" standalone="no"?>
<!-- Created with Inkscape (http://www.inkscape.org/) -->

<svg
   width="1000"
   height="1000"
   viewBox="0 0 264.58334 264.58334"
   version="1.1"
   id="svg1"
   inkscape:version="1.4 (86a8ad7, 2024-10-11)"
   sodipodi:docname="summonTree_page.svg"
   xml:space="preserve"
   inkscape:export-filename="summonTree_page.png"
   inkscape:export-xdpi="96"
   inkscape:export-ydpi="96"
   inkscape:export-batch-path="C:\Users\User\OneDrive\Documents\Spelz\spellBook"
   inkscape:export-batch-name="summonTree_spellBook"
   xmlns:inkscape="http://www.inkscape.org/namespaces/inkscape"
   xmlns:sodipodi="http://sodipodi.sourceforge.net/DTD/sodipodi-0.dtd"
   xmlns="http://www.w3.org/2000/svg"
   xmlns:svg="http://www.w3.org/2000/svg"><sodipodi:namedview
     id="namedview1"
     pagecolor="#000000"
     bordercolor="#ffffff"
     borderopacity="1"
     inkscape:showpageshadow="0"
     inkscape:pageopacity="0"
     inkscape:pagecheckerboard="1"
     inkscape:deskcolor="#505050"
     inkscape:document-units="px"
     showguides="true"
     inkscape:zoom="0.5912002"
     inkscape:cx="466.0012"
     inkscape:cy="606.39357"
     inkscape:window-width="1920"
     inkscape:window-height="991"
     inkscape:window-x="-9"
     inkscape:window-y="-9"
     inkscape:window-maximized="1"
     inkscape:current-layer="layer1"><inkscape:page
       x="0"
       y="0"
       width="264.58334"
       height="264.58334"
       id="page2"
       margin="0"
       bleed="0" /></sodipodi:namedview><defs
     id="defs1"><inkscape:path-effect
       effect="fillet_chamfer"
       id="path-effect53"
       is_visible="true"
       lpeversion="1"
       nodesatellites_param="F,0,0,1,0,5.7256841,0,1 @ F,0,0,1,0,0,0,1 @ F,0,0,1,0,5.4389754,0,1 @ F,0,0,1,0,0,0,1 @ F,0,0,1,0,5.3359278,0,1 @ F,0,0,1,0,0,0,1 @ F,0,0,1,0,6.1863377,0,1 @ F,0,0,1,0,0,0,1 @ F,0,0,1,0,5.367782,0,1 @ F,0,0,1,0,0,0,1 @ F,0,0,1,0,3.2845681,0,1 @ F,0,0,1,0,0,0,1 @ F,0,0,1,0,6.084035,0,1 @ F,0,0,1,0,0,0,1 @ F,0,0,1,0,8.5848726,0,1 @ F,0,0,1,0,0,0,1"
       radius="0"
       unit="px"
       method="auto"
       mode="F"
       chamfer_steps="1"
       flexible="false"
       use_knot_distance="true"
       apply_no_radius="true"
       apply_with_radius="true"
       only_selected="false"
       hide_knots="false" /><inkscape:path-effect
       effect="fillet_chamfer"
       id="path-effect49"
       is_visible="true"
       lpeversion="1"
       nodesatellites_param="F,0,0,1,0,2.9677153,0,1 @ F,0,0,1,0,0,0,1 @ F,0,0,1,0,2.9853553,0,1 @ F,0,0,1,0,2.9853553,0,1 @ F,0,0,1,0,3.996012,0,1 @ F,0,0,1,0,3.996012,0,1 @ F,0,0,1,0,3.5274258,0,1 @ F,0,0,1,0,0,0,1 @ F,0,0,1,0,3.3728948,0,1 @ F,0,0,1,0,0,0,1 @ F,0,0,1,0,4.0254748,0,1 @ F,0,0,1,0,0,0,1 @ F,0,0,1,0,4.0986426,0,1 @ F,0,0,1,0,0,0,1 @ F,0,0,1,0,4.0417498,0,1 @ F,0,0,1,0,0,0,1"
       radius="0"
       unit="px"
       method="auto"
       mode="F"
       chamfer_steps="1"
       flexible="false"
       use_knot_distance="true"
       apply_no_radius="true"
       apply_with_radius="true"
       only_selected="false"
       hide_knots="false" /><inkscape:path-effect
       effect="fillet_chamfer"
       id="path-effect47"
       is_visible="true"
       lpeversion="1"
       nodesatellites_param="F,0,0,1,0,5.7256841,0,1 @ F,0,0,1,0,0,0,1 @ F,0,0,1,0,5.4389754,0,1 @ F,0,0,1,0,0,0,1 @ F,0,0,1,0,5.3359278,0,1 @ F,0,0,1,0,0,0,1 @ F,0,0,1,0,6.1863377,0,1 @ F,0,0,1,0,0,0,1 @ F,0,0,1,0,5.367782,0,1 @ F,0,0,1,0,0,0,1 @ F,0,0,1,0,3.2845681,0,1 @ F,0,0,1,0,0,0,1 @ F,0,0,1,0,6.084035,0,1 @ F,0,0,1,0,0,0,1 @ F,0,0,1,0,8.5848726,0,1 @ F,0,0,1,0,0,0,1"
       radius="0"
       unit="px"
       method="auto"
       mode="F"
       chamfer_steps="1"
       flexible="false"
       use_knot_distance="true"
       apply_no_radius="true"
       apply_with_radius="true"
       only_selected="false"
       hide_knots="false" /><inkscape:path-effect
       effect="fillet_chamfer"
       id="path-effect45"
       is_visible="true"
       lpeversion="1"
       nodesatellites_param="F,0,0,1,0,2.9677153,0,1 @ F,0,0,1,0,0,0,1 @ F,0,0,1,0,2.9853553,0,1 @ F,0,0,1,0,2.9853553,0,1 @ F,0,0,1,0,3.996012,0,1 @ F,0,0,1,0,3.996012,0,1 @ F,0,0,1,0,3.5274258,0,1 @ F,0,0,1,0,0,0,1 @ F,0,0,1,0,3.3728948,0,1 @ F,0,0,1,0,0,0,1 @ F,0,0,1,0,4.0254748,0,1 @ F,0,0,1,0,0,0,1 @ F,0,0,1,0,4.0986426,0,1 @ F,0,0,1,0,0,0,1 @ F,0,0,1,0,4.0417498,0,1 @ F,0,0,1,0,0,0,1"
       radius="0"
       unit="px"
       method="auto"
       mode="F"
       chamfer_steps="1"
       flexible="false"
       use_knot_distance="true"
       apply_no_radius="true"
       apply_with_radius="true"
       only_selected="false"
       hide_knots="false" /><inkscape:path-effect
       effect="fillet_chamfer"
       id="path-effect39"
       is_visible="true"
       lpeversion="1"
       nodesatellites_param="F,0,0,1,0,2.9677153,0,1 @ F,0,0,1,0,0,0,1 @ F,0,0,1,0,2.9853553,0,1 @ F,0,0,1,0,2.9853553,0,1 @ F,0,0,1,0,3.996012,0,1 @ F,0,0,1,0,3.996012,0,1 @ F,0,0,1,0,3.5274258,0,1 @ F,0,0,1,0,0,0,1 @ F,0,0,1,0,3.3728948,0,1 @ F,0,0,1,0,0,0,1 @ F,0,0,1,0,4.0254748,0,1 @ F,0,0,1,0,0,0,1 @ F,0,0,1,0,4.0986426,0,1 @ F,0,0,1,0,0,0,1 @ F,0,0,1,0,4.0417498,0,1 @ F,0,0,1,0,0,0,1"
       radius="0"
       unit="px"
       method="auto"
       mode="F"
       chamfer_steps="1"
       flexible="false"
       use_knot_distance="true"
       apply_no_radius="true"
       apply_with_radius="true"
       only_selected="false"
       hide_knots="false" /><inkscape:path-effect
       effect="fillet_chamfer"
       id="path-effect6"
       is_visible="true"
       lpeversion="1"
       nodesatellites_param="F,0,0,1,0,5.7256841,0,1 @ F,0,0,1,0,0,0,1 @ F,0,0,1,0,5.4389754,0,1 @ F,0,0,1,0,0,0,1 @ F,0,0,1,0,5.3359278,0,1 @ F,0,0,1,0,0,0,1 @ F,0,0,1,0,6.1863377,0,1 @ F,0,0,1,0,0,0,1 @ F,0,0,1,0,5.367782,0,1 @ F,0,0,1,0,0,0,1 @ F,0,0,1,0,3.2845681,0,1 @ F,0,0,1,0,0,0,1 @ F,0,0,1,0,6.084035,0,1 @ F,0,0,1,0,0,0,1 @ F,0,0,1,0,8.5848726,0,1 @ F,0,0,1,0,0,0,1"
       radius="0"
       unit="px"
       method="auto"
       mode="F"
       chamfer_steps="1"
       flexible="false"
       use_knot_distance="true"
       apply_no_radius="true"
       apply_with_radius="true"
       only_selected="false"
       hide_knots="false" /><filter
       inkscape:collect="always"
       style="color-interpolation-filters:sRGB"
       id="filter2"
       x="-0.0018680046"
       y="-0.0019423582"
       width="1.003736"
       height="1.0038847"><feGaussianBlur
         inkscape:collect="always"
         stdDeviation="0.25537236"
         id="feGaussianBlur2" /></filter></defs><g
     inkscape:label="body"
     inkscape:groupmode="layer"
     id="layer1"
     style="display:inline"
     transform="translate(-19.843751,-3.9687502)"><path
       style="display:inline;fill:#ebd7ad;fill-opacity:1;stroke:#dcb96f;stroke-width:7.9375;stroke-linecap:butt;stroke-linejoin:round;stroke-dasharray:none;stroke-opacity:1"
       d="M 46.302085,14.552084 H 257.96876 V 257.96876 H 46.302085 Z"
       id="path2"
       sodipodi:nodetypes="ccccc" /><path
       style="display:inline;fill:#ebd7ad;fill-opacity:1;stroke:#523d14;stroke-width:9.78693;stroke-dasharray:none;stroke-opacity:1"
       d="M 72.714723,21.973733 C 89.002058,41.29001 72.051722,54.664051 90.73481,80.905522 63.249798,78.586209 36.252409,82.432984 15.061916,96.463471 c -1.374662,0.910181 -1.442517,2.563067 -0.263259,3.715029 17.384927,16.98247 14.359358,38.70363 38.859935,62.57681 1.180734,1.1505 1.103781,2.85996 -0.176928,3.89825 -23.080685,18.71177 -31.098234,41.54133 -38.971504,61.20383 -0.820238,2.04844 0.288517,3.72228 2.493762,3.80725 31.974318,1.23201 46.114455,11.50798 72.243279,16.36838 2.168995,0.40347 3.932322,2.46394 3.956819,4.67073 0.254384,22.91595 3.104227,39.27744 15.81619,72.78156 0.69108,1.82144 2.11958,1.96789 3.27069,0.39646 16.92717,-23.10797 35.14641,-16.19322 62.34505,-45.32826 35.49427,32.35567 45.69233,24.2809 62.56294,47.30973 1.10076,1.50258 2.92854,1.60392 4.03617,0.10658 19.82793,-26.80431 14.58575,-70.78608 12.40269,-84.16135 33.75797,9.86168 46.81978,-17.97542 79.9987,-10.78312 2.17232,0.4709 3.32847,-0.72398 2.62928,-2.83438 -7.98851,-24.11211 -16.45481,-51.21638 -43.59392,-64.01089 32.64578,-24.25898 20.98645,-42.06692 40.72083,-62.80392 1.5601,-1.63936 1.48359,-4.015656 -0.36379,-5.323365 -21.4789,-15.204303 -46.04088,-17.048617 -71.42967,-15.31002 8.96638,-22.251546 5.76575,-36.375041 12.79938,-58.635239 0.67249,-2.128307 -0.48313,-4.212292 -2.67725,-4.62254 C 218.15874,9.4700619 196.55689,33.452654 170.55518,50.897086 154.79776,35.318245 112.72077,19.794309 73.698736,19.740763 c -1.63899,-0.0022 -2.040397,0.980131 -0.984013,2.23297 z"
       id="path2-8"
       sodipodi:nodetypes="ccccccccccccccccc"
       inkscape:label="first layer"
       inkscape:path-effect="#path-effect39"
       inkscape:original-d="M 70.731194,19.766887 C 90.32819,40.301706 71.348682,53.67659 90.73481,80.905522 62.175082,78.49552 34.141857,82.743244 12.603105,98.156278 c 20.413474,17.738352 15.317077,41.007612 43.22393,66.650392 -26.42329,20.21117 -34.138052,45.66448 -42.817659,66.75346 36.480692,0.51428 50.339788,12.46818 80.175103,17.14768 -0.02009,25.86387 2.54726,42.34295 17.096141,80.07204 17.50507,-26.61186 36.07696,-17.9347 64.35533,-48.22634 36.83836,33.58091 46.42842,23.61137 64.50994,50.06358 22.27358,-26.45514 16.74842,-72.983 14.49186,-86.80862 35.05069,10.23932 47.78981,-20.16269 83.90114,-9.79867 -8.41401,-25.00768 -16.28472,-54.3548 -44.86708,-67.82972 34.14339,-25.37185 19.82348,-43.6872 43.64225,-65.67721 C 314.07112,83.047419 288.29212,80.914872 261.59918,82.742775 271.06925,59.241251 266.96695,44.806611 275.68476,20.27623 219.20641,8.3001817 197.18898,33.028586 170.55518,50.897086 154.39746,34.922481 110.56594,19.005607 70.731194,19.766887 Z"
       transform="matrix(0.50259426,0,0,0.51931317,64.087874,46.369989)" /><path
       style="display:inline;fill:#ebd7ad;fill-opacity:1;stroke:none;stroke-width:10.0159;stroke-dasharray:none;stroke-opacity:1;filter:url(#filter2)"
       d="m 18.522182,24.876991 c 1.221852,17.05551 -4.050811,33.418283 30.553442,73.145926 -27.368705,-7.582882 -56.7123019,-13.760026 -92.307527,4.312503 -2.678208,1.35979 -2.906587,4.11515 -0.863639,6.31493 17.122122,18.43652 7.552638,40.40881 48.0322606,69.19175 -24.3869966,18.65361 -43.6704746,36.97905 -53.3213916,56.27218 -1.318096,2.63501 0.178607,4.86706 3.116036,5.09739 32.176347,2.52309 42.5088522,23.05495 79.167541,19.86145 -1.742816,28.74418 -2.195316,40.21476 8.557174,65.74978 1.325844,3.14861 4.204716,3.47489 6.842907,1.31173 15.659487,-12.83984 34.628823,-1.92064 63.126695,-39.60287 36.4773,42.43421 54.62314,38.29526 70.05633,47.41373 2.54985,1.50654 5.11834,0.76585 5.87684,-2.09982 11.10721,-41.9639 -0.025,-79.62865 -5.70548,-90.10187 55.87798,30.35769 72.365,-2.02257 94.1948,-2.88785 1.81057,-0.0718 2.80033,-1.27673 2.21933,-2.99519 -6.98303,-20.65425 -10.99388,-33.89257 -60.30476,-56.39066 56.48508,-35.21623 44.51163,-51.28267 55.39883,-69.47411 1.72357,-2.87992 1.3305,-6.56152 -1.58226,-8.23382 -23.84058,-13.687547 -54.82701,-10.146895 -81.23332,-7.191727 16.80368,-24.780715 12.76329,-44.829509 15.5336,-67.097447 0.58515,-4.70343 -2.43776,-8.574215 -7.16941,-8.291803 -55.63136,3.320401 -88.14927,48.378282 -86.97822,50.855316 -6.84067,-18.101315 -48.351337,-49.140854 -88.185119,-50.807226 -3.158733,-0.13214 -5.250504,2.495191 -5.024659,5.647708 z"
       id="path3-82"
       sodipodi:nodetypes="ccccccccccccccccc"
       inkscape:label="first layer highlight"
       transform="matrix(0.39728443,0,0,0.39728896,106.34885,65.128606)"
       inkscape:path-effect="#path-effect6"
       inkscape:original-d="m 17.822536,19.197154 c 3.561917,19.42122 -7.15391,34.732353 31.253088,78.825763 -28.588468,-7.920834 -59.331783,-14.307837 -97.10436,6.875383 22.607,19.2007 8.703916,42.18279 51.9654546,72.9438 -26.4232906,20.21117 -46.8552006,40.03708 -55.5348076,61.12606 36.480692,0.51428 45.8875738,23.4684 84.496993,20.10496 -1.866756,30.78832 -2.25315,41.75887 11.024736,71.42221 16.519309,-19.71153 36.298965,-2.7043 67.50204,-43.96357 39.99472,46.52605 57.95221,37.06399 74.45923,50.47501 13.49948,-44.00335 1.6809,-84.36205 -4.23154,-95.26297 58.63773,31.85702 73.89747,-5.37405 97.47373,-2.77408 -7.75737,-22.48117 -9.6239,-35.89303 -61.36436,-59.49962 61.53437,-38.36427 41.82394,-54.00206 58.93176,-74.41874 C 252.29902,87.553211 218.68496,91.398988 190.34599,94.570443 209.2494,66.693213 201.77407,44.804359 207.29109,19.007902 146.4401,17.854492 110.50192,67.434708 111.73196,70.036509 104.56272,51.065744 59.312919,17.883996 17.822536,19.197154 Z" /><path
       style="display:inline;fill:#ebd7ad;fill-opacity:1;stroke:#523d14;stroke-width:13.9091;stroke-dasharray:none;stroke-opacity:1"
       d="M 72.714723,21.973733 C 89.002058,41.29001 72.051722,54.664051 90.73481,80.905522 63.249798,78.586209 36.252409,82.432984 15.061916,96.463471 c -1.374662,0.910181 -1.442517,2.563067 -0.263259,3.715029 17.384927,16.98247 14.359358,38.70363 38.859935,62.57681 1.180734,1.1505 1.103781,2.85996 -0.176928,3.89825 -23.080685,18.71177 -31.098234,41.54133 -38.971504,61.20383 -0.820238,2.04844 0.288517,3.72228 2.493762,3.80725 31.974318,1.23201 46.114455,11.50798 72.243279,16.36838 2.168995,0.40347 3.932322,2.46394 3.956819,4.67073 0.254384,22.91595 3.104227,39.27744 15.81619,72.78156 0.69108,1.82144 2.11958,1.96789 3.27069,0.39646 16.92717,-23.10797 35.14641,-16.19322 62.34505,-45.32826 35.49427,32.35567 45.69233,24.2809 62.56294,47.30973 1.10076,1.50258 2.92854,1.60392 4.03617,0.10658 19.82793,-26.80431 14.58575,-70.78608 12.40269,-84.16135 33.75797,9.86168 46.81978,-17.97542 79.9987,-10.78312 2.17232,0.4709 3.32847,-0.72398 2.62928,-2.83438 -7.98851,-24.11211 -16.45481,-51.21638 -43.59392,-64.01089 32.64578,-24.25898 20.98645,-42.06692 40.72083,-62.80392 1.5601,-1.63936 1.48359,-4.015656 -0.36379,-5.323365 -21.4789,-15.204303 -46.04088,-17.048617 -71.42967,-15.31002 8.96638,-22.251546 5.76575,-36.375041 12.79938,-58.635239 0.67249,-2.128307 -0.48313,-4.212292 -2.67725,-4.62254 C 218.15874,9.4700619 196.55689,33.452654 170.55518,50.897086 154.79776,35.318245 112.72077,19.794309 73.698736,19.740763 c -1.63899,-0.0022 -2.040397,0.980131 -0.984013,2.23297 z"
       id="path43"
       sodipodi:nodetypes="ccccccccccccccccc"
       inkscape:label="second layer"
       transform="matrix(0.35942075,0.0078574,-0.00785867,0.35936282,89.933713,71.524455)"
       inkscape:original-d="M 70.731194,19.766887 C 90.32819,40.301706 71.348682,53.67659 90.73481,80.905522 62.175082,78.49552 34.141857,82.743244 12.603105,98.156278 c 20.413474,17.738352 15.317077,41.007612 43.22393,66.650392 -26.42329,20.21117 -34.138052,45.66448 -42.817659,66.75346 36.480692,0.51428 50.339788,12.46818 80.175103,17.14768 -0.02009,25.86387 2.54726,42.34295 17.096141,80.07204 17.50507,-26.61186 36.07696,-17.9347 64.35533,-48.22634 36.83836,33.58091 46.42842,23.61137 64.50994,50.06358 22.27358,-26.45514 16.74842,-72.983 14.49186,-86.80862 35.05069,10.23932 47.78981,-20.16269 83.90114,-9.79867 -8.41401,-25.00768 -16.28472,-54.3548 -44.86708,-67.82972 34.14339,-25.37185 19.82348,-43.6872 43.64225,-65.67721 C 314.07112,83.047419 288.29212,80.914872 261.59918,82.742775 271.06925,59.241251 266.96695,44.806611 275.68476,20.27623 219.20641,8.3001817 197.18898,33.028586 170.55518,50.897086 154.39746,34.922481 110.56594,19.005607 70.731194,19.766887 Z"
       inkscape:path-effect="#path-effect45" /><path
       style="display:inline;fill:#ebd7ad;fill-opacity:1;stroke:none;stroke-width:9.8084;stroke-dasharray:none;stroke-opacity:1;filter:url(#filter2)"
       d="m 18.522182,24.876991 c 1.221852,17.05551 -4.050811,33.418283 30.553442,73.145926 -27.368705,-7.582882 -56.7123019,-13.760026 -92.307527,4.312503 -2.678208,1.35979 -2.906587,4.11515 -0.863639,6.31493 17.122122,18.43652 7.552638,40.40881 48.0322606,69.19175 -24.3869966,18.65361 -43.6704746,36.97905 -53.3213916,56.27218 -1.318096,2.63501 0.178607,4.86706 3.116036,5.09739 32.176347,2.52309 42.5088522,23.05495 79.167541,19.86145 -1.742816,28.74418 -2.195316,40.21476 8.557174,65.74978 1.325844,3.14861 4.204716,3.47489 6.842907,1.31173 15.659487,-12.83984 34.628823,-1.92064 63.126695,-39.60287 36.4773,42.43421 54.62314,38.29526 70.05633,47.41373 2.54985,1.50654 5.11834,0.76585 5.87684,-2.09982 11.10721,-41.9639 -0.025,-79.62865 -5.70548,-90.10187 55.87798,30.35769 72.365,-2.02257 94.1948,-2.88785 1.81057,-0.0718 2.80033,-1.27673 2.21933,-2.99519 -6.98303,-20.65425 -10.99388,-33.89257 -60.30476,-56.39066 56.48508,-35.21623 44.51163,-51.28267 55.39883,-69.47411 1.72357,-2.87992 1.3305,-6.56152 -1.58226,-8.23382 -23.84058,-13.687547 -54.82701,-10.146895 -81.23332,-7.191727 16.80368,-24.780715 12.76329,-44.829509 15.5336,-67.097447 0.58515,-4.70343 -2.43776,-8.574215 -7.16941,-8.291803 -55.63136,3.320401 -88.14927,48.378282 -86.97822,50.855316 -6.84067,-18.101315 -48.351337,-49.140854 -88.185119,-50.807226 -3.158733,-0.13214 -5.250504,2.495191 -5.024659,5.647708 z"
       id="path45"
       sodipodi:nodetypes="ccccccccccccccccc"
       inkscape:label="second layer highlight"
       transform="matrix(0.27340255,0.00277453,-0.0027745,0.27340567,120.37802,84.124988)"
       inkscape:path-effect="#path-effect47"
       inkscape:original-d="m 17.822536,19.197154 c 3.561917,19.42122 -7.15391,34.732353 31.253088,78.825763 -28.588468,-7.920834 -59.331783,-14.307837 -97.10436,6.875383 22.607,19.2007 8.703916,42.18279 51.9654546,72.9438 -26.4232906,20.21117 -46.8552006,40.03708 -55.5348076,61.12606 36.480692,0.51428 45.8875738,23.4684 84.496993,20.10496 -1.866756,30.78832 -2.25315,41.75887 11.024736,71.42221 16.519309,-19.71153 36.298965,-2.7043 67.50204,-43.96357 39.99472,46.52605 57.95221,37.06399 74.45923,50.47501 13.49948,-44.00335 1.6809,-84.36205 -4.23154,-95.26297 58.63773,31.85702 73.89747,-5.37405 97.47373,-2.77408 -7.75737,-22.48117 -9.6239,-35.89303 -61.36436,-59.49962 61.53437,-38.36427 41.82394,-54.00206 58.93176,-74.41874 C 252.29902,87.553211 218.68496,91.398988 190.34599,94.570443 209.2494,66.693213 201.77407,44.804359 207.29109,19.007902 146.4401,17.854492 110.50192,67.434708 111.73196,70.036509 104.56272,51.065744 59.312919,17.883996 17.822536,19.197154 Z" /><path
       style="display:inline;fill:#ebd7ad;fill-opacity:1;stroke:#523d14;stroke-width:21.6108;stroke-dasharray:none;stroke-opacity:1"
       d="M 72.714723,21.973733 C 89.002058,41.29001 72.051722,54.664051 90.73481,80.905522 63.249798,78.586209 36.252409,82.432984 15.061916,96.463471 c -1.374662,0.910181 -1.442517,2.563067 -0.263259,3.715029 17.384927,16.98247 14.359358,38.70363 38.859935,62.57681 1.180734,1.1505 1.103781,2.85996 -0.176928,3.89825 -23.080685,18.71177 -31.098234,41.54133 -38.971504,61.20383 -0.820238,2.04844 0.288517,3.72228 2.493762,3.80725 31.974318,1.23201 46.114455,11.50798 72.243279,16.36838 2.168995,0.40347 3.932322,2.46394 3.956819,4.67073 0.254384,22.91595 3.104227,39.27744 15.81619,72.78156 0.69108,1.82144 2.11958,1.96789 3.27069,0.39646 16.92717,-23.10797 35.14641,-16.19322 62.34505,-45.32826 35.49427,32.35567 45.69233,24.2809 62.56294,47.30973 1.10076,1.50258 2.92854,1.60392 4.03617,0.10658 19.82793,-26.80431 14.58575,-70.78608 12.40269,-84.16135 33.75797,9.86168 46.81978,-17.97542 79.9987,-10.78312 2.17232,0.4709 3.32847,-0.72398 2.62928,-2.83438 -7.98851,-24.11211 -16.45481,-51.21638 -43.59392,-64.01089 32.64578,-24.25898 20.98645,-42.06692 40.72083,-62.80392 1.5601,-1.63936 1.48359,-4.015656 -0.36379,-5.323365 -21.4789,-15.204303 -46.04088,-17.048617 -71.42967,-15.31002 8.96638,-22.251546 5.76575,-36.375041 12.79938,-58.635239 0.67249,-2.128307 -0.48313,-4.212292 -2.67725,-4.62254 C 218.15874,9.4700619 196.55689,33.452654 170.55518,50.897086 154.79776,35.318245 112.72077,19.794309 73.698736,19.740763 c -1.63899,-0.0022 -2.040397,0.980131 -0.984013,2.23297 z"
       id="path48"
       sodipodi:nodetypes="ccccccccccccccccc"
       inkscape:label="third layer"
       inkscape:path-effect="#path-effect49"
       inkscape:original-d="M 70.731194,19.766887 C 90.32819,40.301706 71.348682,53.67659 90.73481,80.905522 62.175082,78.49552 34.141857,82.743244 12.603105,98.156278 c 20.413474,17.738352 15.317077,41.007612 43.22393,66.650392 -26.42329,20.21117 -34.138052,45.66448 -42.817659,66.75346 36.480692,0.51428 50.339788,12.46818 80.175103,17.14768 -0.02009,25.86387 2.54726,42.34295 17.096141,80.07204 17.50507,-26.61186 36.07696,-17.9347 64.35533,-48.22634 36.83836,33.58091 46.42842,23.61137 64.50994,50.06358 22.27358,-26.45514 16.74842,-72.983 14.49186,-86.80862 35.05069,10.23932 47.78981,-20.16269 83.90114,-9.79867 -8.41401,-25.00768 -16.28472,-54.3548 -44.86708,-67.82972 34.14339,-25.37185 19.82348,-43.6872 43.64225,-65.67721 C 314.07112,83.047419 288.29212,80.914872 261.59918,82.742775 271.06925,59.241251 266.96695,44.806611 275.68476,20.27623 219.20641,8.3001817 197.18898,33.028586 170.55518,50.897086 154.39746,34.922481 110.56594,19.005607 70.731194,19.766887 Z"
       transform="matrix(0.2311421,0.01054733,-0.01054895,0.23110666,112.74503,93.470486)" /><path
       style="display:inline;fill:#ebd7ad;fill-opacity:1;stroke:none;stroke-width:10.3746;stroke-dasharray:none;stroke-opacity:1;filter:url(#filter2)"
       d="m 18.522182,24.876991 c 1.221852,17.05551 -4.050811,33.418283 30.553442,73.145926 -27.368705,-7.582882 -56.7123019,-13.760026 -92.307527,4.312503 -2.678208,1.35979 -2.906587,4.11515 -0.863639,6.31493 17.122122,18.43652 7.552638,40.40881 48.0322606,69.19175 -24.3869966,18.65361 -43.6704746,36.97905 -53.3213916,56.27218 -1.318096,2.63501 0.178607,4.86706 3.116036,5.09739 32.176347,2.52309 42.5088522,23.05495 79.167541,19.86145 -1.742816,28.74418 -2.195316,40.21476 8.557174,65.74978 1.325844,3.14861 4.204716,3.47489 6.842907,1.31173 15.659487,-12.83984 34.628823,-1.92064 63.126695,-39.60287 36.4773,42.43421 54.62314,38.29526 70.05633,47.41373 2.54985,1.50654 5.11834,0.76585 5.87684,-2.09982 11.10721,-41.9639 -0.025,-79.62865 -5.70548,-90.10187 55.87798,30.35769 72.365,-2.02257 94.1948,-2.88785 1.81057,-0.0718 2.80033,-1.27673 2.21933,-2.99519 -6.98303,-20.65425 -10.99388,-33.89257 -60.30476,-56.39066 56.48508,-35.21623 44.51163,-51.28267 55.39883,-69.47411 1.72357,-2.87992 1.3305,-6.56152 -1.58226,-8.23382 -23.84058,-13.687547 -54.82701,-10.146895 -81.23332,-7.191727 16.80368,-24.780715 12.76329,-44.829509 15.5336,-67.097447 0.58515,-4.70343 -2.43776,-8.574215 -7.16941,-8.291803 -55.63136,3.320401 -88.14927,48.378282 -86.97822,50.855316 -6.84067,-18.101315 -48.351337,-49.140854 -88.185119,-50.807226 -3.158733,-0.13214 -5.250504,2.495191 -5.024659,5.647708 z"
       id="path51"
       sodipodi:nodetypes="ccccccccccccccccc"
       inkscape:label="third layer highlight"
       transform="matrix(0.14908598,0.00589786,-0.00589779,0.14908768,135.33341,105.36946)"
       inkscape:path-effect="#path-effect53"
       inkscape:original-d="m 17.822536,19.197154 c 3.561917,19.42122 -7.15391,34.732353 31.253088,78.825763 -28.588468,-7.920834 -59.331783,-14.307837 -97.10436,6.875383 22.607,19.2007 8.703916,42.18279 51.9654546,72.9438 -26.4232906,20.21117 -46.8552006,40.03708 -55.5348076,61.12606 36.480692,0.51428 45.8875738,23.4684 84.496993,20.10496 -1.866756,30.78832 -2.25315,41.75887 11.024736,71.42221 16.519309,-19.71153 36.298965,-2.7043 67.50204,-43.96357 39.99472,46.52605 57.95221,37.06399 74.45923,50.47501 13.49948,-44.00335 1.6809,-84.36205 -4.23154,-95.26297 58.63773,31.85702 73.89747,-5.37405 97.47373,-2.77408 -7.75737,-22.48117 -9.6239,-35.89303 -61.36436,-59.49962 61.53437,-38.36427 41.82394,-54.00206 58.93176,-74.41874 C 252.29902,87.553211 218.68496,91.398988 190.34599,94.570443 209.2494,66.693213 201.77407,44.804359 207.29109,19.007902 146.4401,17.854492 110.50192,67.434708 111.73196,70.036509 104.56272,51.065744 59.312919,17.883996 17.822536,19.197154 Z" /><path
       id="path36"
       style="display:inline;fill:#523d14;fill-opacity:1;stroke:#523d14;stroke-width:0.5;stroke-linecap:round;stroke-linejoin:round;stroke-dasharray:none;stroke-opacity:1"
       d="m 188.63226,52.991582 c -0.25307,-0.0036 -0.4984,0.0055 -0.73237,0.02791 -0.91845,0.0879 -1.37366,0.132981 -1.72513,0.202601 -0.58575,0.116037 -0.88302,0.30022 -2.55449,0.865954 -2.27635,0.770473 -4.93194,3.048463 -6.49047,5.522298 -0.62661,0.994629 -0.10871,1.292207 0.91028,0.569431 3.39593,-2.408775 7.27981,-5.033246 11.53566,-4.235577 -2.02943,1.000612 -4.18995,2.986145 -5.5343,5.120046 -0.62662,0.994632 -0.1087,1.292467 0.91028,0.569699 3.95101,-2.802487 8.56179,-5.901616 13.65134,-3.557466 0.84941,0.391228 2.6142,0.885443 3.02907,0.12156 0.0402,-0.07396 0.0718,-0.153456 0.0952,-0.238022 0.5548,-2.004744 -4.04187,-3.761669 -6.9158,-3.486624 -0.43283,0.04143 -0.73943,0.07227 -1.00415,0.101704 -1.25488,-0.920359 -3.40363,-1.558394 -5.17511,-1.583511 z m -85.25245,1.567679 c -1.8363,0.0035 -3.421716,0.5229 -3.501338,1.692997 -0.0059,0.08774 -0.0024,0.173632 0.01089,0.257344 0.137268,0.864657 1.958928,1.025172 2.886448,0.958265 5.55748,-0.400895 8.86512,4.14335 11.65105,8.175437 0.71851,1.039889 1.30377,0.943373 1.04384,-0.213066 -0.55764,-2.481043 -1.9312,-5.111435 -3.50729,-6.77011 4.26275,0.757116 7.04436,4.598176 9.43889,8.063807 0.71851,1.039894 1.3035,0.943369 1.04358,-0.213067 -0.64649,-2.876285 -2.38865,-5.956751 -4.27287,-7.486594 -1.38354,-1.123322 -1.60183,-1.401816 -2.11387,-1.71822 -0.30722,-0.189843 -0.72001,-0.393275 -1.55395,-0.801014 -1.69956,-0.830953 -4.37004,-1.11019 -6.06542,-0.62954 -0.23902,-0.121376 -0.517,-0.258932 -0.91002,-0.451091 -1.14167,-0.558192 -2.72171,-0.867811 -4.14994,-0.865148 z m -19.994506,34.36872 c -0.357537,0.01527 -0.810775,0.07895 -1.724345,0.210383 -1.861818,0.267862 -4.243875,1.547571 -5.407994,2.910485 -0.264233,0.0339 -0.569724,0.07625 -1.000267,0.138198 -2.858687,0.411281 -6.946073,3.207858 -5.963497,5.028544 0.04144,0.0768 0.0898,0.1468 0.145232,0.209306 0.572495,0.64567 2.181589,-0.252423 2.922228,-0.834018 4.437741,-3.484793 9.610525,-1.557127 14.075613,0.237753 1.151567,0.462908 1.590208,0.05068 0.76064,-0.769617 -1.779759,-1.759868 -4.321341,-3.182495 -6.51796,-3.677149 3.967365,-1.782181 8.327779,-0.14464 12.165581,1.398085 1.151566,0.462907 1.589952,0.05068 0.760384,-0.769619 -2.063278,-2.040218 -5.151441,-3.630469 -7.537684,-3.842718 -1.75215,-0.155848 -2.082031,-0.26507 -2.677931,-0.239633 z m 132.511766,0.236145 c -2.33829,0.0416 -5.34076,1.162972 -7.49983,2.798046 -0.92594,0.701247 -0.54319,1.169109 0.65691,0.865685 3.99957,-1.011181 8.52935,-2.045706 12.23795,0.257077 -2.24024,0.19374 -4.93963,1.260878 -6.92616,2.765308 -0.92595,0.70126 -0.54294,1.169106 0.65716,0.865686 4.65331,-1.176445 10.02493,-2.388735 13.9851,1.665627 0.66093,0.676649 2.14299,1.784335 2.79204,1.221511 0.0628,-0.0545 0.11961,-0.117285 0.17038,-0.187845 1.20386,-1.672389 -2.4957,-4.99731 -5.27806,-5.79118 -0.41904,-0.119557 -0.71663,-0.202794 -0.97433,-0.272103 -0.98222,-1.508481 -3.18252,-3.09893 -4.99461,-3.615967 -0.88918,-0.253705 -1.33055,-0.377989 -1.68311,-0.441428 -0.58758,-0.105698 -0.92836,-0.04211 -2.68519,-0.124245 -0.14954,-0.007 -0.30237,-0.0089 -0.45825,-0.0062 z M 84.911774,147.31424 c -2.577034,0.0179 -5.368371,0.77695 -7.098364,2.00079 -1.451771,1.02699 -1.773933,1.15848 -2.219683,1.56848 -0.267451,0.246 -0.579354,0.59222 -1.206187,1.29236 -1.277445,1.42684 -2.338716,3.97789 -2.406145,5.79547 -0.183817,0.19932 -0.394427,0.43216 -0.689841,0.7621 -1.961429,2.19083 -3.414689,7.03305 -1.540213,7.79895 0.07907,0.0323 0.159261,0.0547 0.240407,0.0668 0.838192,0.12486 1.534531,-1.6244 1.752097,-2.55976 1.303596,-5.60442 6.487199,-7.50037 11.041866,-9.03548 1.174669,-0.3959 1.262029,-1.00212 0.118003,-1.09378 -2.454407,-0.19667 -5.292094,0.36665 -7.295207,1.4225 1.981049,-3.97827 6.358396,-5.56659 10.273191,-6.88603 1.174676,-0.39592 1.261766,-1.00212 0.117741,-1.09378 -0.355678,-0.0285 -0.71952,-0.0412 -1.087665,-0.0387 z m 133.132876,0.003 c -1.14742,-0.006 -1.10872,0.60591 0.0307,1.10022 3.79697,1.64735 8.03387,3.60203 9.69278,7.73508 -1.91264,-1.22234 -4.69628,-2.02493 -7.15801,-2.03729 -1.14744,-0.006 -1.10843,0.60619 0.0309,1.10049 4.41758,1.91662 9.43342,4.24603 10.28822,9.94224 0.14267,0.95066 0.69781,2.7531 1.54308,2.69982 0.0818,-0.006 0.16371,-0.0207 0.24507,-0.0462 1.92888,-0.60417 0.86434,-5.55338 -0.91676,-7.90334 -0.26826,-0.35391 -0.45969,-0.60395 -0.62708,-0.8182 0.0769,-1.81717 -0.77831,-4.44958 -1.9383,-5.98009 -0.5692,-0.75098 -0.85255,-1.12242 -1.0996,-1.3903 h -2.6e-4 c -0.41173,-0.44645 -0.72224,-0.60497 -2.08767,-1.75176 -1.85957,-1.56182 -5.14905,-2.6364 -8.00294,-2.65072 z m -97.74402,44.20797 c -0.15951,-3.2e-4 -0.38973,0.0984 -0.68025,0.31585 -2.31225,1.73091 -4.38193,4.58615 -5.01509,6.9762 -0.4649,1.75497 -0.62833,2.0711 -0.71189,2.68212 l -2.6e-4,-2.6e-4 c -0.0501,0.36662 -0.0715,0.83932 -0.11177,1.79282 -0.082,1.94315 0.7039,4.5989 1.78892,6.03001 -0.0156,0.27503 -0.0306,0.59343 -0.0495,1.04278 -0.12589,2.9836 1.79334,7.64887 3.70154,6.97809 0.0804,-0.0286 0.15584,-0.065 0.22537,-0.10976 0.71722,-0.46589 0.15439,-2.26576 -0.26453,-3.12462 -2.51004,-5.14622 0.25725,-10.06211 2.77051,-14.28167 0.64819,-1.08823 0.33579,-1.60912 -0.59388,-0.91317 -1.99452,1.49306 -3.80624,3.82224 -4.67354,5.96828 -0.97676,-4.3597 1.3681,-8.50114 3.5283,-12.1279 0.44562,-0.74818 0.43702,-1.22804 0.0861,-1.22877 z m 65.76755,0.52516 c -0.2703,0.0341 -0.31136,0.49149 -0.0164,1.22983 1.57308,3.93701 3.249,8.4126 1.61231,12.55511 -0.52515,-2.26176 -1.95433,-4.86025 -3.69298,-6.66357 -0.8104,-0.84055 -1.19945,-0.3779 -0.72744,0.80343 1.83019,4.58053 3.80407,9.89019 0.53241,14.5559 -0.54602,0.77869 -1.37917,2.46254 -0.74301,3.04092 0.0616,0.0559 0.13005,0.10453 0.20515,0.14571 1.78028,0.97731 4.39465,-3.31102 4.73059,-6.27716 0.0506,-0.44672 0.0849,-0.76363 0.11204,-1.0377 1.29184,-1.23356 2.47704,-3.72521 2.69583,-5.65701 0.10736,-0.94791 0.15906,-1.41834 0.16623,-1.78853 0.0118,-0.61698 -0.10092,-0.9558 -0.28916,-2.76503 -0.25637,-2.464 -1.85915,-5.62463 -3.87478,-7.71523 -0.3039,-0.3152 -0.54867,-0.44712 -0.71084,-0.42667 z"
       inkscape:label="first layer creases" /><path
       id="path47"
       style="display:inline;fill:#523d14;fill-opacity:1;stroke:#523d14;stroke-width:0.5;stroke-linecap:round;stroke-linejoin:round;stroke-dasharray:none;stroke-opacity:1"
       d="m 170.95608,100.82448 c -0.11098,-0.008 -0.21886,-0.0108 -0.32209,-0.007 -0.40527,0.0133 -0.60617,0.0205 -0.76218,0.0408 -0.25997,0.0339 -0.39506,0.10422 -1.14283,0.30042 -1.01839,0.26721 -2.24131,1.16378 -2.98772,2.1721 -0.3001,0.4054 -0.0804,0.54514 0.38505,0.26528 1.5511,-0.93268 3.32175,-1.94407 5.16916,-1.49452 -0.91585,0.37126 -1.91412,1.15676 -2.55797,2.02652 -0.30011,0.40541 -0.0804,0.54525 0.38507,0.2654 1.80462,-1.08513 3.90624,-2.2788 6.08042,-1.15163 0.36286,0.18811 1.12482,0.44384 1.32616,0.13075 0.0196,-0.0303 0.0355,-0.0632 0.0477,-0.0984 0.29412,-0.83564 -1.67861,-1.70089 -2.94672,-1.6594 -0.19097,0.006 -0.3263,0.0113 -0.44323,0.0169 -0.5274,-0.4231 -1.4542,-0.74986 -2.23091,-0.80684 z m -37.45043,-1.564476 c -0.80589,-0.04677 -1.51476,0.132269 -1.57927,0.626383 -0.004,0.03707 -0.006,0.07357 -0.002,0.109418 0.0384,0.370255 0.83372,0.485965 1.24243,0.481845 2.44889,-0.0247 3.78553,1.98887 4.90617,3.7716 0.28901,0.45976 0.5483,0.43414 0.46345,-0.0631 -0.18203,-1.06671 -0.71829,-2.21809 -1.36801,-2.96269 1.85147,0.43253 2.97504,2.13413 3.93825,3.66641 0.28903,0.45977 0.54817,0.43413 0.46333,-0.0631 -0.21102,-1.23664 -0.89768,-2.58852 -1.68585,-3.28654 -0.57875,-0.51255 -0.6675,-0.63635 -0.88422,-0.78392 -0.13001,-0.0885 -0.30601,-0.1856 -0.66165,-0.38032 -0.72481,-0.396818 -1.88962,-0.585067 -2.64575,-0.425572 -0.10182,-0.05773 -0.22033,-0.123323 -0.38793,-0.215089 -0.48689,-0.26656 -1.17242,-0.439178 -1.79924,-0.475395 z m -9.64256,14.051776 c -0.15729,-0.003 -0.35777,0.0123 -0.76199,0.0441 -0.82378,0.0649 -1.90143,0.5453 -2.44671,1.09283 -0.11681,0.007 -0.25193,0.0175 -0.44243,0.0324 -1.26485,0.0997 -3.12916,1.1787 -2.74399,1.97649 0.0162,0.0337 0.0357,0.0646 0.0584,0.0926 0.23491,0.28877 0.96371,-0.0501 1.30342,-0.27725 2.03545,-1.36177 4.25668,-0.40902 6.17071,0.46887 0.49364,0.22642 0.69654,0.0631 0.35324,-0.30648 -0.73654,-0.79284 -1.8159,-1.46259 -2.76732,-1.72979 1.786,-0.65203 3.65807,0.15647 5.30322,0.91101 0.49363,0.22639 0.69643,0.0631 0.35311,-0.30649 -0.85385,-0.91915 -2.16883,-1.67427 -3.21061,-1.82668 -0.76494,-0.11191 -0.90694,-0.16686 -1.16908,-0.17164 z m 58.14334,3.56523 c -1.02715,-0.0434 -2.37302,0.35351 -3.36178,0.99043 -0.42405,0.27317 -0.26791,0.48158 0.26639,0.38427 1.78065,-0.32421 3.79457,-0.64447 5.36381,0.42904 -0.98798,0.0235 -2.1995,0.40554 -3.10925,0.99158 -0.42406,0.27315 -0.2678,0.48157 0.2665,0.38429 2.07172,-0.37723 4.45954,-0.75084 6.0949,1.07202 0.27292,0.30423 0.89532,0.81271 1.19435,0.59102 0.029,-0.0213 0.0554,-0.0466 0.0795,-0.0752 0.57054,-0.67772 -0.9689,-2.18445 -2.1698,-2.59385 -0.18087,-0.0616 -0.30937,-0.10474 -0.42068,-0.14088 -0.39291,-0.66537 -1.31827,-1.39737 -2.10039,-1.664 -0.38376,-0.13084 -0.57431,-0.19509 -0.72743,-0.23122 -0.25518,-0.0602 -0.40633,-0.0421 -1.17518,-0.12289 -0.0655,-0.007 -0.13247,-0.0115 -0.20098,-0.0141 z m -58.94887,21.23435 c -1.13132,-0.0597 -2.37541,0.18911 -3.16549,0.66284 -0.66303,0.39755 -0.80772,0.44489 -1.01369,0.60711 -0.12358,0.0973 -0.2692,0.23598 -0.56196,0.5165 -0.59663,0.57168 -1.1268,1.62573 -1.20232,2.39474 -0.0857,0.0797 -0.18401,0.17296 -0.32198,0.30515 -0.91608,0.87776 -1.67617,2.89319 -0.87296,3.267 0.0339,0.0158 0.0685,0.0273 0.10381,0.0346 0.36467,0.0749 0.71444,-0.64872 0.83355,-1.0397 0.71367,-2.34254 3.03627,-3.011 5.07375,-3.54289 0.52548,-0.13718 0.57913,-0.39197 0.0794,-0.46076 -1.07208,-0.14758 -2.33156,0.0171 -3.23725,0.41247 0.96986,-1.63525 2.93088,-2.19434 4.68212,-2.65149 0.52548,-0.13719 0.57902,-0.39198 0.0793,-0.46075 -0.15537,-0.0213 -0.31469,-0.0363 -0.47631,-0.045 z m 58.42181,3.48224 c -0.50336,-0.0325 -0.50184,0.22794 -0.0142,0.46736 1.62459,0.79788 3.43444,1.73759 4.058,3.53364 -0.80844,-0.56835 -2.0097,-0.9815 -3.08963,-1.05111 -0.50339,-0.0325 -0.50174,0.22808 -0.0143,0.46749 1.89012,0.92829 4.03231,2.04727 4.26348,4.4852 0.0385,0.40687 0.23663,1.18574 0.60892,1.18525 0.0361,3.9e-4 0.0724,-0.004 0.1087,-0.0131 0.8617,-0.20577 0.51964,-2.3324 -0.20257,-3.37551 -0.10878,-0.15709 -0.18647,-0.26813 -0.25451,-0.36337 0.0797,-0.76858 -0.2291,-1.90728 -0.69946,-2.58664 -0.23079,-0.33335 -0.34576,-0.49828 -0.44739,-0.61834 l -1.2e-4,-2e-5 c -0.1694,-0.20007 -0.30166,-0.27542 -0.87186,-0.79744 -0.77657,-0.71093 -2.19289,-1.25264 -3.44489,-1.33335 z m -44.00951,16.19116 c -0.07,-0.005 -0.17351,0.0315 -0.30648,0.11615 -1.05843,0.67357 -2.03879,1.83025 -2.37704,2.82723 -0.24834,0.73208 -0.32806,0.86187 -0.38016,1.11879 l -1e-4,-1.2e-4 c -0.0313,0.15416 -0.0526,0.35405 -0.0944,0.75735 -0.0852,0.82187 0.19267,1.96863 0.63264,2.6039 -0.0139,0.11622 -0.0284,0.25086 -0.0482,0.44092 -0.13063,1.26194 0.59368,3.2905 1.44799,3.05595 0.0359,-0.0101 0.07,-0.0235 0.10167,-0.0407 0.32651,-0.17881 0.125,-0.95679 -0.0371,-1.33197 -0.97142,-2.24797 0.36715,-4.26029 1.57665,-5.98393 0.31195,-0.44453 0.18801,-0.67359 -0.23752,-0.40278 -0.91299,0.58101 -1.76686,1.52136 -2.20168,2.40875 -0.31845,-1.87435 0.81518,-3.56927 1.85476,-5.05077 0.21445,-0.30564 0.22281,-0.50935 0.0688,-0.51883 z m 28.84709,1.94246 c -0.11947,0.007 -0.14905,0.20031 -0.0382,0.52111 0.59081,1.71069 1.21315,3.65245 0.39026,5.36636 -0.1733,-0.97285 -0.73479,-2.11217 -1.45219,-2.92236 -0.33439,-0.37763 -0.51679,-0.19161 -0.33952,0.32167 0.68739,1.99032 1.4194,4.29359 -0.13417,6.18661 -0.25931,0.31594 -0.66747,1.0082 -0.40291,1.27011 0.0255,0.0254 0.0544,0.0477 0.0863,0.0672 0.75652,0.46102 2.01215,-1.28916 2.23451,-2.53824 0.0335,-0.1881 0.0566,-0.3216 0.0754,-0.43711 0.59804,-0.48933 1.1811,-1.51495 1.32593,-2.32846 0.0711,-0.39915 0.10563,-0.5973 0.11816,-0.75409 0.0209,-0.26135 -0.0202,-0.40797 -0.057,-1.18013 -0.0503,-1.0516 -0.67371,-2.43383 -1.5054,-3.37307 -0.12539,-0.14164 -0.22947,-0.20397 -0.30115,-0.19953 z"
       inkscape:label="second layer creases" /><path
       id="path53"
       style="display:inline;fill:#523d14;fill-opacity:1;stroke:#523d14;stroke-width:0.499998;stroke-linecap:round;stroke-linejoin:round;stroke-dasharray:none;stroke-opacity:1"
       d="m 179.9934,78.92765 c -0.17774,-0.0076 -0.35033,-0.0067 -0.51523,0.0033 -0.64721,0.04024 -0.96803,0.06115 -1.21644,0.100938 -0.41399,0.06645 -0.62669,0.185124 -1.81284,0.533835 -1.61546,0.474892 -3.52836,1.965576 -4.67438,3.612573 -0.46075,0.662194 -0.10304,0.875292 0.62797,0.406086 2.43585,-1.563776 5.21901,-3.263668 8.19328,-2.631491 -1.44666,0.636438 -3.00567,1.939007 -3.9942,3.35971 -0.46074,0.662201 -0.10285,0.875475 0.62798,0.406253 2.834,-1.819379 6.13772,-3.826184 9.66609,-2.125997 0.58888,0.283744 1.81885,0.656901 2.12607,0.14692 0.0298,-0.04939 0.0537,-0.102692 0.0717,-0.159638 0.43105,-1.349745 -2.76304,-2.640654 -4.78825,-2.514911 -0.305,0.01899 -0.5211,0.03343 -0.70772,0.04771 -0.86294,-0.651726 -2.35979,-1.130725 -3.60411,-1.185419 z M 120.05289,78.1808 c -1.29046,-0.03688 -2.41526,0.282433 -2.49524,1.075402 -0.006,0.05947 -0.005,0.117862 0.003,0.17501 0.0786,0.590151 1.35553,0.737886 2.00868,0.712148 3.91359,-0.154179 6.14458,3.002361 8.0195,5.799968 0.48356,0.721514 0.89682,0.668399 0.73792,-0.122485 -0.34093,-1.696869 -1.25213,-3.512501 -2.32563,-4.672493 2.97997,0.604777 4.85578,3.272564 6.46728,5.677156 0.48356,0.721514 0.89663,0.668392 0.73772,-0.122477 -0.39523,-1.967214 -1.55621,-4.096335 -2.84888,-5.175364 -0.94914,-0.792322 -1.09684,-0.986099 -1.45016,-1.211856 -0.21202,-0.135479 -0.49791,-0.282408 -1.07556,-0.577038 -1.17723,-0.600459 -3.04809,-0.846856 -4.24933,-0.55645 -0.1655,-0.08747 -0.35799,-0.186839 -0.63024,-0.325687 -0.7908,-0.403363 -1.89476,-0.647224 -2.89845,-0.675758 z m -14.75624,22.91682 c -0.25156,0.003 -0.57133,0.0369 -1.21606,0.10617 -1.3138,0.14234 -3.01402,0.96088 -3.86004,1.86175 -0.1864,0.0174 -0.401928,0.0398 -0.705747,0.0726 -2.017283,0.21861 -4.946993,2.03104 -4.293916,3.28846 0.02747,0.0531 0.06006,0.10159 0.09779,0.14522 0.38906,0.45068 1.538229,-0.12509 2.070633,-0.50433 3.19003,-2.27242 6.78545,-0.85331 9.88627,0.46057 0.79973,0.33885 1.11644,0.0682 0.55035,-0.50653 -1.21454,-1.23304 -2.97134,-2.25323 -4.50478,-2.63586 2.82452,-1.12608 5.85503,0.0787 8.52024,1.20802 0.79974,0.33886 1.11625,0.0682 0.55012,-0.50652 -1.40798,-1.42948 -3.54543,-2.57512 -5.21792,-2.76998 -1.22807,-0.1431 -1.45762,-0.22432 -1.87691,-0.21969 z m 93.11338,2.97617 c -1.64401,-0.0214 -3.77694,0.67635 -5.32772,1.74094 -0.66507,0.45659 -0.40571,0.78247 0.44384,0.6019 2.83133,-0.60178 6.03573,-1.20812 8.59455,0.43464 -1.57824,0.0839 -3.49708,0.75136 -4.92394,1.73089 -0.66509,0.4566 -0.40552,0.78247 0.44405,0.60191 3.29411,-0.70012 7.09372,-1.4093 9.79336,1.42838 0.45053,0.4736 1.46926,1.25738 1.9369,0.88894 0.0453,-0.0355 0.0864,-0.0772 0.1236,-0.12396 0.88031,-1.11023 -1.65115,-3.44699 -3.59006,-4.04527 -0.29201,-0.0901 -0.49942,-0.15297 -0.67908,-0.2055 -0.65927,-1.04537 -2.17278,-2.17229 -3.43555,-2.56196 -0.61963,-0.19117 -0.92724,-0.28496 -1.1737,-0.33554 -0.41074,-0.0842 -0.6515,-0.0483 -1.88434,-0.14149 -0.10497,-0.008 -0.21227,-0.0132 -0.32192,-0.0138 z m -93.23966,36.70963 c -1.81131,-0.0426 -3.78841,0.4136 -5.02923,1.208 -1.041268,0.66666 -1.270376,0.74911 -1.592017,1.0181 -0.193004,0.1614 -0.41929,0.38988 -0.874147,0.85206 -0.92699,0.94191 -1.725142,2.65193 -1.809856,3.88492 -0.133256,0.13146 -0.286051,0.28511 -0.500409,0.50292 -1.423333,1.44623 -2.543994,4.70398 -1.242492,5.26398 0.05485,0.0237 0.110794,0.0405 0.167578,0.0504 0.586434,0.10263 1.111697,-1.07061 1.283787,-1.70125 1.031142,-3.77857 4.712686,-4.95606 7.944856,-5.90185 0.8336,-0.24394 0.90742,-0.6538 0.10541,-0.74034 -1.7207,-0.1857 -3.726371,0.13656 -5.15566,0.81107 1.473802,-2.65977 4.58245,-3.64546 7.36055,-4.45838 0.83358,-0.24394 0.90722,-0.65379 0.10514,-0.74036 -0.24935,-0.0272 -0.50471,-0.0443 -0.76353,-0.0494 z m 93.55464,2.83046 c -0.80621,-0.0284 -0.79158,0.38796 -6.1e-4,0.74788 2.63436,1.19947 5.57156,2.61705 6.65243,5.45929 -1.31895,-0.8708 -3.25859,-1.47504 -4.9882,-1.53575 -0.80621,-0.0284 -0.79139,0.38814 -6.2e-4,0.74806 3.06497,1.39557 6.54184,3.08417 7.02555,6.97094 0.0806,0.64868 0.43381,1.88462 1.02889,1.8664 0.0576,-0.003 0.11552,-0.0102 0.17318,-0.026 1.36786,-0.36934 0.72142,-3.75324 -0.48193,-5.38707 -0.18123,-0.24608 -0.31065,-0.41995 -0.42384,-0.56901 0.0914,-1.23252 -0.45557,-3.03852 -1.23929,-4.10261 -0.38456,-0.52212 -0.57605,-0.78041 -0.74417,-0.9676 l -1.7e-4,-2e-5 c -0.28016,-0.31192 -0.49512,-0.4262 -1.43106,-1.23407 -1.27466,-1.10022 -3.56419,-1.89994 -5.56937,-1.9703 z m -69.59418,27.94706 c -0.11205,-0.004 -0.2759,0.0586 -0.48451,0.20006 -1.6604,1.12644 -3.17344,3.02161 -3.66747,4.63135 -0.36272,1.18202 -0.48405,1.39327 -0.55532,1.80644 l -1.7e-4,-1.7e-4 c -0.0427,0.24793 -0.0675,0.56851 -0.11582,1.21518 -0.0975,1.31797 0.4002,3.13831 1.13328,4.13333 -0.0167,0.18646 -0.0331,0.40245 -0.0563,0.70715 -0.14979,2.02366 1.10313,5.23289 2.45783,4.81786 0.057,-0.0177 0.11084,-0.0407 0.16062,-0.0698 0.51359,-0.30117 0.15497,-1.53553 -0.12175,-2.12772 -1.65816,-3.54842 0.38741,-6.82825 2.24016,-9.6406 0.47784,-0.7253 0.26902,-1.0857 -0.39857,-0.63282 -1.43225,0.97164 -2.75321,2.51503 -3.40674,3.9541 -0.59686,-2.98168 1.13597,-5.74455 2.72845,-8.16177 0.32848,-0.49865 0.33231,-0.82475 0.0861,-0.83267 z m 46.20517,1.75417 c -0.19068,0.0168 -0.2289,0.32719 -0.0367,0.8349 1.02459,2.70726 2.11038,5.78251 0.87519,8.56114 -0.32262,-1.54724 -1.27353,-3.34239 -2.45829,-4.60408 -0.55222,-0.58806 -0.83512,-0.28215 -0.52769,0.53019 1.19205,3.14978 2.4701,6.79782 0.0753,9.89705 -0.39969,0.51722 -1.01974,1.64313 -0.58457,2.04945 0.0421,0.0395 0.0893,0.0738 0.14117,0.10337 1.23097,0.70156 3.15618,-2.15531 3.45317,-4.16267 0.0446,-0.30231 0.0754,-0.5168 0.1001,-0.70236 0.93313,-0.81032 1.81714,-2.47736 2.01057,-3.78469 0.0949,-0.6415 0.14083,-0.9599 0.15355,-1.21117 0.0209,-0.41878 -0.0505,-0.65132 -0.14641,-1.88403 -0.12957,-1.67889 -1.19095,-3.8595 -2.56445,-5.32216 -0.20708,-0.22054 -0.37638,-0.31534 -0.49073,-0.30488 z"
       inkscape:label="third layer creases" /></g></svg>
