<?xml version="1.0" encoding="UTF-8" standalone="no"?>
<!-- Created with Inkscape (http://www.inkscape.org/) -->

<svg
   width="1000"
   height="1000"
   viewBox="0 0 264.58334 264.58334"
   version="1.1"
   id="svg1"
   inkscape:version="1.4 (86a8ad7, 2024-10-11)"
   sodipodi:docname="gloomForestTreant.svg"
   xml:space="preserve"
   inkscape:export-filename="gloomForestSpecterTreant.png"
   inkscape:export-xdpi="96"
   inkscape:export-ydpi="96"
   xmlns:inkscape="http://www.inkscape.org/namespaces/inkscape"
   xmlns:sodipodi="http://sodipodi.sourceforge.net/DTD/sodipodi-0.dtd"
   xmlns="http://www.w3.org/2000/svg"
   xmlns:svg="http://www.w3.org/2000/svg"><sodipodi:namedview
     id="namedview1"
     pagecolor="#000000"
     bordercolor="#ffffff"
     borderopacity="1"
     inkscape:showpageshadow="0"
     inkscape:pageopacity="0"
     inkscape:pagecheckerboard="1"
     inkscape:deskcolor="#505050"
     inkscape:document-units="px"
     showguides="true"
     inkscape:zoom="0.41804167"
     inkscape:cx="661.41732"
     inkscape:cy="661.41732"
     inkscape:window-width="1366"
     inkscape:window-height="745"
     inkscape:window-x="-8"
     inkscape:window-y="-8"
     inkscape:window-maximized="1"
     inkscape:current-layer="layer1"><inkscape:page
       x="0"
       y="0"
       width="264.58334"
       height="264.58334"
       id="page2"
       margin="0"
       bleed="0" /></sodipodi:namedview><defs
     id="defs1"><inkscape:path-effect
       effect="fillet_chamfer"
       id="path-effect53"
       is_visible="true"
       lpeversion="1"
       nodesatellites_param="F,0,0,1,0,5.7256841,0,1 @ F,0,0,1,0,0,0,1 @ F,0,0,1,0,5.4389754,0,1 @ F,0,0,1,0,0,0,1 @ F,0,0,1,0,5.3359278,0,1 @ F,0,0,1,0,0,0,1 @ F,0,0,1,0,6.1863377,0,1 @ F,0,0,1,0,0,0,1 @ F,0,0,1,0,5.367782,0,1 @ F,0,0,1,0,0,0,1 @ F,0,0,1,0,3.2845681,0,1 @ F,0,0,1,0,0,0,1 @ F,0,0,1,0,6.084035,0,1 @ F,0,0,1,0,0,0,1 @ F,0,0,1,0,8.5848726,0,1 @ F,0,0,1,0,0,0,1"
       radius="0"
       unit="px"
       method="auto"
       mode="F"
       chamfer_steps="1"
       flexible="false"
       use_knot_distance="true"
       apply_no_radius="true"
       apply_with_radius="true"
       only_selected="false"
       hide_knots="false" /><inkscape:path-effect
       effect="fillet_chamfer"
       id="path-effect49"
       is_visible="true"
       lpeversion="1"
       nodesatellites_param="F,0,0,1,0,2.9677153,0,1 @ F,0,0,1,0,0,0,1 @ F,0,0,1,0,2.9853553,0,1 @ F,0,0,1,0,2.9853553,0,1 @ F,0,0,1,0,3.996012,0,1 @ F,0,0,1,0,3.996012,0,1 @ F,0,0,1,0,3.5274258,0,1 @ F,0,0,1,0,0,0,1 @ F,0,0,1,0,3.3728948,0,1 @ F,0,0,1,0,0,0,1 @ F,0,0,1,0,4.0254748,0,1 @ F,0,0,1,0,0,0,1 @ F,0,0,1,0,4.0986426,0,1 @ F,0,0,1,0,0,0,1 @ F,0,0,1,0,4.0417498,0,1 @ F,0,0,1,0,0,0,1 @ F,0,0,1,0,0,0,1 @ F,0,0,1,0,0,0,1 @ F,0,0,1,0,0,0,1"
       radius="0"
       unit="px"
       method="auto"
       mode="F"
       chamfer_steps="1"
       flexible="false"
       use_knot_distance="true"
       apply_no_radius="true"
       apply_with_radius="true"
       only_selected="false"
       hide_knots="false" /><inkscape:path-effect
       effect="fillet_chamfer"
       id="path-effect47"
       is_visible="true"
       lpeversion="1"
       nodesatellites_param="F,0,0,1,0,5.7256841,0,1 @ F,0,0,1,0,0,0,1 @ F,0,0,1,0,5.4389754,0,1 @ F,0,0,1,0,0,0,1 @ F,0,0,1,0,5.3359278,0,1 @ F,0,0,1,0,0,0,1 @ F,0,0,1,0,6.1863377,0,1 @ F,0,0,1,0,0,0,1 @ F,0,0,1,0,5.367782,0,1 @ F,0,0,1,0,0,0,1 @ F,0,0,1,0,3.2845681,0,1 @ F,0,0,1,0,0,0,1 @ F,0,0,1,0,6.084035,0,1 @ F,0,0,1,0,0,0,1 @ F,0,0,1,0,8.5848726,0,1 @ F,0,0,1,0,0,0,1"
       radius="0"
       unit="px"
       method="auto"
       mode="F"
       chamfer_steps="1"
       flexible="false"
       use_knot_distance="true"
       apply_no_radius="true"
       apply_with_radius="true"
       only_selected="false"
       hide_knots="false" /><inkscape:path-effect
       effect="fillet_chamfer"
       id="path-effect45"
       is_visible="true"
       lpeversion="1"
       nodesatellites_param="F,0,0,1,0,2.9677153,0,1 @ F,0,0,1,0,0,0,1 @ F,0,0,1,0,2.9853553,0,1 @ F,0,0,1,0,0,0,1 @ F,0,0,1,0,0,0,1 @ F,0,0,1,0,0,0,1 @ F,0,0,1,0,2.9853553,0,1 @ F,0,0,1,0,3.996012,0,1 @ F,0,0,1,0,3.996012,0,1 @ F,0,0,1,0,3.5274258,0,1 @ F,0,0,1,0,0,0,1 @ F,0,0,1,0,0,0,1 @ F,0,0,1,0,0,0,1 @ F,0,0,1,0,0,0,1 @ F,0,0,1,0,0,0,1 @ F,0,0,1,0,3.3728948,0,1 @ F,0,0,1,0,0,0,1 @ F,0,0,1,0,4.0254748,0,1 @ F,0,0,1,0,0,0,1 @ F,0,0,1,0,0,0,1 @ F,0,0,1,0,0,0,1 @ F,0,0,1,0,0,0,1 @ F,0,0,1,0,4.0986426,0,1 @ F,0,0,1,0,0,0,1 @ F,0,0,1,0,4.0417498,0,1"
       radius="0"
       unit="px"
       method="auto"
       mode="F"
       chamfer_steps="1"
       flexible="false"
       use_knot_distance="true"
       apply_no_radius="true"
       apply_with_radius="true"
       only_selected="false"
       hide_knots="false" /><inkscape:path-effect
       effect="fillet_chamfer"
       id="path-effect39"
       is_visible="true"
       lpeversion="1"
       nodesatellites_param="F,0,0,1,0,2.9677153,0,1 @ F,0,0,1,0,0,0,1 @ F,0,0,1,0,2.9853553,0,1 @ F,0,0,1,0,0,0,1 @ F,0,0,1,0,0,0,1 @ F,0,0,1,0,0,0,1 @ F,0,0,1,0,0,0,1 @ F,0,0,1,0,0,0,1 @ F,0,0,1,0,0,0,1 @ F,0,0,1,0,0,0,1 @ F,0,0,1,0,2.9853553,0,1 @ F,0,0,1,0,3.996012,0,1 @ F,0,0,1,0,3.996012,0,1 @ F,0,0,1,0,0,0,1 @ F,0,0,1,0,0,0,1 @ F,0,0,1,0,0,0,1 @ F,0,0,1,0,3.5274258,0,1 @ F,0,0,1,0,0,0,1 @ F,0,0,1,0,0,0,1 @ F,0,0,1,0,0,0,1 @ F,0,0,1,0,0,0,1 @ F,0,0,1,0,3.3728948,0,1 @ F,0,0,1,0,0,0,1 @ F,0,0,1,0,4.0254748,0,1 @ F,0,0,1,0,0,0,1 @ F,0,0,1,0,0,0,1 @ F,0,0,1,0,0,0,1 @ F,0,0,1,0,0,0,1 @ F,0,0,1,0,0,0,1 @ F,0,0,1,0,4.0986426,0,1 @ F,0,0,1,0,0,0,1 @ F,0,0,1,0,0,0,1 @ F,0,0,1,0,0,0,1 @ F,0,0,1,0,0,0,1 @ F,0,0,1,0,0,0,1 @ F,0,0,1,0,0,0,1 @ F,0,0,1,0,0,0,1"
       radius="0"
       unit="px"
       method="auto"
       mode="F"
       chamfer_steps="1"
       flexible="false"
       use_knot_distance="true"
       apply_no_radius="true"
       apply_with_radius="true"
       only_selected="false"
       hide_knots="false" /><inkscape:path-effect
       effect="fillet_chamfer"
       id="path-effect6"
       is_visible="true"
       lpeversion="1"
       nodesatellites_param="F,0,0,1,0,5.7256841,0,1 @ F,0,0,1,0,0,0,1 @ F,0,0,1,0,5.4389754,0,1 @ F,0,0,1,0,0,0,1 @ F,0,0,1,0,5.3359278,0,1 @ F,0,0,1,0,0,0,1 @ F,0,0,1,0,6.1863377,0,1 @ F,0,0,1,0,0,0,1 @ F,0,0,1,0,5.367782,0,1 @ F,0,0,1,0,0,0,1 @ F,0,0,1,0,3.2845681,0,1 @ F,0,0,1,0,0,0,1 @ F,0,0,1,0,6.084035,0,1 @ F,0,0,1,0,0,0,1 @ F,0,0,1,0,8.5848726,0,1 @ F,0,0,1,0,0,0,1"
       radius="0"
       unit="px"
       method="auto"
       mode="F"
       chamfer_steps="1"
       flexible="false"
       use_knot_distance="true"
       apply_no_radius="true"
       apply_with_radius="true"
       only_selected="false"
       hide_knots="false" /><filter
       inkscape:collect="always"
       style="color-interpolation-filters:sRGB"
       id="filter2"
       x="-0.0018680046"
       y="-0.0019423582"
       width="1.003736"
       height="1.0038847"><feGaussianBlur
         inkscape:collect="always"
         stdDeviation="0.25537236"
         id="feGaussianBlur2" /></filter></defs><g
     inkscape:label="body"
     inkscape:groupmode="layer"
     id="layer1"
     style="display:inline"><path
       style="display:inline;fill:#535c60;fill-opacity:1;stroke:#343530;stroke-width:6.17173;stroke-dasharray:none;stroke-opacity:1"
       d="M 72.714723,21.973733 C 89.002058,41.29001 72.051722,54.664051 90.73481,80.905522 63.249798,78.586209 36.252409,82.432984 15.061916,96.463471 c -1.374662,0.910181 -1.456251,2.58336 -0.36383,3.816799 3.93636,4.44449 8.533349,11.70241 8.533349,11.70241 l 14.880383,4.58345 -6.93004,12.19558 c 0,0 15.19815,27.36429 24.645257,36.04496 -4.698545,3.59392 -11.609134,10.72349 -11.609134,10.72349 l 9.763989,8.8969 -21.696426,5.84265 c 0,0 -12.189335,24.78209 -18.115628,38.54061 -0.652088,1.51389 0.176171,2.76555 1.824062,2.81858 32.689617,1.05198 46.850961,11.4928 73.253303,16.40408 2.168995,0.40347 3.932322,2.46394 3.956819,4.67073 0.253273,22.81583 3.079374,39.13434 15.65013,72.34338 0.7813,2.064 2.40178,2.22668 3.7967,0.51774 9.39866,-11.51444 25.58904,-19.43317 25.58904,-19.43317 l 1.06863,-16.3311 16.51081,6.24541 c 0,0 9.99812,-7.16937 16.30669,-13.01574 1.4284,-1.32375 3.67521,-1.41067 5.13269,-0.11802 34.68393,30.76171 44.2425,21.8917 61.88718,47.70484 8.42406,-10.00556 15.01617,-44.13686 15.01617,-44.13686 l -9.77459,-11.85861 11.7669,-4.99039 c 0,0 -1.17716,-14.72602 -2.07492,-22.48311 -0.21389,-1.84816 1.00599,-2.90441 2.82112,-2.4869 32.61777,7.50275 45.67004,-20.68738 80.63832,-10.65142 -8.05119,-23.92931 -15.60492,-51.83189 -41.28337,-65.99962 -1.94585,-1.0736 -2.13824,-2.90904 -0.43875,-4.34183 4.65193,-3.92189 9.52059,-8.77266 9.52059,-8.77266 l -5.99253,-13.31753 15.83979,-1.4872 c 0,0 6.22684,-25.82969 21.12944,-39.58809 -22.24294,-17.455411 -48.02194,-19.587958 -74.71488,-17.760055 8.9591,-22.233463 5.77095,-36.352081 12.78226,-58.580986 0.68085,-2.158609 -0.49312,-4.273963 -2.7367,-4.57016 -20.83828,-2.751061 -52.92904,3.671107 -52.92904,3.671107 l 0.51776,9.312111 -20.29368,-1.645087 c 0,0 -16.24197,11.820887 -28.3846,19.967326 C 164.45601,44.867042 142.1315,33.725582 142.1315,33.725582 l -13.88939,6.753097 -11.21228,-15.042478 c 0,0 -27.226715,-5.263807 -43.332132,-5.656771 -1.637882,-0.03996 -2.039359,0.941464 -0.982975,2.194303 z"
       id="path2"
       sodipodi:nodetypes="cccccccccccccccccccccccccccccccccccccc"
       inkscape:label="first layer"
       inkscape:path-effect="#path-effect39"
       inkscape:original-d="M 70.731194,19.766887 C 90.32819,40.301706 71.348682,53.67659 90.73481,80.905522 62.175082,78.49552 34.141857,82.743244 12.603105,98.156278 c 4.161303,3.615982 10.62833,13.826402 10.62833,13.826402 l 14.880383,4.58345 -6.93004,12.19558 c 0,0 15.19815,27.36429 24.645257,36.04496 -4.698545,3.59392 -11.609134,10.72349 -11.609134,10.72349 l 9.763989,8.8969 -21.696426,5.84265 c 0,0 -13.980751,28.42421 -19.276088,41.29038 36.480692,0.51428 50.339788,12.46818 80.175103,17.14768 -0.02009,25.86387 2.54726,42.34295 17.096141,80.07204 8.70228,-13.22954 27.95927,-22.64815 27.95927,-22.64815 l 1.06863,-16.3311 16.51081,6.24541 c 0,0 13.16994,-9.4438 18.81662,-15.4925 36.83836,33.58091 46.42842,23.61137 64.50994,50.06358 8.42406,-10.00556 15.01617,-44.13686 15.01617,-44.13686 l -9.77459,-11.85861 11.7669,-4.99039 c 0,0 -1.62994,-20.39019 -2.51662,-25.82276 35.05069,10.23932 47.78981,-20.16269 83.90114,-9.79867 -8.41401,-25.00768 -16.28472,-54.3548 -44.86708,-67.82972 5.27044,-3.91645 12.66555,-11.28439 12.66555,-11.28439 l -5.99253,-13.31753 15.83979,-1.4872 c 0,0 6.22684,-25.82969 21.12944,-39.58809 -22.24294,-17.455411 -48.02194,-19.587958 -74.71488,-17.760055 9.47007,-23.501524 5.36777,-37.936164 14.08558,-62.466545 -20.41487,-4.328907 -56.96906,2.986506 -56.96906,2.986506 l 0.51776,9.312111 -20.29368,-1.645087 c 0,0 -16.24197,11.820887 -28.3846,19.967326 C 164.45601,44.867042 142.1315,33.725582 142.1315,33.725582 l -13.88939,6.753097 -11.21228,-15.042478 c 0,0 -30.851162,-5.96453 -46.298636,-5.669314 z"
       transform="matrix(0.79700218,0,0,0.82350524,-6.0279258,-8.926131)" /><path
       style="display:inline;fill:#808285;fill-opacity:1;stroke:none;stroke-width:6.31615;stroke-dasharray:none;stroke-opacity:1;filter:url(#filter2)"
       d="m 18.522182,24.876991 c 1.221852,17.05551 -4.050811,33.418283 30.553442,73.145926 -27.368705,-7.582882 -56.7123019,-13.760026 -92.307527,4.312503 -2.678208,1.35979 -2.906587,4.11515 -0.863639,6.31493 17.122122,18.43652 7.552638,40.40881 48.0322606,69.19175 -24.3869966,18.65361 -43.6704746,36.97905 -53.3213916,56.27218 -1.318096,2.63501 0.178607,4.86706 3.116036,5.09739 32.176347,2.52309 42.5088522,23.05495 79.167541,19.86145 -1.742816,28.74418 -2.195316,40.21476 8.557174,65.74978 1.325844,3.14861 4.204716,3.47489 6.842907,1.31173 15.659487,-12.83984 34.628823,-1.92064 63.126695,-39.60287 36.4773,42.43421 54.62314,38.29526 70.05633,47.41373 2.54985,1.50654 5.11834,0.76585 5.87684,-2.09982 11.10721,-41.9639 -0.025,-79.62865 -5.70548,-90.10187 55.87798,30.35769 72.365,-2.02257 94.1948,-2.88785 1.81057,-0.0718 2.80033,-1.27673 2.21933,-2.99519 -6.98303,-20.65425 -10.99388,-33.89257 -60.30476,-56.39066 56.48508,-35.21623 44.51163,-51.28267 55.39883,-69.47411 1.72357,-2.87992 1.3305,-6.56152 -1.58226,-8.23382 -23.84058,-13.687547 -54.82701,-10.146895 -81.23332,-7.191727 16.80368,-24.780715 12.76329,-44.829509 15.5336,-67.097447 0.58515,-4.70343 -2.43776,-8.574215 -7.16941,-8.291803 -55.63136,3.320401 -88.14927,48.378282 -86.97822,50.855316 -6.84067,-18.101315 -48.351337,-49.140854 -88.185119,-50.807226 -3.158733,-0.13214 -5.250504,2.495191 -5.024659,5.647708 z"
       id="path3"
       sodipodi:nodetypes="ccccccccccccccccc"
       inkscape:label="first layer highlight"
       transform="matrix(0.63000432,0,0,0.63000432,60.988537,20.820504)"
       inkscape:path-effect="#path-effect6"
       inkscape:original-d="m 17.822536,19.197154 c 3.561917,19.42122 -7.15391,34.732353 31.253088,78.825763 -28.588468,-7.920834 -59.331783,-14.307837 -97.10436,6.875383 22.607,19.2007 8.703916,42.18279 51.9654546,72.9438 -26.4232906,20.21117 -46.8552006,40.03708 -55.5348076,61.12606 36.480692,0.51428 45.8875738,23.4684 84.496993,20.10496 -1.866756,30.78832 -2.25315,41.75887 11.024736,71.42221 16.519309,-19.71153 36.298965,-2.7043 67.50204,-43.96357 39.99472,46.52605 57.95221,37.06399 74.45923,50.47501 13.49948,-44.00335 1.6809,-84.36205 -4.23154,-95.26297 58.63773,31.85702 73.89747,-5.37405 97.47373,-2.77408 -7.75737,-22.48117 -9.6239,-35.89303 -61.36436,-59.49962 61.53437,-38.36427 41.82394,-54.00206 58.93176,-74.41874 C 252.29902,87.553211 218.68496,91.398988 190.34599,94.570443 209.2494,66.693213 201.77407,44.804359 207.29109,19.007902 146.4401,17.854492 110.50192,67.434708 111.73196,70.036509 104.56272,51.065744 59.312919,17.883996 17.822536,19.197154 Z" /><path
       style="display:inline;fill:#2c3340;fill-opacity:0.545098;stroke:#343530;stroke-width:5.34972;stroke-linecap:round;stroke-linejoin:round;stroke-dasharray:none;stroke-opacity:1"
       id="path54"
       sodipodi:type="arc"
       sodipodi:cx="132.29167"
       sodipodi:cy="70.166351"
       sodipodi:rx="49.465271"
       sodipodi:ry="49.465271"
       sodipodi:start="0"
       sodipodi:end="6.2777945"
       sodipodi:arc-type="arc"
       d="m 181.75694,70.166351 a 49.465271,49.465271 0 0 1 -49.3986,49.465229 49.465271,49.465271 0 0 1 -49.53176,-49.3319 49.465271,49.465271 0 0 1 49.2651,-49.598195 49.465271,49.465271 0 0 1 49.66454,49.19821"
       sodipodi:open="true"
       inkscape:label="core body" /><path
       id="path55-8-8"
       style="display:inline;fill:#d0af7a;fill-opacity:1;stroke:none;stroke-width:5.15261;stroke-linecap:round;stroke-linejoin:round;stroke-dasharray:none;stroke-opacity:1"
       d="m 116.21568,35.542194 c -6.17676,0.0798 -13.91909,3.771058 -13.86951,12.826475 0.0104,1.888927 1.81364,2.938406 3.61407,2.358735 11.74996,-3.78304 13.52336,-4.621148 18.67706,-5.622204 0.92043,-0.178788 1.7108,-1.072186 1.64001,-2.006678 -0.3716,-4.905318 -3.31847,-6.676605 -7.53782,-7.374698 -0.79121,-0.130907 -1.64142,-0.19303 -2.52381,-0.18163 z m 32.59963,0 c -0.8824,-0.01141 -1.73309,0.05072 -2.5243,0.18163 -4.21937,0.698093 -7.16622,2.46938 -7.53782,7.374698 -0.0708,0.934492 0.72005,1.82789 1.6405,2.006678 5.15369,1.001056 6.92661,1.839164 18.67656,5.622204 1.80043,0.579671 3.60421,-0.469808 3.61454,-2.358735 0.0496,-9.055417 -7.69273,-12.746673 -13.86948,-12.826475 z"
       inkscape:label="eyes" /><path
       style="display:inline;fill:#535c60;fill-opacity:1;stroke:#343530;stroke-width:8.77119;stroke-dasharray:none;stroke-opacity:1"
       d="M 72.714723,21.973733 C 89.002058,41.29001 72.051722,54.664051 90.73481,80.905522 63.249798,78.586209 36.252409,82.432984 15.061916,96.463471 c -1.374662,0.910181 -1.444313,2.568395 -0.316511,3.770129 7.2237,7.69724 13.678111,21.25598 13.678111,21.25598 l 20.064128,7.68915 -9.099129,14.5359 c 0,0 7.988878,12.15753 14.332004,18.97879 1.122196,1.20678 1.041854,2.92185 -0.238855,3.96014 -23.080685,18.71177 -31.098234,41.54133 -38.971504,61.20383 -0.820238,2.04844 0.288517,3.72228 2.493762,3.80725 31.974318,1.23201 46.114455,11.50798 72.243279,16.36838 2.168995,0.40347 3.932322,2.46394 3.956819,4.67073 0.254384,22.91595 3.104227,39.27744 15.81619,72.78156 0.69108,1.82144 2.121,1.96597 3.33485,0.44308 9.7125,-12.1853 27.08843,-20.37044 27.08843,-20.37044 l 7.79579,-18.1308 14.75018,4.25815 c 0,0 8.8292,-7.04273 12.64649,-11.13179 36.83836,33.58091 46.42842,23.61137 64.50994,50.06358 20.72734,-24.61861 17.38157,-66.61976 14.99868,-83.47413 -0.26077,-1.8444 0.94087,-2.89925 2.756,-2.48174 32.61777,7.50275 45.67004,-20.68738 80.63832,-10.65142 -8.05119,-23.92931 -15.60492,-51.83189 -41.28337,-65.99962 -1.94585,-1.0736 -2.13197,-2.90203 -0.44591,-4.35041 8.14399,-6.99593 15.65206,-16.74276 15.65206,-16.74276 l -10.52544,-22.98404 21.84908,-4.21984 c 0,0 6.33656,-12.57028 13.52875,-19.21026 -21.1045,-16.562041 -45.39235,-19.329561 -70.6238,-18.008116 -2.26049,0.118389 -3.39613,-1.45132 -2.63567,-3.583214 7.59892,-21.303073 4.39604,-35.465908 12.63017,-58.63531 -54.10649,-11.4731032 -76.58572,10.740106 -101.79558,28.336575 -1.83028,1.277535 -4.6169,1.002869 -6.33441,-0.421821 C 149.929,33.570173 110.45837,19.791205 73.698736,19.740763 c -1.63899,-0.0022 -2.040397,0.980131 -0.984013,2.23297 z"
       id="path43"
       sodipodi:nodetypes="cccccccccccccccccccccccccc"
       inkscape:label="second layer"
       inkscape:path-effect="#path-effect45"
       inkscape:original-d="M 70.731194,19.766887 C 90.32819,40.301706 71.348682,53.67659 90.73481,80.905522 62.175082,78.49552 34.141857,82.743244 12.603105,98.156278 c 8.037838,6.984502 15.820411,23.333302 15.820411,23.333302 l 20.064128,7.68915 -9.099129,14.5359 c 0,0 9.930026,15.11158 16.43852,21.09204 -26.42329,20.21117 -34.138052,45.66448 -42.817659,66.75346 36.480692,0.51428 50.339788,12.46818 80.175103,17.14768 -0.02009,25.86387 2.54726,42.34295 17.096141,80.07204 9.03984,-13.74271 29.16287,-23.2219 29.16287,-23.2219 l 7.79579,-18.1308 14.75018,4.25815 c 0,0 8.8292,-7.04273 12.64649,-11.13179 36.83836,33.58091 46.42842,23.61137 64.50994,50.06358 22.27358,-26.45514 16.74842,-72.983 14.49186,-86.80862 35.05069,10.23932 47.78981,-20.16269 83.90114,-9.79867 -8.41401,-25.00768 -16.28472,-54.3548 -44.86708,-67.82972 9.24108,-6.86702 18.78986,-19.26307 18.78986,-19.26307 l -10.52544,-22.98404 21.84908,-4.21984 c 0,0 6.33656,-12.57028 13.52875,-19.21026 C 314.07112,83.047419 288.29212,80.914872 261.59918,82.742775 271.06925,59.241251 266.96695,44.806611 275.68476,20.27623 219.20641,8.3001817 197.18898,33.028586 170.55518,50.897086 154.39746,34.922481 110.56594,19.005607 70.731194,19.766887 Z"
       transform="matrix(0.56996099,0.01245994,-0.01246209,0.56986262,34.9578,30.962776)" /><path
       style="display:inline;fill:#808285;fill-opacity:1;stroke:none;stroke-width:6.18527;stroke-dasharray:none;stroke-opacity:1;filter:url(#filter2)"
       d="m 18.522182,24.876991 c 1.221852,17.05551 -4.050811,33.418283 30.553442,73.145926 -27.368705,-7.582882 -56.7123019,-13.760026 -92.307527,4.312503 -2.678208,1.35979 -2.906587,4.11515 -0.863639,6.31493 17.122122,18.43652 7.552638,40.40881 48.0322606,69.19175 -24.3869966,18.65361 -43.6704746,36.97905 -53.3213916,56.27218 -1.318096,2.63501 0.178607,4.86706 3.116036,5.09739 32.176347,2.52309 42.5088522,23.05495 79.167541,19.86145 -1.742816,28.74418 -2.195316,40.21476 8.557174,65.74978 1.325844,3.14861 4.204716,3.47489 6.842907,1.31173 15.659487,-12.83984 34.628823,-1.92064 63.126695,-39.60287 36.4773,42.43421 54.62314,38.29526 70.05633,47.41373 2.54985,1.50654 5.11834,0.76585 5.87684,-2.09982 11.10721,-41.9639 -0.025,-79.62865 -5.70548,-90.10187 55.87798,30.35769 72.365,-2.02257 94.1948,-2.88785 1.81057,-0.0718 2.80033,-1.27673 2.21933,-2.99519 -6.98303,-20.65425 -10.99388,-33.89257 -60.30476,-56.39066 56.48508,-35.21623 44.51163,-51.28267 55.39883,-69.47411 1.72357,-2.87992 1.3305,-6.56152 -1.58226,-8.23382 -23.84058,-13.687547 -54.82701,-10.146895 -81.23332,-7.191727 16.80368,-24.780715 12.76329,-44.829509 15.5336,-67.097447 0.58515,-4.70343 -2.43776,-8.574215 -7.16941,-8.291803 -55.63136,3.320401 -88.14927,48.378282 -86.97822,50.855316 -6.84067,-18.101315 -48.351337,-49.140854 -88.185119,-50.807226 -3.158733,-0.13214 -5.250504,2.495191 -5.024659,5.647708 z"
       id="path45"
       sodipodi:nodetypes="ccccccccccccccccc"
       inkscape:label="second layer highlight"
       transform="matrix(0.43355535,0.00439974,-0.00439974,0.43355535,83.235669,50.944177)"
       inkscape:path-effect="#path-effect47"
       inkscape:original-d="m 17.822536,19.197154 c 3.561917,19.42122 -7.15391,34.732353 31.253088,78.825763 -28.588468,-7.920834 -59.331783,-14.307837 -97.10436,6.875383 22.607,19.2007 8.703916,42.18279 51.9654546,72.9438 -26.4232906,20.21117 -46.8552006,40.03708 -55.5348076,61.12606 36.480692,0.51428 45.8875738,23.4684 84.496993,20.10496 -1.866756,30.78832 -2.25315,41.75887 11.024736,71.42221 16.519309,-19.71153 36.298965,-2.7043 67.50204,-43.96357 39.99472,46.52605 57.95221,37.06399 74.45923,50.47501 13.49948,-44.00335 1.6809,-84.36205 -4.23154,-95.26297 58.63773,31.85702 73.89747,-5.37405 97.47373,-2.77408 -7.75737,-22.48117 -9.6239,-35.89303 -61.36436,-59.49962 61.53437,-38.36427 41.82394,-54.00206 58.93176,-74.41874 C 252.29902,87.553211 218.68496,91.398988 190.34599,94.570443 209.2494,66.693213 201.77407,44.804359 207.29109,19.007902 146.4401,17.854492 110.50192,67.434708 111.73196,70.036509 104.56272,51.065744 59.312919,17.883996 17.822536,19.197154 Z" /><path
       style="display:inline;fill:#535c60;fill-opacity:1;stroke:#343530;stroke-width:13.628;stroke-dasharray:none;stroke-opacity:1"
       d="M 72.714723,21.973733 C 89.002058,41.29001 72.051722,54.664051 90.73481,80.905522 63.249798,78.586209 36.252409,82.432984 15.061916,96.463471 c -1.374662,0.910181 -1.442517,2.563067 -0.263259,3.715029 17.384927,16.98247 14.359358,38.70363 38.859935,62.57681 1.180734,1.1505 1.103781,2.85996 -0.176928,3.89825 -23.080685,18.71177 -31.098234,41.54133 -38.971504,61.20383 -0.820238,2.04844 0.288517,3.72228 2.493762,3.80725 31.974318,1.23201 46.114455,11.50798 72.243279,16.36838 2.168995,0.40347 3.932322,2.46394 3.956819,4.67073 0.254384,22.91595 3.104227,39.27744 15.81619,72.78156 0.69108,1.82144 2.11958,1.96789 3.27069,0.39646 16.92717,-23.10797 35.14641,-16.19322 62.34505,-45.32826 35.49427,32.35567 45.69233,24.2809 62.56294,47.30973 1.10076,1.50258 2.92854,1.60392 4.03617,0.10658 19.82793,-26.80431 14.58575,-70.78608 12.40269,-84.16135 33.75797,9.86168 46.81978,-17.97542 79.9987,-10.78312 2.17232,0.4709 3.32847,-0.72398 2.62928,-2.83438 -7.98851,-24.11211 -16.45481,-51.21638 -43.59392,-64.01089 32.64578,-24.25898 20.98645,-42.06692 40.72083,-62.80392 1.5601,-1.63936 1.48359,-4.015656 -0.36379,-5.323365 -21.4789,-15.204303 -46.04088,-17.048617 -71.42967,-15.31002 8.96638,-22.251546 5.76575,-36.375041 12.79938,-58.635239 0.67249,-2.128307 -0.48359,-4.215376 -2.68829,-4.563009 -26.42267,-4.166281 -57.88578,4.050365 -57.88578,4.050365 l -2.45873,21.134963 -22.52298,-7.025615 c 0,0 -12.29039,9.169344 -18.2876,13.192846 -15.75742,-15.578841 -57.83441,-31.102777 -96.856444,-31.156323 -1.63899,-0.0022 -2.040397,0.980131 -0.984013,2.23297 z"
       id="path48"
       sodipodi:nodetypes="cccccccccccccccccccc"
       inkscape:label="third layer"
       inkscape:path-effect="#path-effect49"
       inkscape:original-d="M 70.731194,19.766887 C 90.32819,40.301706 71.348682,53.67659 90.73481,80.905522 62.175082,78.49552 34.141857,82.743244 12.603105,98.156278 c 20.413474,17.738352 15.317077,41.007612 43.22393,66.650392 -26.42329,20.21117 -34.138052,45.66448 -42.817659,66.75346 36.480692,0.51428 50.339788,12.46818 80.175103,17.14768 -0.02009,25.86387 2.54726,42.34295 17.096141,80.07204 17.50507,-26.61186 36.07696,-17.9347 64.35533,-48.22634 36.83836,33.58091 46.42842,23.61137 64.50994,50.06358 22.27358,-26.45514 16.74842,-72.983 14.49186,-86.80862 35.05069,10.23932 47.78981,-20.16269 83.90114,-9.79867 -8.41401,-25.00768 -16.28472,-54.3548 -44.86708,-67.82972 34.14339,-25.37185 19.82348,-43.6872 43.64225,-65.67721 -22.24294,-17.455451 -48.02194,-19.587998 -74.71488,-17.760095 9.47007,-23.501524 5.36777,-37.936164 14.08558,-62.466545 -27.12658,-5.752101 -61.86027,3.318662 -61.86027,3.318662 l -2.45873,21.134963 -22.52298,-7.025615 c 0,0 -12.29039,9.169344 -18.2876,13.192846 C 154.39746,34.922481 110.56594,19.005607 70.731194,19.766887 Z"
       transform="matrix(0.36653972,0.01672552,-0.01672828,0.36647934,71.131456,65.76388)" /><path
       style="display:inline;fill:#808285;fill-opacity:1;stroke:none;stroke-width:6.54232;stroke-dasharray:none;stroke-opacity:1;filter:url(#filter2)"
       d="m 18.522182,24.876991 c 1.221852,17.05551 -4.050811,33.418283 30.553442,73.145926 -27.368705,-7.582882 -56.7123019,-13.760026 -92.307527,4.312503 -2.678208,1.35979 -2.906587,4.11515 -0.863639,6.31493 17.122122,18.43652 7.552638,40.40881 48.0322606,69.19175 -24.3869966,18.65361 -43.6704746,36.97905 -53.3213916,56.27218 -1.318096,2.63501 0.178607,4.86706 3.116036,5.09739 32.176347,2.52309 42.5088522,23.05495 79.167541,19.86145 -1.742816,28.74418 -2.195316,40.21476 8.557174,65.74978 1.325844,3.14861 4.204716,3.47489 6.842907,1.31173 15.659487,-12.83984 34.628823,-1.92064 63.126695,-39.60287 36.4773,42.43421 54.62314,38.29526 70.05633,47.41373 2.54985,1.50654 5.11834,0.76585 5.87684,-2.09982 11.10721,-41.9639 -0.025,-79.62865 -5.70548,-90.10187 55.87798,30.35769 72.365,-2.02257 94.1948,-2.88785 1.81057,-0.0718 2.80033,-1.27673 2.21933,-2.99519 -6.98303,-20.65425 -10.99388,-33.89257 -60.30476,-56.39066 56.48508,-35.21623 44.51163,-51.28267 55.39883,-69.47411 1.72357,-2.87992 1.3305,-6.56152 -1.58226,-8.23382 -23.84058,-13.687547 -54.82701,-10.146895 -81.23332,-7.191727 16.80368,-24.780715 12.76329,-44.829509 15.5336,-67.097447 0.58515,-4.70343 -2.43776,-8.574215 -7.16941,-8.291803 -55.63136,3.320401 -88.14927,48.378282 -86.97822,50.855316 -6.84067,-18.101315 -48.351337,-49.140854 -88.185119,-50.807226 -3.158733,-0.13214 -5.250504,2.495191 -5.024659,5.647708 z"
       id="path51"
       sodipodi:nodetypes="ccccccccccccccccc"
       inkscape:label="third layer highlight"
       transform="matrix(0.23641704,0.00935258,-0.00935258,0.23641704,106.95158,84.632772)"
       inkscape:path-effect="#path-effect53"
       inkscape:original-d="m 17.822536,19.197154 c 3.561917,19.42122 -7.15391,34.732353 31.253088,78.825763 -28.588468,-7.920834 -59.331783,-14.307837 -97.10436,6.875383 22.607,19.2007 8.703916,42.18279 51.9654546,72.9438 -26.4232906,20.21117 -46.8552006,40.03708 -55.5348076,61.12606 36.480692,0.51428 45.8875738,23.4684 84.496993,20.10496 -1.866756,30.78832 -2.25315,41.75887 11.024736,71.42221 16.519309,-19.71153 36.298965,-2.7043 67.50204,-43.96357 39.99472,46.52605 57.95221,37.06399 74.45923,50.47501 13.49948,-44.00335 1.6809,-84.36205 -4.23154,-95.26297 58.63773,31.85702 73.89747,-5.37405 97.47373,-2.77408 -7.75737,-22.48117 -9.6239,-35.89303 -61.36436,-59.49962 61.53437,-38.36427 41.82394,-54.00206 58.93176,-74.41874 C 252.29902,87.553211 218.68496,91.398988 190.34599,94.570443 209.2494,66.693213 201.77407,44.804359 207.29109,19.007902 146.4401,17.854492 110.50192,67.434708 111.73196,70.036509 104.56272,51.065744 59.312919,17.883996 17.822536,19.197154 Z" /></g><g
     inkscape:groupmode="layer"
     id="layer2"
     inkscape:label="details"><path
       id="path36"
       style="display:inline;fill:#343530;fill-opacity:1;stroke:#343530;stroke-width:0.5;stroke-linecap:round;stroke-linejoin:round;stroke-dasharray:none;stroke-opacity:1"
       d="m 191.47164,1.5741162 c -0.40131,-0.0057 -0.79036,0.00877 -1.16138,0.044254 -1.45645,0.1393847 -2.17832,0.2108751 -2.73566,0.3212761 -0.92888,0.184006 -1.40028,0.4760758 -4.05085,1.3731934 -3.60979,1.221784 -7.82097,4.8341257 -10.29245,8.7570313 -0.99365,1.57724 -0.17238,2.049127 1.44351,0.902979 5.38519,-3.8197347 11.54415,-7.9815126 18.29297,-6.7166021 -3.21822,1.5867293 -6.64431,4.7353051 -8.77616,8.1191571 -0.99367,1.577246 -0.17237,2.04954 1.4435,0.903405 6.26542,-4.444068 13.57709,-9.3585381 21.64798,-5.6412827 1.34698,0.6203937 4.14554,1.4040987 4.80343,0.192766 0.0637,-0.117292 0.11385,-0.243345 0.15094,-0.377446 0.8798,-3.1790406 -6.4095,-5.9650991 -10.9669,-5.5289428 -0.68637,0.065695 -1.17257,0.1146037 -1.59237,0.161277 -1.98995,-1.4594672 -5.39739,-2.4712369 -8.20656,-2.5110653 z M 56.280306,4.0600768 c -2.911957,0.00548 -5.426079,0.8291916 -5.552341,2.6846838 -0.0094,0.1391402 -0.0038,0.2753389 0.01727,0.4080849 0.217668,1.3711371 3.106417,1.6256758 4.577261,1.5195766 8.812924,-0.6357218 14.058106,6.5703529 18.475964,12.9642679 1.139389,1.649014 2.067487,1.495963 1.655298,-0.337871 -0.884304,-3.934334 -3.062454,-8.105501 -5.561788,-10.735758 6.759773,1.200602 11.170779,7.291596 14.967973,12.787249 1.139398,1.649021 2.067065,1.495956 1.654884,-0.337872 C 85.489639,18.451345 82.72696,13.56647 79.739015,11.140508 77.545032,9.3591903 77.198872,8.9175663 76.386885,8.4158257 75.899701,8.1147811 75.245119,7.7921866 73.922668,7.1456114 71.227555,5.8279211 66.992765,5.3851186 64.304268,6.1473131 63.925235,5.9548402 63.484419,5.7367089 62.861186,5.4319925 61.050746,4.5468348 58.545156,4.0558532 56.280306,4.0600768 Z M 24.573486,58.560564 c -0.566973,0.02421 -1.285707,0.125193 -2.734425,0.333617 -2.952427,0.424764 -6.729838,2.454073 -8.575871,4.615325 -0.419014,0.05375 -0.903454,0.120923 -1.586199,0.219149 -4.5332397,0.652193 -11.01491929,5.086889 -9.4567732,7.974056 0.065716,0.12178 0.1424067,0.23279 0.2303044,0.331909 0.9078503,1.023877 3.4595126,-0.400282 4.6340003,-1.322551 7.0372665,-5.526039 15.2401455,-2.469227 22.3207775,0.377019 1.826127,0.734061 2.521715,0.08037 1.206205,-1.220426 -2.8223,-2.790726 -6.852681,-5.046669 -10.336028,-5.831071 6.291355,-2.826109 13.205996,-0.229364 19.291892,2.217025 1.826127,0.734059 2.521309,0.08036 1.2058,-1.220429 -3.271898,-3.235294 -8.169035,-5.757047 -11.953082,-6.093623 -2.778519,-0.247137 -3.301637,-0.420337 -4.246601,-0.38 z m 210.134044,0.374469 c -3.708,0.06597 -8.46924,1.844192 -11.89305,4.437025 -1.46833,1.112009 -0.86138,1.853925 1.04172,1.372768 6.34242,-1.60349 13.52563,-3.243997 19.40664,0.407661 -3.55251,0.307225 -7.83315,1.999448 -10.98334,4.385111 -1.46835,1.112029 -0.86098,1.85392 1.04211,1.372768 7.37911,-1.865557 15.8973,-3.787956 22.17725,2.641282 1.04809,1.073003 3.3983,2.829532 4.42755,1.937022 0.0996,-0.08643 0.18967,-0.185985 0.27019,-0.297876 1.90904,-2.652005 -3.95763,-7.924527 -8.36983,-9.183414 -0.6645,-0.189588 -1.13642,-0.321581 -1.54507,-0.431489 -1.55759,-2.392087 -5.04676,-4.914154 -7.92033,-5.73405 -1.41004,-0.402315 -2.10996,-0.5994 -2.66904,-0.699999 -0.93178,-0.16761 -1.47218,-0.06677 -4.25811,-0.197022 -0.23714,-0.01109 -0.47949,-0.01419 -0.72669,-0.0098 z M 26.994127,151.14706 c -4.086601,0.0284 -8.513037,1.23207 -11.25642,3.17277 -2.302183,1.62857 -2.813061,1.83707 -3.51992,2.48724 -0.424118,0.39009 -0.918726,0.93911 -1.912743,2.04936 -2.0257425,2.26263 -3.7086811,6.30798 -3.8156088,9.19022 -0.291492,0.31607 -0.6254733,0.6853 -1.0939342,1.20851 -3.110387,3.47412 -5.41493359,11.15272 -2.4424335,12.36725 0.1253864,0.0512 0.2525534,0.0867 0.3812319,0.10595 1.3291853,0.19799 2.4334231,-2.57591 2.7784351,-4.05916 2.0672114,-8.88727 10.2872475,-11.89378 17.5099315,-14.32809 1.862763,-0.62781 2.001296,-1.58913 0.187126,-1.73448 -3.892141,-0.31186 -8.392078,0.58143 -11.568568,2.25574 3.141501,-6.30857 10.082996,-8.82726 16.290985,-10.91957 1.862774,-0.62783 2.000879,-1.58912 0.186711,-1.73448 -0.564025,-0.0452 -1.140998,-0.0654 -1.724793,-0.0613 z m 211.118993,0.004 c -1.81955,-0.009 -1.75818,0.96083 0.0486,1.74468 6.02114,2.61231 12.73993,5.71196 15.37059,12.26597 -3.03303,-1.93833 -7.44726,-3.21105 -11.35101,-3.23065 -1.81959,-0.009 -1.75773,0.96128 0.049,1.74512 7.0053,3.0393 14.9593,6.73317 16.31482,15.76598 0.22624,1.50752 1.10656,4.36576 2.44697,4.28127 0.12974,-0.009 0.25962,-0.0328 0.38863,-0.0732 3.05878,-0.95807 1.37065,-8.80632 -1.45378,-12.53279 -0.42539,-0.56122 -0.72896,-0.95771 -0.9944,-1.29746 0.12198,-2.88159 -1.23422,-7.05597 -3.07372,-9.48298 -0.90262,-1.19088 -1.35195,-1.77989 -1.74371,-2.20469 h -4.1e-4 c -0.65292,-0.70796 -1.14532,-0.95933 -3.31059,-2.77786 -2.94885,-2.47667 -8.16523,-4.18069 -12.69087,-4.20341 z M 83.112942,221.25423 c -0.252952,-5.1e-4 -0.618021,0.15598 -1.078723,0.50085 -3.666711,2.74481 -6.948768,7.27253 -7.952819,11.06257 -0.73722,2.78296 -0.99638,3.28427 -1.128893,4.2532 l -4.06e-4,-4.2e-4 c -0.0795,0.58137 -0.113437,1.33096 -0.177245,2.84298 -0.129999,3.08138 1.11623,7.29275 2.836818,9.56214 -0.02468,0.43613 -0.04847,0.94104 -0.07855,1.65361 -0.199632,4.73126 2.843837,12.12926 5.869807,11.06555 0.12749,-0.0454 0.247127,-0.10299 0.357389,-0.17404 1.137351,-0.73879 0.244835,-3.59296 -0.41948,-4.9549 -3.980368,-8.16066 0.407932,-15.95607 4.39341,-22.64728 1.027879,-1.72566 0.532486,-2.55167 -0.941762,-1.44807 -3.162867,2.36764 -6.035847,6.06116 -7.411198,9.46426 -1.54892,-6.91343 2.169511,-13.48075 5.595104,-19.23193 0.706659,-1.18642 0.693012,-1.94737 0.13654,-1.94852 z M 187.40558,222.087 c -0.42864,0.0541 -0.49375,0.77938 -0.026,1.95022 2.49455,6.24314 5.15218,13.34034 2.55676,19.90937 -0.83277,-3.58661 -3.09913,-7.70718 -5.85624,-10.56681 -1.28512,-1.33291 -1.90207,-0.59926 -1.15356,1.27404 2.90227,7.26362 6.03241,15.68345 0.84429,23.08214 -0.86587,1.23482 -2.18706,3.905 -1.17825,4.82216 0.0977,0.0887 0.20622,0.16577 0.32532,0.23107 2.82312,1.54978 6.96893,-5.25048 7.50166,-9.95407 0.0802,-0.70838 0.13469,-1.21092 0.17767,-1.64553 2.04856,-1.95614 3.92803,-5.90729 4.27498,-8.97066 0.17025,-1.50315 0.25223,-2.24914 0.26361,-2.83617 0.0187,-0.97839 -0.16005,-1.51567 -0.45855,-4.38467 -0.40654,-3.90731 -2.9482,-8.91931 -6.14453,-12.23449 -0.48193,-0.49984 -0.87007,-0.70903 -1.12724,-0.6766 z"
       inkscape:label="first layer creases" /><path
       id="path47"
       style="display:inline;fill:#343530;fill-opacity:1;stroke:#343530;stroke-width:0.5;stroke-linecap:round;stroke-linejoin:round;stroke-dasharray:none;stroke-opacity:1"
       d="m 163.44116,77.42554 c -0.17599,-0.01249 -0.34706,-0.01708 -0.51076,-0.01173 -0.64266,0.02105 -0.96125,0.03245 -1.20865,0.0647 -0.41224,0.05376 -0.62647,0.165268 -1.81227,0.476399 -1.61494,0.423726 -3.55421,1.845479 -4.73785,3.444425 -0.47589,0.642875 -0.12742,0.864464 0.6106,0.42067 2.4597,-1.479001 5.26756,-3.082821 8.19714,-2.36994 -1.45234,0.588723 -3.03537,1.834337 -4.05637,3.213572 -0.47591,0.642874 -0.12751,0.864627 0.61063,0.420848 2.86172,-1.72075 6.19442,-3.613612 9.64219,-1.826206 0.57541,0.298305 1.78371,0.703832 2.10299,0.207346 0.031,-0.04805 0.0563,-0.100205 0.0757,-0.15612 0.46641,-1.325116 -2.66189,-2.697198 -4.67283,-2.63141 -0.30284,0.0099 -0.51745,0.01794 -0.70286,0.02676 -0.83634,-0.670945 -2.30605,-1.189107 -3.53774,-1.279454 z m -59.38801,-2.480884 c -1.27796,-0.07417 -2.40206,0.209748 -2.50436,0.993292 -0.007,0.05878 -0.009,0.116671 -0.003,0.173511 0.0609,0.58714 1.32209,0.770624 1.97021,0.76409 3.8834,-0.03914 6.00301,3.153873 7.78009,5.980842 0.45831,0.729078 0.86948,0.688447 0.73493,-0.1 -0.28865,-1.691544 -1.13904,-3.517347 -2.16936,-4.69811 2.93602,0.685894 4.71775,3.384226 6.24518,5.81404 0.45834,0.729089 0.86929,0.688436 0.73475,-0.100008 -0.33463,-1.961016 -1.42352,-4.104765 -2.67339,-5.211665 -0.91776,-0.812771 -1.0585,-1.009095 -1.40217,-1.243099 -0.20617,-0.140408 -0.48526,-0.294322 -1.04923,-0.603095 -1.14939,-0.629259 -2.99652,-0.927777 -4.19557,-0.674856 -0.16146,-0.09154 -0.34939,-0.195561 -0.61517,-0.34108 -0.7721,-0.4227 -1.8592,-0.69643 -2.85319,-0.753861 z M 88.762217,97.227381 c -0.249433,-0.0043 -0.567357,0.01947 -1.208361,0.06998 -1.306325,0.102924 -3.015231,0.864709 -3.879926,1.732961 -0.185231,0.01184 -0.399514,0.0277 -0.701599,0.05142 -2.005773,0.158046 -4.962149,1.869148 -4.351355,3.134248 0.02576,0.0535 0.05659,0.10243 0.09268,0.14678 0.372513,0.45792 1.528231,-0.0794 2.066928,-0.43966 3.227762,-2.159433 6.750141,-0.64861 9.785359,0.74352 0.782804,0.35905 1.104563,0.10004 0.560161,-0.48601 -1.167977,-1.25725 -2.879599,-2.319305 -4.388352,-2.74302 2.83221,-1.033967 5.800895,0.248112 8.409723,1.44463 0.782797,0.35901 1.104383,0.10003 0.559965,-0.48602 -1.35402,-1.457541 -3.439283,-2.654989 -5.091308,-2.896665 -1.213036,-0.177458 -1.438214,-0.264595 -1.853909,-0.272184 z m 92.202343,5.653589 c -1.62883,-0.0689 -3.76308,0.56059 -5.33104,1.57058 -0.67245,0.43319 -0.42485,0.76367 0.42243,0.60937 2.82372,-0.51412 6.01734,-1.02198 8.50581,0.68035 -1.56671,0.0373 -3.48791,0.64308 -4.93058,1.5724 -0.67246,0.43316 -0.42466,0.76366 0.42262,0.60939 3.28528,-0.59819 7.07182,-1.19065 9.66515,1.69997 0.43279,0.48243 1.41977,1.28876 1.89397,0.93722 0.046,-0.0338 0.0879,-0.0739 0.1261,-0.11928 0.90474,-1.0747 -1.53647,-3.46402 -3.44082,-4.11323 -0.28682,-0.0977 -0.4906,-0.16609 -0.6671,-0.22339 -0.62308,-1.05513 -2.09048,-2.21589 -3.33075,-2.63871 -0.60857,-0.20748 -0.91074,-0.30936 -1.15355,-0.36665 -0.40466,-0.0955 -0.64434,-0.0668 -1.86357,-0.19488 -0.10383,-0.0112 -0.21007,-0.0182 -0.31871,-0.0224 z m -93.479747,33.67255 c -1.794022,-0.0947 -3.766858,0.29989 -5.01976,1.0511 -1.051407,0.63043 -1.280859,0.7055 -1.607478,0.96273 -0.195969,0.15433 -0.426886,0.37422 -0.891141,0.81905 -0.946123,0.90654 -1.786861,2.57801 -1.906617,3.79748 -0.135902,0.12643 -0.291789,0.27427 -0.510584,0.4839 -1.4527,1.39191 -2.658027,4.5879 -1.384315,5.18066 0.05376,0.025 0.108636,0.0433 0.164613,0.0549 0.578279,0.11871 1.132939,-1.0287 1.32182,-1.6487 1.131719,-3.71471 4.814845,-4.77473 8.045838,-5.61818 0.833294,-0.21753 0.918377,-0.62156 0.125963,-0.73065 -1.70008,-0.23402 -3.697336,0.0271 -5.133562,0.65408 1.537977,-2.59311 4.647719,-3.47969 7.424805,-4.20463 0.833293,-0.21754 0.91819,-0.62158 0.125761,-0.73064 -0.246389,-0.0337 -0.499026,-0.0576 -0.755317,-0.0713 z m 92.643947,5.52199 c -0.79822,-0.0515 -0.79581,0.36146 -0.0226,0.74113 2.57623,1.26524 5.44625,2.75539 6.43507,5.6035 -1.282,-0.90127 -3.18693,-1.55643 -4.89946,-1.66682 -0.79826,-0.0515 -0.79564,0.36169 -0.0226,0.74133 2.99731,1.47205 6.39435,3.24648 6.76093,7.11244 0.0611,0.64521 0.37525,1.8803 0.96561,1.87952 0.0572,6.2e-4 0.11476,-0.006 0.17238,-0.0208 1.36647,-0.3263 0.82403,-3.69862 -0.32123,-5.35274 -0.1725,-0.24911 -0.2957,-0.42519 -0.4036,-0.57622 0.12636,-1.21878 -0.3633,-3.02448 -1.10919,-4.10179 -0.36598,-0.5286 -0.5483,-0.79014 -0.70946,-0.98054 l -1.9e-4,-2e-5 c -0.26862,-0.31727 -0.47836,-0.43675 -1.38257,-1.26455 -1.23146,-1.12736 -3.47744,-1.98639 -5.46283,-2.11437 z m -69.78925,25.67528 c -0.11097,-0.008 -0.27516,0.05 -0.48602,0.18418 -1.67843,1.06811 -3.23306,2.90233 -3.76945,4.48331 -0.39381,1.16089 -0.52023,1.36671 -0.60285,1.77412 l -1.6e-4,-1.9e-4 c -0.0496,0.24446 -0.0834,0.56144 -0.14963,1.20097 -0.13508,1.30329 0.30554,3.12178 1.00323,4.12916 -0.0221,0.1843 -0.045,0.3978 -0.0765,0.69919 -0.20715,2.00114 0.94144,5.21795 2.29618,4.846 0.057,-0.016 0.111,-0.0372 0.16124,-0.0645 0.51776,-0.28356 0.19822,-1.51725 -0.0589,-2.11219 -1.54045,-3.56473 0.58221,-6.75578 2.50021,-9.48906 0.49468,-0.70492 0.29815,-1.06816 -0.37665,-0.63871 -1.4478,0.92134 -2.80185,2.41251 -3.49137,3.81969 -0.50499,-2.97226 1.29269,-5.66 2.94123,-8.0093 0.34007,-0.48467 0.35333,-0.80771 0.10913,-0.82274 z m 45.74504,3.08027 c -0.18946,0.0118 -0.23636,0.31764 -0.0606,0.82635 0.9369,2.71274 1.92378,5.7919 0.61886,8.50975 -0.27481,-1.54271 -1.16521,-3.34939 -2.30284,-4.63416 -0.53027,-0.59882 -0.81952,-0.30385 -0.53841,0.5101 1.09005,3.15616 2.25086,6.80859 -0.21276,9.81047 -0.4112,0.50099 -1.05845,1.59876 -0.63892,2.01408 0.0405,0.0402 0.0863,0.0756 0.13692,0.10657 1.19968,0.73106 3.19082,-2.04431 3.54344,-4.02504 0.0531,-0.29828 0.0897,-0.50998 0.1196,-0.69315 0.94836,-0.77596 1.87296,-2.40235 2.10263,-3.69238 0.11273,-0.63295 0.1675,-0.94717 0.18737,-1.1958 0.0332,-0.41444 -0.032,-0.64695 -0.0904,-1.87141 -0.0797,-1.66758 -1.06836,-3.85946 -2.38723,-5.34887 -0.19884,-0.2246 -0.36388,-0.32344 -0.47756,-0.31641 z"
       inkscape:label="second layer creases" /><path
       id="path53"
       style="display:inline;fill:#343530;fill-opacity:1;stroke:#343530;stroke-width:0.499998;stroke-linecap:round;stroke-linejoin:round;stroke-dasharray:none;stroke-opacity:1"
       d="m 177.77234,42.702454 c -0.28186,-0.01199 -0.55555,-0.01065 -0.81704,0.0053 -1.02633,0.06381 -1.53508,0.09697 -1.92901,0.160063 -0.65649,0.105366 -0.99378,0.293562 -2.87476,0.846534 -2.56176,0.753064 -5.59519,3.116929 -7.41252,5.728668 -0.73064,1.050079 -0.1634,1.388001 0.99582,0.643955 3.86272,-2.479771 8.27619,-5.17539 12.99271,-4.172909 -2.29408,1.009236 -4.76631,3.074796 -6.3339,5.327687 -0.73063,1.050091 -0.1631,1.388292 0.99584,0.64422 4.49409,-2.885095 9.73305,-6.067403 15.32825,-3.371318 0.93383,0.449949 2.88429,1.041687 3.37147,0.23298 0.0472,-0.07832 0.0851,-0.162845 0.11376,-0.253147 0.68355,-2.14037 -4.38155,-4.18744 -7.59309,-3.988042 -0.48366,0.03011 -0.82634,0.05301 -1.12228,0.07566 -1.36843,-1.03348 -3.74211,-1.793057 -5.71531,-1.879788 z M 82.720089,41.518131 c -2.046388,-0.05849 -3.83007,0.447871 -3.956892,1.705327 -0.0093,0.09431 -0.0079,0.186902 0.0041,0.277524 0.124679,0.935838 2.149567,1.170109 3.185322,1.129295 6.206072,-0.24449 9.743926,4.761019 12.717138,9.197348 0.766807,1.144147 1.422148,1.059919 1.17017,-0.194232 -0.540636,-2.690823 -1.985593,-5.569978 -3.687929,-7.409444 4.725565,0.959029 7.700187,5.189496 10.255662,9.002597 0.76681,1.144148 1.42185,1.059908 1.16985,-0.194218 -0.62674,-3.119526 -2.46779,-6.495799 -4.517685,-8.206878 -1.505121,-1.256431 -1.739346,-1.563714 -2.299631,-1.92171 -0.336205,-0.214838 -0.789568,-0.447832 -1.705593,-0.915044 -1.866824,-0.952183 -4.833588,-1.342909 -6.738486,-0.882395 -0.262454,-0.138709 -0.567696,-0.296281 -0.999413,-0.51646 -1.254037,-0.639637 -3.004673,-1.026341 -4.596297,-1.07159 z M 59.319985,77.858678 c -0.39892,0.0043 -0.906001,0.05852 -1.928396,0.168357 -2.083404,0.225711 -4.779561,1.523721 -6.121166,2.95229 -0.295593,0.02758 -0.637367,0.06305 -1.119155,0.115097 -3.198961,0.346672 -7.844826,3.220745 -6.809192,5.21471 0.04356,0.0842 0.09525,0.161094 0.155076,0.230279 0.616962,0.714679 2.439287,-0.198355 3.283562,-0.799736 5.058664,-3.603511 10.760211,-1.353154 15.677413,0.730351 1.268196,0.537333 1.770427,0.108172 0.872725,-0.803232 -1.925985,-1.955313 -4.71188,-3.573091 -7.143574,-4.179849 4.479068,-1.785682 9.284776,0.124821 13.511208,1.915641 1.268197,0.537344 1.77011,0.108162 0.872367,-0.80323 -2.232753,-2.26681 -5.622263,-4.083521 -8.274464,-4.392523 -1.947441,-0.226922 -2.311461,-0.355712 -2.976351,-0.348375 z m 147.657005,4.719479 c -2.60702,-0.034 -5.98938,1.072528 -8.44857,2.760711 -1.05465,0.724039 -0.64336,1.240804 0.70383,0.954475 4.48986,-0.954285 9.57132,-1.9158 13.62904,0.689228 -2.50273,0.133075 -5.54558,1.191469 -7.80827,2.744777 -1.05469,0.724048 -0.64307,1.240803 0.70416,0.954475 5.22373,-1.110212 11.24906,-2.234801 15.53008,2.265071 0.71444,0.751022 2.32992,1.993901 3.0715,1.40964 0.0718,-0.05632 0.13705,-0.122409 0.196,-0.19656 1.39597,-1.760559 -2.61835,-5.466105 -5.69303,-6.414833 -0.46307,-0.142936 -0.79198,-0.242562 -1.07688,-0.325862 -1.04545,-1.657711 -3.44553,-3.44473 -5.44801,-4.062648 -0.98259,-0.303159 -1.4704,-0.451885 -1.86123,-0.532091 -0.65133,-0.133592 -1.03312,-0.07663 -2.98814,-0.224374 -0.16645,-0.01201 -0.33661,-0.02094 -0.51049,-0.0219 z M 59.119725,140.79077 c -2.872332,-0.0676 -6.007569,0.65587 -7.975233,1.91559 -1.651212,1.05716 -2.014526,1.1879 -2.524577,1.61446 -0.306062,0.25594 -0.664901,0.61825 -1.386202,1.35117 -1.469999,1.49364 -2.73569,4.20531 -2.870027,6.16054 -0.211315,0.20846 -0.453613,0.45211 -0.793537,0.79751 -2.257089,2.29337 -4.034206,7.45938 -1.970315,8.34739 0.08698,0.0376 0.175695,0.0642 0.265742,0.08 0.929952,0.16274 1.762903,-1.69774 2.035798,-2.69778 1.635161,-5.9919 7.473268,-7.85912 12.598774,-9.3589 1.321891,-0.38683 1.438951,-1.03678 0.167157,-1.174 -2.728658,-0.29448 -5.909199,0.21655 -8.175732,1.28615 2.33712,-4.21775 7.266748,-5.78082 11.672181,-7.06991 1.321876,-0.38683 1.438657,-1.03675 0.166731,-1.17403 -0.395416,-0.0431 -0.800358,-0.0702 -1.210786,-0.0784 z m 148.356765,4.48842 c -1.27848,-0.045 -1.25527,0.61521 -9.7e-4,1.18595 4.1775,1.90208 8.83525,4.15001 10.54927,8.65712 -2.09157,-1.38087 -5.1674,-2.33905 -7.91018,-2.43532 -1.27847,-0.045 -1.25496,0.61549 -9.8e-4,1.18624 4.86036,2.21303 10.37389,4.89075 11.14096,11.05422 0.12787,1.02865 0.68792,2.98856 1.63159,2.95967 0.0913,-0.004 0.18318,-0.0161 0.27462,-0.0413 2.16912,-0.58568 1.14401,-5.95174 -0.76423,-8.54259 -0.2874,-0.39022 -0.49262,-0.66594 -0.67212,-0.90232 0.14487,-1.95448 -0.72243,-4.81835 -1.96524,-6.50575 -0.60983,-0.82795 -0.91349,-1.23754 -1.18008,-1.53438 l -2.8e-4,-3e-5 c -0.44427,-0.49463 -0.78514,-0.67584 -2.26934,-1.95693 -2.02133,-1.74469 -5.65201,-3.01285 -8.83177,-3.12442 z M 97.115664,189.59648 c -0.177679,-0.006 -0.437506,0.0929 -0.768315,0.31724 -2.633028,1.78626 -5.032371,4.79154 -5.81579,7.3442 -0.57519,1.8744 -0.767598,2.20939 -0.880622,2.86459 l -2.62e-4,-2.7e-4 c -0.06779,0.39315 -0.107099,0.90151 -0.183661,1.92698 -0.154674,2.08998 0.634628,4.9766 1.797126,6.55446 -0.02643,0.29568 -0.05253,0.63818 -0.08926,1.12137 -0.237541,3.20903 1.749316,8.29809 3.897563,7.63996 0.09037,-0.0281 0.175773,-0.0645 0.2547,-0.1107 0.814442,-0.47759 0.245762,-2.43498 -0.193069,-3.37406 -2.629457,-5.62693 0.614351,-10.82795 3.5524,-15.28765 0.757745,-1.15016 0.426609,-1.72166 -0.632045,-1.00351 -2.271228,1.54079 -4.365974,3.98823 -5.402326,6.27026 -0.94649,-4.72823 1.801388,-9.10947 4.326715,-12.9426 0.520889,-0.79074 0.526969,-1.30785 0.136513,-1.32041 z m 73.271076,2.78169 c -0.30237,0.0267 -0.36298,0.51884 -0.0582,1.32395 1.62478,4.29306 3.3466,9.16966 1.38786,13.57589 -0.5116,-2.45355 -2.01954,-5.30022 -3.8983,-7.30095 -0.8757,-0.93253 -1.32431,-0.44742 -0.83679,0.84075 1.89032,4.99479 3.91702,10.7797 0.11934,15.69433 -0.63382,0.82019 -1.61708,2.60561 -0.927,3.24994 0.0667,0.0626 0.1416,0.1171 0.22387,0.16391 1.95204,1.11251 5.00499,-3.41779 5.47595,-6.60098 0.0708,-0.4794 0.11949,-0.81952 0.15873,-1.11378 1.47974,-1.28497 2.88159,-3.92849 3.18832,-6.00161 0.15051,-1.01726 0.22333,-1.52216 0.24349,-1.92062 0.0332,-0.66408 -0.0801,-1.03284 -0.23217,-2.98761 -0.20546,-2.66232 -1.88858,-6.12024 -4.06664,-8.43966 -0.32838,-0.34973 -0.59686,-0.50005 -0.77819,-0.48347 z"
       inkscape:label="third layer creases" /></g></svg>
