<?xml version="1.0" encoding="UTF-8" standalone="no"?>
<!-- Created with Inkscape (http://www.inkscape.org/) -->

<svg
   width="1000"
   height="1000"
   viewBox="0 0 264.58334 264.58334"
   version="1.1"
   id="svg1"
   inkscape:version="1.4 (86a8ad7, 2024-10-11)"
   sodipodi:docname="specter.svg"
   xml:space="preserve"
   inkscape:export-filename="player.png"
   inkscape:export-xdpi="96"
   inkscape:export-ydpi="96"
   xmlns:inkscape="http://www.inkscape.org/namespaces/inkscape"
   xmlns:sodipodi="http://sodipodi.sourceforge.net/DTD/sodipodi-0.dtd"
   xmlns="http://www.w3.org/2000/svg"
   xmlns:svg="http://www.w3.org/2000/svg"><sodipodi:namedview
     id="namedview1"
     pagecolor="#000000"
     bordercolor="#ffffff"
     borderopacity="1"
     inkscape:showpageshadow="0"
     inkscape:pageopacity="0"
     inkscape:pagecheckerboard="1"
     inkscape:deskcolor="#505050"
     inkscape:document-units="px"
     showguides="true"
     inkscape:zoom="0.41804167"
     inkscape:cx="661.41732"
     inkscape:cy="661.41732"
     inkscape:window-width="1366"
     inkscape:window-height="705"
     inkscape:window-x="-8"
     inkscape:window-y="-8"
     inkscape:window-maximized="1"
     inkscape:current-layer="layer3"><inkscape:page
       x="0"
       y="0"
       width="264.58334"
       height="264.58334"
       id="page2"
       margin="0"
       bleed="0" /></sodipodi:namedview><defs
     id="defs1" /><g
     inkscape:label="body"
     inkscape:groupmode="layer"
     id="layer1"><circle
       style="display:inline;opacity:1;fill:#61646b;fill-opacity:0.5;stroke:#ffffff;stroke-width:20;stroke-dasharray:none;stroke-opacity:0.6"
       id="path10"
       cy="132.29167"
       cx="132.29167"
       inkscape:label="core body"
       r="119.64584" /><path
       id="path14-7"
       style="fill:#ffffff;fill-opacity:1;stroke:none;stroke-width:3.33441;stroke-dasharray:none;stroke-opacity:1"
       inkscape:label="left eye"
       d="m 96.720198,67.467264 c -2.61272,-0.0288 -5.01235,-0.48183 -6.86728,-1.30483 -9.89296,-4.3893 -17.83245,-21.54193 -9.864,-25.69455 7.98766,-4.16271 31.958252,-10.76024 35.666562,-1.00098 7.70558,20.27902 -7.61349,28.12524 -18.935282,28.00036 z m 71.142942,0 c -11.32179,0.12488 -26.64086,-7.72134 -18.93528,-28.00036 3.70831,-9.75926 27.6789,-3.16173 35.66656,1.00098 7.96844,4.15262 0.029,21.30525 -9.864,25.69455 -1.85493,0.823 -4.25455,1.27601 -6.86728,1.30483 z" /></g></svg>
