<?xml version="1.0" encoding="UTF-8" standalone="no"?>
<!-- Created with Inkscape (http://www.inkscape.org/) -->

<svg
   width="1000.0001"
   height="1000.0001"
   viewBox="0 0 264.58335 264.58335"
   version="1.1"
   id="svg1"
   inkscape:version="1.4 (86a8ad7, 2024-10-11)"
   sodipodi:docname="luminousSpirit.svg"
   inkscape:export-filename="zapper.png"
   inkscape:export-xdpi="96"
   inkscape:export-ydpi="96"
   xml:space="preserve"
   xmlns:inkscape="http://www.inkscape.org/namespaces/inkscape"
   xmlns:sodipodi="http://sodipodi.sourceforge.net/DTD/sodipodi-0.dtd"
   xmlns="http://www.w3.org/2000/svg"
   xmlns:svg="http://www.w3.org/2000/svg"><sodipodi:namedview
     id="namedview1"
     pagecolor="#505050"
     bordercolor="#ffffff"
     borderopacity="1"
     inkscape:showpageshadow="0"
     inkscape:pageopacity="0"
     inkscape:pagecheckerboard="1"
     inkscape:deskcolor="#505050"
     inkscape:document-units="px"
     showguides="true"
     inkscape:zoom="0.49264169"
     inkscape:cx="396.84014"
     inkscape:cy="561.25984"
     inkscape:window-width="1366"
     inkscape:window-height="705"
     inkscape:window-x="-8"
     inkscape:window-y="-8"
     inkscape:window-maximized="1"
     inkscape:current-layer="layer1"><inkscape:page
       x="0"
       y="0"
       width="264.58334"
       height="264.58334"
       id="page2"
       margin="0"
       bleed="0" /></sodipodi:namedview><defs
     id="defs1" /><g
     inkscape:label="Layer 1"
     inkscape:groupmode="layer"
     id="layer1"><circle
       style="display:inline;opacity:0.25;fill:#948fef;fill-opacity:1;stroke-width:0.267;stroke-dasharray:none"
       id="path8"
       cy="132.29167"
       cx="132.29167"
       inkscape:label="aura"
       r="125.67708" /><path
       style="fill:#948fef;fill-opacity:1;stroke:#7559e3;stroke-width:9.26041612;stroke-linecap:round;stroke-linejoin:round;stroke-dasharray:none;stroke-opacity:1"
       d="m 185.20832,72.760412 66.14583,19.843749 c 0,0 -6.61458,26.275849 -6.61458,39.687499 0,13.41165 6.61458,39.6875 6.61458,39.6875 l -66.14583,19.84375 z"
       id="path2"
       sodipodi:nodetypes="ccsccc" /><path
       style="fill:#948fef;fill-opacity:1;stroke:#7559e3;stroke-width:9.26041612;stroke-linecap:round;stroke-linejoin:round;stroke-dasharray:none;stroke-opacity:1"
       d="M 79.374995,191.82291 13.229166,171.97916 c 0,0 6.614583,-26.27585 6.614583,-39.6875 0,-13.41165 -6.614583,-39.687499 -6.614583,-39.687499 L 79.374995,72.760412 Z"
       id="path2-4"
       sodipodi:nodetypes="ccsccc" /><circle
       style="opacity:1;fill:#8fafef;fill-opacity:1;stroke:#6691e5;stroke-width:13.2292;stroke-dasharray:none;stroke-opacity:1"
       id="path10"
       cy="132.29167"
       cx="132.29167"
       r="85.989563" /><path
       id="path14-7"
       style="opacity:1;fill:#7559e3;fill-opacity:1;stroke:none;stroke-width:3.33441;stroke-dasharray:none;stroke-opacity:1"
       inkscape:label="eyes"
       d="m 102.52252,92.603314 c -2.22004,-0.0213 -9.248984,-0.57066 -10.825129,-1.18105 -8.406135,-3.25532 -6.770874,-18.17912 0,-21.25888 6.787185,-3.08724 23.911849,-7.23785 27.062839,0 6.54753,15.03979 -6.61747,22.53255 -16.23771,22.43993 z m 59.53828,0 c -9.62023,0.0926 -22.78521,-7.40014 -16.23772,-22.43993 3.15099,-7.23785 20.27566,-3.08724 27.06285,0 6.77088,3.07976 8.40619,18.00356 0,21.25888 -1.57616,0.61039 -8.60506,1.15967 -10.82513,1.18105 z"
       sodipodi:nodetypes="ssccssscss" /></g></svg>
