<?xml version="1.0" encoding="UTF-8" standalone="no"?>
<!-- Created with Inkscape (http://www.inkscape.org/) -->

<svg
   width="1000"
   height="1000"
   viewBox="0 0 264.58334 264.58334"
   version="1.1"
   id="svg1"
   inkscape:version="1.4 (86a8ad7, 2024-10-11)"
   sodipodi:docname="specter_spellBook.svg"
   xml:space="preserve"
   inkscape:export-filename="specter_spellBook.png"
   inkscape:export-xdpi="96"
   inkscape:export-ydpi="96"
   inkscape:export-batch-path="C:\Users\User\OneDrive\Documents\Spelz\spellBook"
   inkscape:export-batch-name="specter_spellBook"
   xmlns:inkscape="http://www.inkscape.org/namespaces/inkscape"
   xmlns:sodipodi="http://sodipodi.sourceforge.net/DTD/sodipodi-0.dtd"
   xmlns="http://www.w3.org/2000/svg"
   xmlns:svg="http://www.w3.org/2000/svg"><sodipodi:namedview
     id="namedview1"
     pagecolor="#000000"
     bordercolor="#ffffff"
     borderopacity="1"
     inkscape:showpageshadow="0"
     inkscape:pageopacity="0"
     inkscape:pagecheckerboard="1"
     inkscape:deskcolor="#505050"
     inkscape:document-units="px"
     showguides="true"
     inkscape:zoom="0.5912002"
     inkscape:cx="466.0012"
     inkscape:cy="606.39357"
     inkscape:window-width="1920"
     inkscape:window-height="991"
     inkscape:window-x="-9"
     inkscape:window-y="-9"
     inkscape:window-maximized="1"
     inkscape:current-layer="layer1"><inkscape:page
       x="0"
       y="0"
       width="264.58334"
       height="264.58334"
       id="page2"
       margin="0"
       bleed="0" /></sodipodi:namedview><defs
     id="defs1" /><g
     inkscape:label="body"
     inkscape:groupmode="layer"
     id="layer1"
     style="display:inline"
     transform="translate(-19.843751,-3.9687502)"><g
       id="g1"
       transform="translate(19.843751,3.9687501)"><path
         style="display:inline;fill:#3d2e0f;fill-opacity:1;stroke:#291f0a;stroke-width:7.9375;stroke-linecap:butt;stroke-linejoin:round;stroke-dasharray:none;stroke-opacity:1"
         d="M 26.458334,10.583334 H 238.12501 V 254.00001 H 26.458334 Z"
         id="path2"
         sodipodi:nodetypes="ccccc" /><path
         style="fill:#aa8f09;fill-opacity:1;stroke:#917a08;stroke-width:7.9375;stroke-linejoin:round;stroke-opacity:1"
         d="M 66.145835,7.9375002 23.812501,52.916668 V 7.9375002 Z"
         id="path3"
         sodipodi:nodetypes="cccc" /><path
         style="display:inline;fill:#aa8f09;fill-opacity:1;stroke:#917a08;stroke-width:7.9375;stroke-linejoin:round;stroke-opacity:1"
         d="M 198.43751,7.9375002 240.77084,52.916668 V 7.9375002 Z"
         id="path3-8"
         sodipodi:nodetypes="cccc" /><path
         style="display:inline;fill:#aa8f09;fill-opacity:1;stroke:#917a08;stroke-width:7.9375;stroke-linejoin:round;stroke-opacity:1"
         d="m 240.77084,211.66667 v 44.97917 h -42.33333 z"
         id="path3-5"
         sodipodi:nodetypes="cccc" /><path
         style="display:inline;fill:#aa8f09;fill-opacity:1;stroke:#917a08;stroke-width:7.9375;stroke-linejoin:round;stroke-opacity:1"
         d="M 66.145835,256.64584 23.812501,211.66667 v 44.97917 z"
         id="path3-1"
         sodipodi:nodetypes="cccc" /><g
         id="g4"
         transform="matrix(0.57876293,0,0,0.57876958,31.008195,37.519212)"
         style="stroke-width:1.00789"><g
           inkscape:label="body"
           id="layer1-7"
           style="stroke-width:1.00789"><circle
             style="display:inline;opacity:0.25;fill:#303a4f;fill-opacity:1;stroke-width:0.269107;stroke-dasharray:none"
             id="path8-6"
             cy="175"
             cx="175"
             r="147.5"
             inkscape:label="aura" /><circle
             style="display:inline;opacity:1;fill:#2c313b;fill-opacity:0.394265;stroke-width:0.286678"
             id="path10-1"
             cy="175"
             cx="175"
             r="125"
             inkscape:label="core body" /><ellipse
             style="display:inline;opacity:1;fill:none;fill-opacity:1;stroke:#737a8c;stroke-width:25.6859;stroke-dasharray:none;stroke-opacity:0.5"
             id="path11"
             inkscape:label="outline"
             cy="175"
             cx="175"
             rx="112.25761"
             ry="112.2576" /><path
             style="opacity:1;fill:#8f96a3;fill-opacity:1;stroke:#8f96a3;stroke-width:3.36073;stroke-dasharray:none;stroke-opacity:1"
             d="m 188.39067,105.032 20.7272,10.46555 12.69763,2.81301 c 0,0 12.01913,-1.46257 3.41536,-11.4552 -8.60375,-9.992636 -47.1884,-2.61332 -36.84019,-1.82336 z"
             id="path12"
             inkscape:label="right eye" /><path
             style="opacity:1;fill:#8f96a3;fill-opacity:1;stroke:#8f96a3;stroke-width:3.36072;stroke-dasharray:none;stroke-opacity:1"
             d="m 161.60932,105.03199 -20.72718,10.46553 -12.69762,2.81301 c 0,0 -12.0191,-1.46256 -3.41535,-11.45518 8.60374,-9.992625 47.18835,-2.61332 36.84015,-1.82336 z"
             id="path14"
             inkscape:label="left eye" /></g><g
           id="layer3"
           inkscape:label="hands"
           style="stroke-width:1.00789"><path
             style="opacity:1;fill:#737b8c;fill-opacity:0.702509;stroke:#737b8c;stroke-width:0.942378;stroke-dasharray:none;stroke-opacity:0.698925"
             d="m 257.9454,56.186185 c 0,0 5.01893,15.584513 8.09325,19.62143 3.07434,4.036916 23.26895,17.239702 23.26895,17.239702 0,0 7.84067,6.269509 14.17622,16.159073 6.33555,9.88957 7.92215,34.58831 7.92215,34.58831 0,0 7.30192,-8.81476 13.00543,-19.87296 5.70351,-11.05816 9.80863,-24.359774 10.03513,-33.085385 0.453,-17.451224 -0.8755,-28.338922 -4.1426,-40.683946 -3.26709,-12.345026 -8.82568,-22.365574 -14.2409,-30.16361 -5.41519,-7.798033 -21.54494,-14.5115086 -21.54494,-14.5115086 0,0 10.8,13.4204786 12.28744,19.3511626 1.48752,5.930692 1.56219,12.556769 1.56219,12.556769 0,0 -1.99208,-4.123367 -6.13042,-10.03638 C 297.6826,20.840909 291.286,16.855548 287.01521,13.959167 278.4736,8.1664017 257.63255,5.4637111 257.63255,5.4637111 c 0,0 17.09204,11.9660449 22.03152,19.5296069 4.93946,7.563557 8.81459,14.311013 8.81459,14.311013 0,0 -6.38008,-4.110402 -9.56063,-6.175622 -5.31169,-3.449037 -8.7091,-5.860262 -15.52814,-8.005581 -10.44338,-3.28558 -28.23923,-0.615792 -28.23923,-0.615792 0,0 12.25845,4.172344 17.51485,7.426204 6.60954,4.091476 15.7086,10.688316 18.52588,14.662817 5.63458,7.949039 5.35897,7.965964 7.35679,12.328393 1.73974,3.798874 3.96858,11.918904 3.96858,11.918904 0,0 -5.80145,-1.146523 -12.27418,-4.414394 C 263.76982,63.161386 257.9454,56.186185 257.9454,56.186185 Z"
             id="path16"
             sodipodi:nodetypes="czczcsszzczcssczcsscsssczc"
             inkscape:label="right hand" /><path
             style="opacity:1;fill:#737b8c;fill-opacity:0.702509;stroke:#737b8c;stroke-width:0.94257;stroke-dasharray:none;stroke-opacity:0.702509"
             d="m 92.0546,56.186258 c 0,0 -5.01894,15.584535 -8.09326,19.621458 C 80.887,79.844638 60.6924,93.047443 60.6924,93.047443 c 0,0 -7.840681,6.269524 -14.176241,16.159097 -6.33554,9.88958 -7.92215,34.58835 -7.92215,34.58835 0,0 -7.30192,-8.81477 -13.00543,-19.87299 -5.70352,-11.05817 -9.80864,-24.359803 -10.03514,-33.085423 -0.45299,-17.451248 0.87549,-28.338963 4.1426,-40.684002 3.26709,-12.345045 8.82569,-22.365608 14.24091,-30.163654 C 39.352149,12.190777 55.4819,5.4772914 55.4819,5.4772914 c 0,0 -10.800011,13.4204976 -12.287451,19.3511906 -1.48752,5.930701 -1.56219,12.556786 -1.56219,12.556786 0,0 1.99208,-4.123372 6.13043,-10.036393 4.5547,-6.507943 10.951301,-10.49331 15.222101,-13.389695 8.5416,-5.7927736 29.38266,-8.4954679 29.38266,-8.4954679 0,0 -17.09205,11.9660629 -22.03153,19.5296349 -4.93945,7.563568 -8.81459,14.311033 -8.81459,14.311033 0,0 6.38008,-4.110408 9.56062,-6.175631 5.3117,-3.449041 8.70911,-5.86027 15.52816,-8.005592 10.44338,-3.285584 28.23924,-0.615792 28.23924,-0.615792 0,0 -12.25846,4.17235 -17.51486,7.426215 -6.60954,4.09148 -15.70861,10.688329 -18.52589,14.662836 -5.63458,7.949051 -5.35897,7.965977 -7.35679,12.328411 -1.73974,3.79888 -3.96858,11.918921 -3.96858,11.918921 0,0 5.80144,-1.146524 12.27418,-4.4144 6.47276,-3.267879 12.29719,-10.24309 12.29719,-10.24309 z"
             id="path17"
             sodipodi:nodetypes="czczcsszzczcssczcsscsssczc"
             inkscape:label="left hand" /></g></g></g></g></svg>
